<?xml version="1.0" encoding="UTF-8"?>
<!DOCTYPE svg PUBLIC "-//W3C//DTD SVG 1.1//EN" "http://www.w3.org/Graphics/SVG/1.1/DTD/svg11.dtd">
<!-- Creator: CorelDRAW 2018 (64 Bit) -->
<svg xmlns="http://www.w3.org/2000/svg" xml:space="preserve" width="503.501mm" height="144.266mm" version="1.1" style="shape-rendering:geometricPrecision; text-rendering:geometricPrecision; image-rendering:optimizeQuality; fill-rule:evenodd; clip-rule:evenodd"
viewBox="0 0 66437.28 19035.92"
 xmlns:xlink="http://www.w3.org/1999/xlink">
 <defs>
  <style type="text/css">
   <![CDATA[
    .str1 {stroke:#4A6CF7;stroke-width:26.39;stroke-miterlimit:22.9256}
    .str0 {stroke:white;stroke-width:26.39;stroke-miterlimit:22.9256}
    .fil1 {fill:#4A6CF7}
    .fil0 {fill:white}
   ]]>
  </style>
 </defs>
 <g id="Capa_x0020_1">
  <metadata id="CorelCorpID_0Corel-Layer"/>
  <g id="_2553440104480">
   <path class="fil0 str0" d="M28756.41 14698.46c59.1,-66.96 31.87,-731.45 31.87,-864.92 0,-162.21 47.12,-792.14 -31.96,-884.56 -48.04,-47.15 -8.41,-32.63 -101.32,-45.8l-2083.64 2.47c-731.68,-7.02 -1453.63,-16.76 -2183.39,-25.14l-0.74 -1592.34c621.22,-7.53 1248.87,0.78 1870.69,0.82 305.03,0.03 1650.77,41.62 1801.07,-43.25 34.45,-178.85 41.06,-1549.06 -4.9,-1695.89l-3678.81 -18.66 -5.05 -1694.71c739.09,-20.44 1519.42,2.92 2268.28,1.37l1679.11 0.5c178.04,0.65 395.51,44.52 462.88,-99.61 24.95,-233.92 28.49,-1493.2 -24.11,-1648.99 -222.64,-60.09 -1251.84,-20.87 -1558.18,-20.9l-3179.11 1.11c-370.31,0.17 -1260.59,-39.53 -1573.62,27.34 -85.64,212.97 -31,3233.04 -32,3725.32 -2.55,1254.44 2.3,2509.82 1.75,3764.43 -0.13,306.35 -1.68,613 -1.17,919.3 0.48,291.16 43.65,225.81 731.9,225.45l5171.64 -0.95c118.87,-0.11 362.57,34.12 438.79,-32.39zm33778.04 -5088.74c136.46,-11.7 184.73,-46.88 334.8,-52.9 470.46,-18.9 817.97,-12.69 1174.08,271.2 534.65,426.2 720.65,1205.18 600.36,1872.6 -33.25,184.51 -117.53,366.73 -191.67,525.02 -131.44,280.63 -444.74,552.61 -733.8,678.37 -548.28,238.54 -1194.75,126.49 -1648.37,-247.74 -161.53,-133.27 -389,-423.96 -448.41,-625.02 -30.24,-102.38 -30.11,-59.43 -55.63,-122.33 -134.5,-331.54 -94.56,-776.21 -30.52,-1129.51 44.69,-246.62 45.4,-145.41 76.74,-265.27 42.41,-94.04 100.02,-180.24 158.97,-274.29 74.35,-118.6 117.82,-161.82 211.7,-258.68 160.45,-165.55 305.94,-295.56 551.74,-371.45zm-22328.67 3436.65c-454.28,22 -921.67,-500.75 -1014.05,-770.18 -18.46,-53.81 -15.4,-109.93 -23.54,-165.78 -10.57,-72.44 -22.33,-82.31 -36.87,-140 -83.16,-329.63 30.88,-3018.21 -32.26,-3618.19 -171.73,-34.16 -1564.59,-38.12 -1654.7,5.38 -95.94,59.77 -63.2,300.04 -63.26,479.1 -0.16,570.78 -42.13,2802.66 30.82,3148.89 43.99,208.75 20.86,611.38 222.9,1036.96 35.96,75.74 44.36,116.91 77.89,191.7 58.32,130.08 226.95,401.14 333.49,517.02l121.43 147.78c105.02,105.63 504.8,423.76 651.28,471.43 100.82,32.8 266.51,145.78 384.99,173.75 239.16,56.44 72.44,45.1 218.89,72.6 180.68,33.94 334.27,94.74 469.76,66.31 89.83,63.39 219.46,44.51 335.5,44.26 666.1,-1.43 1126.47,-61.98 1708.56,-419 81.37,-49.92 115.5,-115.8 229.86,-110.86 15.27,659.44 -255.07,494.52 1375.58,523.39 77.76,1.37 147.35,6.56 184.47,-32.68l19.83 -4778.42c2.85,-234.49 57.4,-1458.51 16.65,-1546.1 -130.88,-88.17 -624.76,-38.61 -826.01,-38.45 -1075.28,0.84 -923.48,-193.95 -923.85,777.89l-0.87 2464.81c-4.51,508.26 -128.34,978.74 -511.99,1210.43 -57.23,34.56 -19.96,0.45 -68.36,40.69 -143.98,119.75 -211.15,129.48 -427.55,203.43 -222.27,75.95 -530.49,44.18 -798.6,43.83zm-5782.78 -4381.88c-56.11,-121.75 -686.6,-382.42 -804.69,-404.03l-553.41 -78.35c-215.08,-4.49 -402.69,-1.75 -594.44,34.82 -100.9,19.24 -147.32,24.79 -256.34,38.83 -101.68,13.1 -559.26,208.49 -687.45,251.85 -262.46,88.79 -888.5,608.57 -1026.46,831.59 -132.82,214.72 -224.87,254.02 -358.88,581.91l-132.82 338.91c-21.11,65.22 -31.33,58.8 -50.41,103.88 -27.87,65.84 -31.03,176.8 -56.62,260.11 -91.9,299.28 -96.03,1131.24 -21.75,1427.45l133.39 494.79c34.94,108.89 62.76,68.19 101.29,193.87 44.24,115.11 72.07,234.37 130.67,330.47 163.01,267.34 200.55,304.41 384.86,533.11l450.82 444.04c3.52,3.07 8.02,7.88 11.65,10.85 76.23,62.21 71.91,28.88 150.49,76.36l146.66 99.31c99.35,62.7 167.39,112.94 277.41,169.53 47.44,24.4 103.54,49.9 150.83,72.44 78.13,37.25 104.11,26.64 183,63.76 328.68,154.66 837.44,164.53 1219.78,152.15 577.36,-18.68 619.88,-128.55 914.27,-236.35 140.94,-51.61 247.63,-134.38 372.25,-211.45l189.74 -165.68c98.63,-100.73 117.69,-202.13 342.31,-49.53l908.32 525.9c340.81,181.15 373.24,147.65 378.91,146.85 85.45,-12.26 62.23,-137.48 60.96,-263.32 -20.47,-2025.4 1.21,-4149.79 1.58,-6184.48l3.48 -2018.04c-2.18,-33.21 -0.3,-30.86 -8.89,-63.06 -11.23,-42.13 -7.89,-30.89 -23.79,-53.8 -99.37,-47.69 -1570.57,-40.18 -1685.48,5.04 -81.64,198.88 19.87,2167.64 -28.54,2614.61 -122.38,4.71 -94.52,-45.42 -222.72,-74.37zm-2806.47 1977.4c49.09,-29.29 69.68,-126.62 97.63,-175.01 145.4,-251.63 122.87,-193.72 261.26,-344.11 58.22,-63.28 238.14,-260.05 309.4,-292.24 51.74,-23.38 59.22,-18.88 109.99,-49.8 277.49,-168.96 303.16,-106.62 459.81,-145.32 339.09,-83.75 378.62,-23.37 678.56,13.84l322.32 119.42c27.92,11.23 81.11,37.94 107.88,51.09 272.21,133.72 438.25,390.09 606.38,602.01 19.05,117.28 193.15,416.01 192.73,924.33 -0.51,631.81 -113.33,884.08 -462.42,1306.06l-381.53 287.32c-208.53,117.48 -368.5,166.9 -629.94,179.33 -471.49,22.42 -560.33,12.03 -917.43,-182.98 -285.86,-156.1 -369.92,-258.7 -554.83,-521.03 -156.9,-222.6 -283.48,-486.83 -297.55,-775.59 -38.48,-790.46 55.91,-631.33 97.75,-997.32zm28790.84 -1228.68c-81,45.97 -62.49,31.27 -106.39,116.27l-221.41 428.69c-79.34,159.98 -167.3,485.71 -192.38,686.51 -59.34,475.04 -120.87,618.4 -10.04,1154.26 46.78,226.16 -5.69,129.1 77.77,369.04 25.39,73 14.8,105.38 27.51,179.08 14.34,83.25 33.52,82.77 60.82,161.61 46.1,133.12 70.21,154.04 122.73,302.48 83.31,235.47 278.51,453.25 416.88,659.22 107.83,160.53 379.93,376.47 544.35,533.34 114.56,109.32 540.26,321.8 685.65,389.14 445.89,206.5 1239.17,289.79 1689.55,173.25 357.63,-92.54 861.29,-346.92 1112.28,-606.19 200.67,-207.28 88.01,-84.37 545.77,153.05 115.96,60.14 366.11,231.22 540.51,311.24 870.72,399.55 704.15,105.43 705.87,-350.83l2.77 -3764.43c0.96,-489.34 43.45,-4147.24 -21.71,-4279.8 -47.42,-50.8 -1640.49,-38.93 -1730.91,-3.85 -68.88,165.73 0,2224.94 -18.41,2626.03 -109.7,3.88 -289.88,-123.03 -420.86,-206.12 -63.92,-40.55 -110.18,-74.53 -200.45,-112.9 -103.95,-44.19 -98.14,-75.9 -251.47,-88.64 -105.07,-87.02 -292.76,-80.62 -455.63,-124.68 -247.28,-66.9 -860.91,-34.51 -1096.21,52.67 -79.25,29.37 -151.91,48.9 -235.48,75.73 -381.42,122.46 -865.03,373.06 -1152.24,666.4 -111.23,113.61 -416.57,383.79 -418.88,499.41zm-14657.27 -1444.55l-109.07 132.66c-78,163.1 -150.65,278.31 -237.39,498.84 -34.08,86.65 -17.3,94.52 -63.07,183.31l-106.04 384.54c-147.14,723.54 -189.34,1478.97 9.45,2206.3l69.19 297.06c5.81,30.98 7.42,31.63 13.96,47.88 1.74,4.33 5.03,9.8 6.97,14.01l439.5 831.72 319.8 414.34c41.33,69.5 55.09,92.95 99.73,150.01l478.54 507.89c276.87,249 572.31,374.36 872.87,582.22 57.07,39.45 428.23,191.3 528.12,205.57l588.87 149.38c216.77,39.53 716.58,40.47 954.94,36.93 562.12,-8.33 781.7,-73.34 1266.82,-192.91 341.42,-84.14 767.27,-342.12 1071.25,-519.85 41.58,-24.31 452.09,-350.08 454.2,-430.17 1.56,-59.51 -197.37,-285.87 -249.97,-349.13 -99.65,-119.84 -146.43,-213.01 -241.72,-339.69l-464.78 -705.57c-89.87,20.51 -439.3,330.09 -548.44,396.34 -55.64,33.77 -99.27,43.12 -151.9,74.14 -563.61,332.29 -1127.6,353.46 -1780.45,244.9 -57.6,-9.58 -132.03,-21.09 -182.9,-39.95 -177.43,-65.83 -253.13,-126.8 -316.68,-142.69 -114.31,-28.58 -90.07,-31.75 -179.23,-73.68 -256.63,-120.66 -485.13,-283.54 -680.81,-486.91 -255.65,-265.72 -316.87,-385.98 -495.39,-692.41 -35.63,-61.15 -50.38,-75.65 -74.75,-146.06l-203.03 -559.03c52.64,-117.91 13.6,-369.51 15.03,-519.24 2.63,-276.34 70.57,-635.28 180.09,-887.13 41.22,-94.81 34.41,-11.92 86.47,-184.73l53.22 -94.12c4.12,-4.91 16.89,-19.12 21.02,-24.32 203.39,-256 149.68,-321.15 368.38,-504.34l782.43 -562.35c165.57,-102.21 681.04,-206.96 824.27,-249.8 216.89,-64.87 781.82,-7.38 986.45,41.68 72.98,17.48 138.26,39.8 208.71,61.24l386.09 152.55 552.81 384.66c40.89,42.9 15.78,24.44 63.31,69.79 3.3,3.14 8.46,7.31 11.81,10.44l140.69 121.41c94.37,-33.44 863.85,-822.7 975.38,-920.82 167.78,-147.63 398.37,-256.22 308.75,-377.46 -16.3,-22.05 -25.8,-31 -44.55,-48.73 -28.57,-27.04 -53.27,-46.17 -85.13,-71.54 -184.98,-147.31 -556.54,-420.37 -768.28,-531.4 -80.34,-42.14 -140.57,-71.45 -221.35,-114.44l-232.14 -106.8c-183.56,-57.95 -149,-75.03 -232.99,-100.18l-341.05 -124.88c-250.48,-110.71 -214.97,-30.73 -416.29,-79.86 -100.76,-24.6 -150.12,-53 -264.72,-62.89 -267.62,-23.09 -1302.58,-47.2 -1553.2,31.43l-261.42 69.55c-98.3,20.31 -158.6,47.58 -246.56,68.38 -262.86,62.15 -988.07,394.48 -1208.56,602.84 -151.07,142.76 -352.72,245.52 -618.98,524.66 -109.82,115.13 -210.41,225.78 -302.52,347.47 -82.14,108.49 -256.38,281.32 -255.71,398.91zm11342.28 2071.53c30.55,103.91 91.51,144.67 144.75,237.48 103.58,180.6 240.37,583.34 258.64,770.92 39.68,407.73 10.48,583.5 -124.34,924.75 -111.45,282.12 -179.4,422.76 -402,630.72 -141.36,132.07 -210.42,202.62 -403.31,282.69 -379.4,157.5 -1052.73,205.97 -1411.5,-10.89 -80.29,-48.53 -130,-79.22 -196.59,-138.26 -139.58,-123.74 -220.59,-152.47 -355.46,-340.13l-61.74 -96.17c-2.51,-4.58 -5.41,-10.4 -7.88,-15.02l-91.9 -175.3c-53.44,-82.61 -131.84,-358.76 -143.17,-447.95 -48.15,-379.3 -86.72,-865.27 116.33,-1211.75 425.3,-725.81 279.5,-467.59 827.38,-811.98 35.94,-22.59 17.03,-7.22 43.48,-34.02 35.42,4.7 605.86,-151.91 1079.12,-22.6 145.41,39.72 479.34,222.26 581.82,314.99 55.09,49.85 89.95,94.91 146.37,142.49zm-4252.17 -117.91c-57.53,50.72 -7.2,-0.58 -41.12,50.02 -66.46,99.16 -105.12,260.77 -132.7,365.3 -36.46,138.19 -63.48,367.35 -82.1,508.47 -68.46,519.23 -46.49,798.84 58.92,1300.23 36.04,171.39 266.86,695.13 344.25,817.9 37.36,59.27 81.1,116.55 119.24,170.28 87.39,123.07 149.29,199.56 257.13,324.91 363.1,422.07 568.24,517.85 973.98,754.62l613.85 259.55 502.93 90.37c91.52,9.54 163.78,18.47 273.8,19.23 753.99,5.13 806.93,2.67 1484.03,-250.14l214.17 -81.6c107.71,-30.3 12.51,1.79 93.3,-44.59l29.4 -16.63c235.37,-124.76 532.29,-375.48 709.35,-564.52 432.32,-461.58 511.51,-558.08 764.35,-1114.74 23.32,-51.33 31.39,-48.83 47.4,-105.76l110.35 -456.36c38.19,-84.9 52.7,-96.05 64.99,-211.73 17.75,-167.21 6.73,-402.95 6.41,-576.66 -0.34,-193.1 -3.97,-370.03 -47.55,-528.67 -32.29,-117.53 -33.52,-271.83 -75.82,-343.92 -57.85,-98.59 -98.7,-179.08 -128.44,-319.53 -53.33,-251.84 -368.79,-684.74 -567.06,-887.58 -80.77,-82.63 -213.05,-232.5 -331.63,-271.26l-742.41 -447.67 -357.88 -134.22c-537.32,-110.55 -427.57,-148.01 -1093.86,-148.67 -154.71,-0.15 -338.93,-5.65 -490.96,9.92 -71.99,7.38 -134.5,26.03 -200.84,43.97 -86.16,23.28 -138.35,13.29 -225.85,24.04 -167.09,20.54 -724.33,256.45 -878.33,353.19 -51.24,32.18 -117.04,52.2 -163.68,85.12 -101.43,71.61 -152.8,152.5 -265.54,222.32 -225.49,139.64 -851.44,905.96 -842.08,1104.8z"/>
   <g>
    <path class="fil1 str1" d="M8576.85 18193.11c-18,156.89 395.72,532.26 529.53,618.25 285.95,183.73 645.38,214.34 980.7,211.16 305.94,-2.9 711.36,-44.32 970.43,-219.2 190.66,-128.68 538.86,-467.84 515.95,-667.51 -252.39,-65.65 -1173.75,18.54 -1507.89,19.92 -247.74,1.03 -1352.7,-55.79 -1488.72,37.37z"/>
    <path class="fil1 str1" d="M12268.42 16404.1c110.48,-23.49 294.17,-219.66 306.43,-320.72 9.91,-81.76 -47.61,-174.37 -92.93,-230.21 -88.21,-108.71 -89,-75.48 -200.46,-109.8 -44.11,-72.7 -159.54,-44.76 -324.8,-42.18 -1220.3,19 -2443.72,5.32 -3669.2,12.25 -137.31,0.78 -547.38,-41.29 -639.68,-17.44 -154.38,39.89 -302.48,231.45 -267.5,402.17 20.4,99.46 221.28,304.79 309.24,347.19 114.04,54.97 488.88,8.88 634.64,5.53 835.79,-19.19 1827.69,-29.54 2660.18,-15.32 215.53,3.68 425.05,13.55 642.1,13.63 141.66,0.05 555.16,50.51 641.99,-45.09zm-4776.15 -1389.89c95.98,213.31 303.38,207.27 501.65,206.75l3485.74 0.42c685.18,0.98 892.58,107.63 1083.83,-311.57 55.46,-121.55 54.19,-137.6 -27.31,-247.31 -187.26,-252.07 -223.3,-183.68 -873.06,-173.92 -232.25,3.5 -464.8,3.1 -697.13,4.91 -229.73,1.79 -430.12,24.99 -660.47,26.51 -232.1,1.53 -465.42,0.05 -697.52,-2.59 -364.68,-4.14 -1825.52,-105.26 -2003.84,32.84 -64.18,2.6 -186.66,105.49 -208.28,184.89 -29.37,107.74 13.47,229.67 96.4,279.08zm188.29 2577.15c106.47,174.1 424.02,131.69 598.29,101.67 165.91,-28.58 527.63,-35.81 705.66,-35.85 95.64,-28.12 1158.51,-11.74 1413.74,-14.29 105.55,-1.06 116.6,-20.72 200.41,-26.07 73.48,-4.71 163.94,-2.56 238.88,-2.93 147.84,-0.75 351.45,-11.53 493.79,4.78 198.2,22.71 483.66,160.41 835.05,51.72 173.83,-53.76 215.07,-159.13 273.56,-179.78 37.13,-220.36 362.36,-670.2 -698.28,-560.1 -350.84,36.41 -2825.27,12.59 -3435.85,8.19 -110.72,-0.79 -617.36,-58.53 -645.81,54.48 -137.51,4.88 -194.93,192.23 -178.98,320.98 11.6,93.62 98.22,267.67 199.54,277.2z"/>
   </g>
   <g>
    <path class="fil0 str0" d="M6397.92 5084.25l5.29 7.15c-58.36,149.63 -576.73,562.16 -875.64,1128.97l-298.26 696.34c-86.82,267.44 -167.79,511.08 -212.77,791.7 -124.26,775.26 -86.41,1912.37 205.28,2671.68 45.44,118.28 100.43,227.83 148.6,352.72 42.38,109.9 154.38,243.61 186.95,333.95 61.77,59.52 127.04,175.65 188.98,257.26 35.42,46.67 70.65,91.24 101.85,138.01 115.62,173.22 485.05,535.77 537.39,620.89l565.16 513.82c98.98,93.67 111.34,83.17 219.59,148.37 230.12,138.6 123.72,1017.43 239.53,1192.52 35.4,15.56 456.5,-9.36 514.84,-31.25 25.22,-250.06 -11.07,-648.93 -76.08,-886.88 -34.31,-125.54 -53.68,-265.41 -110.1,-384.89 -64.17,-135.87 -169.71,-197.68 -204.33,-311.23 -382.43,-389.14 -743.37,-714.59 -1104.36,-1133.27 -419.62,-486.69 -561.54,-933.44 -749.68,-1526.77 -188.14,-593.36 -159.65,-1420.74 -11.9,-2011.49 150.73,-602.64 381.73,-1038.2 743.07,-1537.09 254.85,-351.86 780.18,-872.15 1134.04,-1123.18 475.89,-337.62 1033.21,-579.5 1611.91,-669.62 654.73,-101.97 1423.64,-110.85 2058.9,95.23 369.47,119.86 437.22,113.64 825.6,313.98 183.02,94.41 545.56,305.83 691.14,439.1 202.23,94.03 629.64,516.93 774.36,700.45 278.64,353.34 236.59,320.39 441.24,660.14 62.61,103.95 61.21,146.97 105.71,248.33 314.97,717.59 178.49,415.5 353.71,1096.75 54.22,210.78 55.05,466.59 52.73,684.55l-43.4 677.24c-25.45,237.5 -86.32,373.76 -139.08,591.75 -52.46,216.81 -147.56,341.25 -208.81,526.52 -99.25,300.11 -358.34,648.96 -565.76,890.15 -532.7,619.4 -651.44,649.29 -1089.03,1095 -357.59,364.24 -179.02,227.11 -292.85,418.51 35.2,111.31 -96.69,701.61 -45.11,1151.9 127.2,-1.75 345.66,1.45 484.48,-18.84 40.5,-115.14 22.81,-409.51 53.02,-569.63 30.19,-160.17 48.74,-360.44 71.72,-527.7 68.54,-33.7 142.14,-80.05 216.7,-86.52 431.98,-248.11 749.65,-734.37 1063.67,-1073.19 132.58,-143.07 509.99,-675.34 596.05,-833.82 67.86,-124.94 374.5,-906.01 399.82,-1037.69 186.16,-967.53 161.84,-2240.18 -259.69,-3143.73 -40.27,-86.3 -66.87,-162.97 -102.18,-249.77 -45.13,-110.94 -91.56,-137.1 -135.2,-227.73 -170.74,-354.58 -364.17,-544.31 -604.64,-827.77 -100.3,-118.24 -256.27,-221.52 -362.77,-346.62 -123.16,-38.38 -539.72,-434.33 -709.56,-544.28l-593.88 -341.87c-67.23,-31.01 -155.46,-58.34 -221.29,-92.91 -660.04,-346.73 -1334.49,-399.37 -2070.98,-399.65 -614.14,-0.24 -537.88,16.7 -1118.02,108.74 -217.89,34.56 -735.73,209.29 -916.92,330.75 -244.52,163.9 -539,282.39 -764.93,482.13 -112.84,99.75 -234.19,176.8 -345.08,278.2 -100.39,91.78 -238.75,246.72 -359.02,294.61z"/>
    <path class="fil0 str0" d="M9958.95 5897.91c215.38,-73.92 531.26,93.41 580.11,319.1 56.22,259.7 -88.91,536.01 -329.18,593.39 -627.32,149.87 -850.13,-706.85 -250.93,-912.49zm-697.48 1065.55c30.6,17.56 106.85,149.82 191.14,210.94 74.3,53.88 194.36,109.8 247.57,152.97 148.29,46.84 40.8,83.42 61.91,198.26 32.76,166.97 -5.36,614.08 -7.13,814.58 -13.89,1584.77 42.79,3241.44 0.62,4827.94 -5.7,214.68 -56.32,543.32 -22.52,742.16 61.24,23.67 415.59,12.64 491.59,-0.36 69.55,-188.24 27.88,-5330.6 32.54,-6193.97 0.83,-154.54 -44.97,-214.74 -51.1,-342.41 40.96,-41.35 192.73,-82.35 252.07,-88.43l42.24 8.72c29.11,-61.38 159.67,-157.35 219.96,-206.74 100.93,-82.68 108.89,-122.3 173.99,-214.67 358.67,-508.88 140.45,-1201.7 -517.02,-1481.26 -301.98,-128.4 -905.07,13.79 -1118.77,359.99 -392.8,636.37 -31.19,983.39 2.92,1212.3z"/>
    <path class="fil0 str0" d="M7953.55 7963.15c258.16,-67.62 497.52,99.97 563.2,351.03 52.98,202.5 -108.25,535.07 -306.43,585.73 -259.57,66.33 -543.49,-71.98 -580.15,-342.41 -41.38,-305.4 27.46,-516.84 323.37,-594.34zm-675.03 -68.89l-83.35 144.93c-43.66,270.56 -176.85,533.19 14.7,918.82 253.24,509.78 393.09,330.58 597.12,465.79 56.32,467.12 -218.76,398.32 374.67,1059.67 75.71,84.36 187.66,166.61 228.6,265.7 107.87,30.06 71.94,190.29 71.98,307.62 0.11,349.63 -23.32,1892.75 17.73,2059.19 40.6,164.65 13.04,600.08 37.09,811.11 94.46,12.67 434.87,18.96 514.44,-10.64 30.69,-107.92 13.79,-2351.95 12.25,-2657.76 -3.01,-597.33 85.56,-572.51 -318.52,-1008.77 -220.41,-237.97 -480.04,-551.83 -407.11,-905.51 233.18,-74.47 489.43,-288.47 594.5,-524.36 64.92,-145.71 84.8,-321.43 82.15,-479.85 -4.39,-261.22 -103.16,-324.41 -115.05,-453.01 -131.9,-66.73 -277.14,-481.4 -814.61,-474.6 -166.89,2.11 -365.42,55.76 -500.32,151.69 -133.85,95.18 -218.36,262.98 -306.28,329.98z"/>
    <path class="fil0 str0" d="M11888.07 7975.29c348.81,-119.96 745.38,243.57 589.65,573.87 -39.57,83.92 -106.56,259.27 -243.96,322.82 -117.36,54.28 -274.89,12.67 -374.83,-48.73 -445.15,-273.51 -241.65,-754.81 29.15,-847.95zm-490.39 -401.75c-49.24,112.3 -214.1,196.67 -304.05,431.29 -34.32,89.5 -59.07,197.09 -66.81,300.31 -9.36,124.86 42.61,267.97 25.99,339.8 60.01,58.85 63.51,157.03 115.35,247.61 178.66,312.06 533.13,404.02 557.48,447.75 42.26,266.58 -154.33,545.81 -315.55,729.44l-499.17 541.78c24.69,76.47 9.13,2114.39 4.25,2482.73 -3.03,228.82 -36.42,619.97 -6.41,827.11l485.74 -8.34c33.29,-184.68 8.64,-709.87 11.72,-928.91l4.64 -1872.23c1.89,-131.75 -37.45,-313.5 65.42,-405.75 71.06,-63.73 187.9,-198.26 271.77,-218.25 131.26,-127.2 289.96,-237.62 396.05,-382.17 177.14,-241.39 104.37,-378.04 118.91,-684.24 41.62,-26.32 293.92,-68.79 492.78,-263.24 126.71,-123.91 226.24,-332.13 250.63,-505.11l19.9 -0.95c8.62,-391.62 25.65,-636.85 -241.28,-920.39 -308.09,-327.29 -701.94,-444.51 -1136.73,-284.46 -101.73,37.45 -160.73,100.89 -250.63,126.24z"/>
    <path class="fil0 str0" d="M545.56 8393.66c16.59,-76.83 112.51,-179.4 171.79,-207.49 678.09,-321.29 941.69,533.79 521.2,833.6 -97.08,69.22 -157.81,104.03 -291.65,88.27l-209.68 -75.32c-85.29,-53.45 -29.68,-3.26 -63.24,-72.78 -51.76,-93.39 -132.58,-101.79 -178.57,-236.48 -39.72,-116.29 -11.11,-228.83 50.15,-329.8zm650.7 1150.07c83.47,-51.61 335.56,-112.2 439.71,-280.94 51.51,-83.43 94.96,-115.09 142.41,-224.17 23.98,-55.1 98.26,-210.96 134.17,-249.31 124.35,27.63 96.8,47.3 265.47,49.15 117.08,1.28 218.69,4.68 332.69,12.72 236.75,16.7 1076.56,5.33 1373.71,4.79 173.13,-0.3 538.08,-34.29 677.97,-11.68 49.81,-109.72 -0.94,-140.69 -10.24,-248.16 -33.07,-382.22 235.7,-287.05 -1346.54,-289.43 -220.12,-0.34 -440.32,-2.49 -660.44,-1.87 -907.6,2.52 -567.65,103.3 -778.51,-214.49 -57.83,-87.17 -81.04,-118.4 -158.04,-189.44 -162.39,-149.82 -220.19,-207.07 -459.54,-234.67 -166.31,-19.17 -470.61,-15.35 -604.99,84.96 -301.24,224.86 -538.05,420.84 -530.9,864.7 6.57,408.32 193.4,642.6 549.75,844.32 183.11,103.65 420.8,105.3 633.32,83.51z"/>
    <path class="fil0 str0" d="M18433.67 8633.89c-33.37,-124.85 21.36,-252.57 87.21,-344.89 129.55,-181.7 435.42,-255.6 633.3,-55.78 83.29,84.11 166.03,167.41 176.25,290.58 38.49,464.16 -498.15,734.01 -816.38,257.99 -13.43,-20.08 -77.8,-138.24 -80.37,-147.9zm8.93 789.18c9.36,0.18 547.59,262.08 865.12,-14.91 59.26,-51.7 100.74,-61.25 163.61,-110.96 59.47,-47.01 91.09,-96.89 143.73,-149.08 86.59,-85.82 170.49,-240.45 187.29,-367.5 11.93,-330.93 13.23,-464.48 -162.69,-738.36 -51.58,-80.29 -143.81,-163.25 -219.51,-222.9 -150.19,-118.35 -108.5,-98.88 -302.19,-154.32 -138.36,-39.59 -247.33,-51.1 -391.93,-29.75 -527.55,77.93 -706.2,624.42 -710.36,628.04 -66.44,57.58 -1615.71,28.69 -1903.16,26.93 -108.81,-0.66 -213.89,2.24 -321.99,-8.22 -75.15,-7.27 -230.54,-30.56 -295.74,-25.33l-12.39 561.75c274.76,32.35 2481.24,-36.5 2513.05,-11.36 40.22,31.79 68.13,285.11 291.24,477.81 60.49,52.24 117.78,70.75 155.93,138.15z"/>
    <path class="fil0 str0" d="M16586.18 13565.53c-186.3,504.61 -1000.46,184.94 -773.45,-244.87 43.19,-81.77 126.13,-141.03 195.22,-188.77 291.87,-201.61 706.56,86.07 578.23,433.64zm-1089.88 -697.41c-26.42,90.02 -83.56,133.53 -118.78,217.08 -30.89,73.29 -53.65,178.45 -58.69,259.31 -18.64,298.97 33.41,300.97 103.82,542.4 92.88,69.97 137.72,263.4 528.22,442.64 154.62,70.96 596.39,-5.74 795.28,-185.15 118.49,-106.89 236.92,-247.45 267.99,-394.15 28.53,-387.33 93.94,-741.07 -310.12,-1070.3 -198.51,-161.76 -238.62,-93.49 -307.22,-197.28l-395.93 5.77c-208.02,-220.17 -436.78,-419.31 -644.95,-645.08 -103.38,-112.13 -226.49,-200.04 -325.18,-315.73 -70.38,-82.51 -242.27,-286.19 -352.47,-295.69 -10.83,195.47 9.13,117.41 -112.92,235.76 -215.86,209.29 240.73,526.36 326.25,620.09 116.45,127.61 214.74,253.28 327.69,370.07 97.06,100.35 305.07,239.52 310.37,393.66l-33.36 16.61z"/>
    <path class="fil0 str0" d="M4013.46 3569.71c232.07,-47.04 504.95,146.57 515.48,399.01 11.29,270.99 -154.34,497.95 -419.48,549.44 -465.61,90.41 -740.49,-471.09 -424.55,-793.93 170.74,-174.46 233.66,-135.28 328.56,-154.51zm287.43 1414.94c26.51,8.15 293.99,307.79 298.87,335.38 92.17,31 404.88,334.63 453.98,439.29 162.07,345.53 259.67,-19.82 370.95,-82.52 30.34,-104.24 116.17,-118.56 124.15,-242.58 -96.22,-94.13 -468.44,-417.64 -503.11,-511.68 -63.14,-6.44 -110.23,-77.02 -151.43,-122.04 -45.95,-50.22 -107.82,-99.44 -142.59,-151.53 6.81,-44.03 133.68,-300.07 162.34,-313.99 17.76,-141.25 56.3,-179.4 43.98,-348.39 -7.4,-101.54 -44.24,-213.48 -78.21,-307.83 -44.89,-124.63 -213.3,-350.24 -331.25,-422.78 -331.99,-204.18 -840.52,-191.04 -1135.12,142.64 -112.12,126.99 -238.51,320.23 -268.2,485.68 -92.05,512.92 140.79,770.22 495.9,995.25 109.45,69.37 147.97,84.24 286.72,83.95 61.15,-0.15 123.04,-1.68 184,-6.1 184.07,-13.35 146.2,-20.77 189.02,27.25z"/>
    <path class="fil0 str0" d="M14511.71 5421.57c93.53,40.22 237.35,400.31 249.15,407.91 158.84,102.31 880.58,-762.52 933.44,-856.12 48.95,-72.16 74.84,-51.84 173.54,-50.52 113.77,1.53 410.41,-17.68 467.7,-105.84 -48.35,-109.14 -12.54,-3.26 -90.16,-67.64 -98.66,-81.82 -26.26,-274.4 -25.33,-285.99 -181.42,-4.54 -182.55,68.67 -397.07,-19.56 -116.6,-47.96 -225.95,-96.01 -248.03,-219.46l-32.68 -106.01c-109.06,-41.6 -134.97,-244.99 61.19,-431.9 281.36,-268.1 882.51,-57.6 856.97,396.02 -12.43,220.92 -96.02,102.01 -44.81,208.76 104.94,-51.06 -40.38,5.82 146.29,-120.79 65.61,-44.49 102.38,-62.37 186.18,-70.98 2.16,-19.54 4.38,-49.16 9,-67.18 23.45,-91.42 27.13,-3.66 34.65,-170.14 15.33,-339.3 -185.44,-341.05 -254.31,-556.65 -103.63,-175.52 -795.21,-415.41 -1250.35,157.92 -91.14,114.81 -163.51,261.95 -190.93,423.75 -103.04,608.15 442.67,497.33 55.51,872.39 -265.41,257.12 -359.47,378.18 -647.86,587.63l7.92 74.38z"/>
    <path class="fil0 str0" d="M9891.62 525.23c214.46,-77.39 481.9,49.22 572.22,258.21 46.38,107.33 51.53,255.92 -26.87,363.92 -90.02,124.01 -91.34,146.28 -241.47,201.04 -436.85,159.29 -705.2,-248.53 -540.68,-614.8 61.99,-138.01 102.31,-159.86 236.8,-208.38zm1042.07 699.76l-4.01 -98.51c15.72,-389.21 3.18,-408.31 -177.28,-720.78 -89.17,-154.42 -352.61,-307.71 -525.95,-359.37 -770.08,-229.53 -1356.33,783.48 -927.39,1407.34 92.56,134.62 135.65,333.52 489.36,393.81 455.28,77.61 691,-3.76 961.76,-331.08 94.73,-114.51 94.95,-182.1 139.89,-244.85 31.96,-44.61 5.79,-15.37 43.61,-46.57z"/>
    <path class="fil0 str0" d="M8122.44 5447.26c-5.15,17.96 -740.19,601.71 -852.53,738.5 -155.86,189.81 -137.73,117.25 -328.37,424.12 -184.3,296.64 -258.04,391.29 -438.09,733.92 -111.56,212.31 -297.13,677.32 -262.23,919.96 73.98,91.4 282.15,97.6 393.87,89.45 44.48,-84.13 46.39,-318.86 93.3,-436.19 23.04,-57.61 67.95,-118.35 92.3,-178.79 28.98,-71.97 47.24,-131.11 78.88,-201.62 94.83,-211.36 274.13,-481.71 425.18,-655.09 80.9,-92.87 153.04,-212.56 237.33,-294.99l278.26 -272.08c82.03,-73.48 530.88,-428.03 613.39,-452.3 53.81,-95.18 134.31,-126.07 51.24,-270.75 -25.18,-43.85 -109.53,-136.63 -145.17,-182.96 -121.22,-20.64 -132.58,13.52 -237.35,38.83z"/>
    <path class="fil0 str0" d="M9762.09 7525.63c-64.67,82.86 -31.35,264.27 -35.88,373.54 -4.87,117.91 -11.27,229.99 -12.93,349.26l5.79 2202.64c4.5,322.83 34.69,2812.88 -41.08,2927.3 53.65,151.15 -49.06,428.77 29.4,570.01 68.35,21.24 497.36,18.13 559.67,-11.24 77.89,-77.02 35.46,-5201.66 35.8,-6184.31 0.13,-340.81 -30.93,-216.52 -47.75,-362.59 89.92,-56.78 132.25,2.6 203.05,-105.1 -59.34,6.08 -211.11,47.08 -252.07,88.43 6.14,127.68 51.94,187.87 51.1,342.41 -4.66,863.37 37.01,6005.73 -32.54,6193.97 -76,13 -430.36,24.03 -491.59,0.36 -33.79,-198.84 16.82,-527.47 22.52,-742.16 42.17,-1586.49 -14.51,-3243.17 -0.62,-4827.94 1.77,-200.5 39.89,-647.61 7.13,-814.58z"/>
    <path class="fil0 str0" d="M15542.27 4118.35c-11.02,-140.45 -69.88,-212.72 38.81,-324.44 496.49,-510.34 1195.71,243.3 579.37,599.15 -112.14,64.75 -217.18,51.67 -331.64,3.97 -113.73,-47.4 -162.47,-130 -253.85,-172.67 22.08,123.45 131.42,171.5 248.03,219.46 214.51,88.22 215.65,15.02 397.07,19.56 -0.92,11.59 -73.32,204.17 25.33,285.99 77.63,64.38 41.82,-41.5 90.16,67.64 -57.29,88.16 -353.93,107.37 -467.7,105.84 -98.7,-1.32 -124.59,-21.64 -173.54,50.52 262.16,-14.57 362.81,-3.11 613.57,-78.35 239.67,-71.9 243.09,-138.47 401.29,-281.07 21.34,-135.12 107.88,-184.49 141.38,-319.91 26.51,-107.12 40.06,-302.63 30.82,-414.79 -14.24,-172.86 -179.18,-522.68 -343.94,-573.73 68.86,215.59 269.64,217.35 254.31,556.65 -7.52,166.48 -11.2,78.72 -34.65,170.14 -4.62,18.01 -6.84,47.63 -9,67.18 -83.8,8.6 -120.58,26.48 -186.18,70.98 -186.67,126.61 -41.35,69.72 -146.29,120.79 -51.21,-106.75 32.38,12.17 44.81,-208.76 25.55,-453.62 -575.61,-664.12 -856.97,-396.02 -196.16,186.91 -170.24,390.3 -61.19,431.9z"/>
    <path class="fil0 str0" d="M9782.64 2235.73c-32.79,133.47 -52.89,625.68 -17.58,752.61 79.14,8.01 373.51,20.85 438.21,2.52 16.89,-114.39 4.17,-674.76 -44.16,-750.46 -74.51,-30.06 -294.66,-25.04 -376.47,-4.67z"/>
    <path class="fil0 str0" d="M10910.92 10611.5c-40.84,52.16 -32.16,103.13 -32.62,169.19 -3.09,445.15 -21.36,3039.41 -0.59,3156.31 81.44,31 462.54,27.37 546.2,0.91 35.57,-160.33 20.87,-2410.16 27.39,-2789.34 1.81,-106.02 -22.76,-346.57 51.86,-416.49 77.35,-72.48 198.26,-154.53 244.89,-244.21 -83.87,19.99 -200.71,154.51 -271.77,218.25 -102.87,92.25 -63.53,274 -65.42,405.75l-4.64 1872.23c-3.07,219.04 21.57,744.23 -11.72,928.91l-485.74 8.34c-30.01,-207.14 3.38,-598.29 6.41,-827.11 4.88,-368.34 20.44,-2406.26 -4.25,-2482.73z"/>
    <g>
     <path class="fil0 str0" d="M3406.66 13224.5c413.16,-138.15 913.28,467.65 342.06,729.7 -220.13,100.99 -435.48,-42.11 -531.54,-222.2 -127.78,-239.57 40.35,-457.63 189.48,-507.49zm563.14 -666.05c-76.27,270.82 -286.48,10.54 -649.83,119.4 -150.78,45.18 -283.02,137.98 -370.6,256.83 -346.62,470.4 -304.65,927.78 130.24,1303.7 148.97,128.77 225.85,118.89 337.37,146.21 178.79,43.79 427.3,121.29 650.58,-39.82 107.67,-77.68 144.89,-149.38 211.36,-259.93 49.4,-82.17 19.57,-57.98 88.43,-77.13 70.45,-92.64 128.44,-347.7 118.36,-520.73 -13.68,-234.9 -189.6,-345.33 -202.45,-458.26 11.15,-84.16 515.98,-553.06 557.54,-647.1 17.07,-143.27 125.91,-118.32 146.64,-253.02 -61.12,10.36 -73.42,26.65 -110.35,73.18 -67.52,-113.03 -4.8,-19.73 -107.39,-73.03 7.16,-58.01 0.69,-37.51 40.13,-73.58 -57.75,-35.85 -125.79,-24.87 -52.54,-138.63 53.4,-82.93 93.28,-12.44 104.2,-141.31 -111.85,2.93 -181.18,110.34 -245.39,183.23l-431.95 412.83c-70.75,70.94 -135.22,187.9 -214.34,187.15z"/>
     <path class="fil0 str0" d="M3969.8 12558.46c79.12,0.75 143.59,-116.21 214.34,-187.15l431.95 -412.83c64.21,-72.89 133.53,-180.3 245.39,-183.23 -10.93,128.86 -50.8,58.37 -104.2,141.31 -73.25,113.75 -5.21,102.78 52.54,138.63 -39.44,36.06 -32.96,15.57 -40.13,73.58 102.59,53.31 39.88,-39.99 107.39,73.03 36.93,-46.53 49.23,-62.82 110.35,-73.18 -20.73,134.7 -129.56,109.74 -146.64,253.02 110.56,-60.37 331.01,-364.87 411.03,-484.52 68.75,-102.79 149.58,-160.37 139.93,-298.99 -6.64,-95.26 -61.24,-295.89 -62.47,-355.73 -174.85,-52.82 -23.71,39.6 -364.54,331.34 -176.89,151.41 -958.86,878.21 -994.96,984.72z"/>
     <path class="fil0 str0" d="M3941.3 14456.12c170.28,-29.78 381.03,-290.17 426.05,-448.39 -68.86,19.15 -39.03,-5.04 -88.43,77.13 -66.46,110.55 -103.69,182.25 -211.36,259.93 -223.29,161.11 -471.79,83.62 -650.58,39.82 -111.52,-27.33 -188.4,-17.44 -337.37,-146.21 -434.88,-375.91 -476.86,-833.29 -130.24,-1303.7 87.58,-118.85 219.82,-211.65 370.6,-256.83 363.35,-108.86 573.56,151.41 649.83,-119.4 -117.13,32.71 -22.54,95.8 -206.45,70.32 -250.85,-34.74 -461.84,-32.93 -677.57,131.12 -660.7,502.4 -475.59,1462.57 311.23,1685.71 239.03,67.78 311.69,37.63 544.28,10.52z"/>
    </g>
    <path class="fil0 str0" d="M7534.22 12323.39c34.61,113.56 140.16,175.36 204.33,311.23 56.42,119.48 75.79,259.35 110.1,384.89 65.01,237.95 101.3,636.82 76.08,886.88 -58.35,21.89 -479.44,46.8 -514.84,31.25 -115.81,-175.09 -9.41,-1053.92 -239.53,-1192.52 -108.25,-65.2 -120.62,-54.69 -219.59,-148.37l-565.16 -513.82c25.8,108.96 424.39,432.49 545.19,551.86 98.09,96.96 111.81,83.56 223.91,148.4 176.15,101.88 122.57,1137.41 239.67,1202.17 50.31,6.84 205.83,-21.65 287.67,-23.25 84.75,-1.66 208.14,15.81 265.97,-28.3 74.54,-141.24 -21.82,-733.88 -57.52,-911.01 -35.61,-176.89 -155.4,-620.31 -356.28,-699.42z"/>
    <path class="fil0 str0" d="M3949.71 3618.21c543.57,-164.65 791.97,663 169.21,838.07 -127.56,35.86 -260.81,4.79 -354.01,-67.86 -352.15,-274.55 -125.88,-676.1 184.8,-770.21zm63.75 -48.51c-94.9,19.24 -157.81,-19.95 -328.56,154.51 -315.94,322.84 -41.06,884.35 424.55,793.93 265.14,-51.49 430.78,-278.46 419.48,-549.44 -10.53,-252.43 -283.4,-446.05 -515.48,-399.01z"/>
    <path class="fil0 str0" d="M12121.75 12759.64c-54.43,84.32 -170.64,1057.9 -69.78,1193.18l536.71 -4.97 122.38 -1104.7c79,-69.88 114.65,-18.5 191.49,-134.29 -74.57,6.47 -148.17,52.82 -216.7,86.52 -22.97,167.26 -41.52,367.52 -71.72,527.7 -30.2,160.12 -12.52,454.49 -53.02,569.63 -138.83,20.29 -357.28,17.09 -484.48,18.84 -51.58,-450.29 80.32,-1040.59 45.11,-1151.9z"/>
    <path class="fil0 str0" d="M8464.95 8487.04c-51.59,247.66 -192.98,416.86 -471.78,383.5 -260.17,-31.13 -347.6,-275.74 -331.91,-512.93 38.78,-586.3 921.01,-433.68 803.68,129.43zm-511.4 -523.9c-295.91,77.51 -364.75,288.95 -323.37,594.34 36.66,270.43 320.57,408.74 580.15,342.41 198.18,-50.66 359.41,-383.22 306.43,-585.73 -65.68,-251.06 -305.04,-418.65 -563.2,-351.03z"/>
    <path class="fil0 str0" d="M9782.64 2235.73c81.81,-20.37 301.96,-25.39 376.47,4.67 48.33,75.7 61.05,636.07 44.16,750.46 -64.7,18.33 -359.06,5.49 -438.21,-2.52 -35.31,-126.92 -15.21,-619.14 17.58,-752.61zm276.41 824.51c103.08,-28.98 173.53,41.21 190.69,-78.72 8.79,-61.46 0.44,-190.39 -0.63,-258.04 -2.51,-160.52 -23.76,-329.9 -25.53,-475.22 -85.7,-87.26 -342.57,-81.47 -457.6,-42.7 -65.16,88.59 -95.28,732.19 -31.15,808.95 42.25,32.5 169.52,5.82 241.28,16.8 97.62,14.94 24.11,-12.26 82.94,28.94z"/>
    <path class="fil0 str0" d="M545.56 8393.66c183.53,-96.47 147.05,-243.65 477.75,-234.21 420.24,11.97 491.78,598.86 186.33,828.61 -258.21,194.2 -347.97,-7.43 -535.67,-28.12 33.57,69.52 -22.05,19.33 63.24,72.78l209.68 75.32c133.84,15.75 194.57,-19.05 291.65,-88.27 420.49,-299.8 156.89,-1154.88 -521.2,-833.6 -59.27,28.09 -155.2,130.66 -171.79,207.49z"/>
   </g>
  </g>
 </g>
</svg>
