<?xml version="1.0" encoding="UTF-8"?>
<!DOCTYPE svg PUBLIC "-//W3C//DTD SVG 1.1//EN" "http://www.w3.org/Graphics/SVG/1.1/DTD/svg11.dtd">
<!-- Creator: CorelDRAW 2018 (64 Bit) -->
<svg xmlns="http://www.w3.org/2000/svg" xml:space="preserve" width="503.501mm" height="144.266mm" version="1.1" style="shape-rendering:geometricPrecision; text-rendering:geometricPrecision; image-rendering:optimizeQuality; fill-rule:evenodd; clip-rule:evenodd"
viewBox="0 0 65173.21 18673.73"
 xmlns:xlink="http://www.w3.org/1999/xlink">
 <defs>
  <style type="text/css">
   <![CDATA[
    .str0 {stroke:black;stroke-width:25.89;stroke-miterlimit:22.9256}
    .str1 {stroke:#4A6CF7;stroke-width:25.89;stroke-miterlimit:22.9256}
    .fil0 {fill:black}
    .fil1 {fill:#4A6CF7}
   ]]>
  </style>
 </defs>
 <g id="Capa_x0020_1">
  <metadata id="CorelCorpID_0Corel-Layer"/>
  <g id="_2553583373952">
   <path class="fil0 str0" d="M28209.28 14418.8c57.98,-65.69 31.26,-717.54 31.26,-848.47 0,-159.12 46.22,-777.07 -31.35,-867.73 -47.13,-46.25 -8.25,-32.01 -99.4,-44.93l-2044 2.42c-717.76,-6.89 -1425.98,-16.44 -2141.84,-24.66l-0.72 -1562.04c609.4,-7.39 1225.11,0.76 1835.1,0.8 299.23,0.03 1619.36,40.83 1766.8,-42.43 33.8,-175.44 40.28,-1519.59 -4.8,-1663.63l-3608.81 -18.3 -4.96 -1662.46c725.03,-20.05 1490.51,2.86 2225.12,1.35l1647.16 0.49c174.65,0.63 387.98,43.67 454.08,-97.71 24.48,-229.47 27.95,-1464.79 -23.65,-1617.61 -218.4,-58.95 -1228.02,-20.48 -1528.53,-20.5l-3118.62 1.09c-363.26,0.17 -1236.6,-38.78 -1543.68,26.82 -84.01,208.92 -30.41,3171.52 -31.39,3654.44 -2.5,1230.57 2.25,2462.06 1.72,3692.81 -0.13,300.52 -1.64,601.34 -1.15,901.81 0.47,285.62 42.82,221.51 717.98,221.16l5073.24 -0.93c116.61,-0.1 355.68,33.47 430.44,-31.78zm33135.36 -4991.92c133.87,-11.48 181.22,-45.99 328.43,-51.89 461.51,-18.54 802.41,-12.45 1151.74,266.04 524.48,418.09 706.94,1182.25 588.94,1836.97 -32.62,181 -115.29,359.75 -188.02,515.03 -128.94,275.29 -436.28,542.09 -719.84,665.46 -537.85,234 -1172.01,124.08 -1617,-243.02 -158.46,-130.73 -381.6,-415.89 -439.88,-613.13 -29.67,-100.43 -29.54,-58.3 -54.57,-120 -131.94,-325.23 -92.76,-761.44 -29.94,-1108.02 43.84,-241.92 44.54,-142.64 75.28,-260.23 41.6,-92.25 98.12,-176.81 155.95,-269.07 72.94,-116.34 115.58,-158.75 207.67,-253.75 157.4,-162.4 300.12,-289.93 541.24,-364.39zm-21903.83 3371.26c-445.64,21.58 -904.14,-491.22 -994.76,-755.53 -18.11,-52.79 -15.11,-107.84 -23.09,-162.63 -10.37,-71.06 -21.9,-80.74 -36.17,-137.34 -81.57,-323.35 30.29,-2960.78 -31.65,-3549.35 -168.47,-33.51 -1534.82,-37.4 -1623.22,5.28 -94.12,58.64 -62,294.33 -62.05,469.98 -0.16,559.92 -41.33,2749.33 30.24,3088.98 43.16,204.77 20.46,599.75 218.66,1017.23 35.27,74.3 43.52,114.68 76.41,188.05 57.21,127.6 222.64,393.51 327.15,507.18l119.12 144.97c103.02,103.62 495.2,415.7 638.89,462.46 98.91,32.18 261.44,143.01 377.67,170.45 234.61,55.36 71.06,44.24 214.73,71.22 177.24,33.29 327.91,92.94 460.82,65.04 88.12,62.18 215.28,43.66 329.11,43.41 653.43,-1.4 1105.04,-60.8 1676.05,-411.02 79.83,-48.97 113.3,-113.6 225.48,-108.76 14.98,646.89 -250.22,485.12 1349.41,513.44 76.28,1.35 144.55,6.43 180.96,-32.06l19.45 -4687.5c2.8,-230.03 56.31,-1430.76 16.34,-1516.69 -128.39,-86.49 -612.87,-37.87 -810.29,-37.72 -1054.82,0.83 -905.91,-190.26 -906.27,763.09l-0.85 2417.91c-4.43,498.59 -125.89,960.12 -502.25,1187.4 -56.14,33.9 -19.58,0.44 -67.06,39.92 -141.24,117.47 -207.13,127.02 -419.41,199.56 -218.04,74.51 -520.4,43.34 -783.41,43zm-5672.76 -4298.51c-55.04,-119.43 -673.54,-375.14 -789.38,-396.35l-542.88 -76.86c-210.99,-4.4 -395.02,-1.72 -583.13,34.16 -98.98,18.87 -144.52,24.32 -251.46,38.09 -99.75,12.85 -548.62,204.53 -674.37,247.06 -257.47,87.1 -871.6,596.99 -1006.93,815.77 -130.29,210.64 -220.59,249.18 -352.05,570.84l-130.29 332.47c-20.71,63.98 -30.73,57.68 -49.45,101.91 -27.34,64.59 -30.44,173.44 -55.54,255.16 -90.15,293.58 -94.21,1109.71 -21.33,1400.29l130.85 485.37c34.28,106.81 61.56,66.89 99.36,190.19 43.4,112.92 70.7,229.91 128.18,324.18 159.91,262.26 196.74,298.62 377.54,522.96l442.24 435.59c3.46,3.02 7.87,7.73 11.43,10.64 74.78,61.03 70.54,28.33 147.63,74.91l143.87 97.42c97.46,61.51 164.21,110.79 272.13,166.3 46.53,23.93 101.57,48.95 147.96,71.06 76.64,36.54 102.13,26.13 179.52,62.55 322.42,151.72 821.5,161.4 1196.57,149.26 566.38,-18.33 608.08,-126.1 896.88,-231.85 138.25,-50.62 242.92,-131.82 365.16,-207.43l186.13 -162.52c96.76,-98.81 115.45,-198.29 335.79,-48.59l891.04 515.9c334.33,177.71 366.13,144.84 371.7,144.05 83.83,-12.02 61.04,-134.86 59.8,-258.31 -20.08,-1986.86 1.19,-4070.83 1.55,-6066.81l3.42 -1979.64c-2.14,-32.58 -0.3,-30.28 -8.72,-61.86 -11.02,-41.33 -7.74,-30.3 -23.34,-52.77 -97.48,-46.78 -1540.68,-39.41 -1653.41,4.94 -80.08,195.09 19.49,2126.4 -28,2564.87 -120.06,4.62 -92.72,-44.55 -218.48,-72.95zm-2753.07 1939.77c48.15,-28.74 68.36,-124.21 95.77,-171.68 142.63,-246.84 120.53,-190.03 256.29,-337.57 57.11,-62.08 233.61,-255.1 303.51,-286.68 50.75,-22.94 58.09,-18.52 107.9,-48.85 272.21,-165.75 297.39,-104.59 451.06,-142.55 332.63,-82.16 371.42,-22.92 665.64,13.58l316.18 117.14c27.39,11.02 79.57,37.21 105.83,50.12 267.03,131.17 429.91,382.66 594.84,590.56 18.69,115.05 189.47,408.1 189.06,906.74 -0.5,619.78 -111.18,867.26 -453.62,1281.21l-374.28 281.86c-204.57,115.24 -361.49,163.73 -617.96,175.92 -462.51,21.99 -549.67,11.8 -899.97,-179.49 -280.42,-153.13 -362.88,-253.78 -544.27,-511.12 -153.92,-218.37 -278.09,-477.57 -291.89,-760.84 -37.74,-775.42 54.84,-619.32 95.89,-978.35zm28243.05 -1205.31c-79.46,45.1 -61.3,30.68 -104.37,114.06l-217.2 420.54c-77.83,156.93 -164.12,476.47 -188.72,673.45 -58.21,466 -118.57,606.63 -9.85,1132.3 45.89,221.86 -5.58,126.64 76.29,362.02 24.9,71.61 14.52,103.37 26.99,175.68 14.07,81.66 32.88,81.2 59.66,158.54 45.23,130.59 68.88,151.11 120.39,296.73 81.73,230.99 273.21,444.63 408.95,646.68 105.78,157.48 372.7,369.31 533.99,523.2 112.38,107.24 529.98,315.68 672.61,381.73 437.4,202.57 1215.6,284.28 1657.4,169.95 350.82,-90.78 844.91,-340.32 1091.11,-594.66 196.85,-203.34 86.34,-82.76 535.39,150.14 113.75,59 359.14,226.82 530.22,305.32 854.15,391.94 690.76,103.42 692.44,-344.15l2.72 -3692.81c0.94,-480.03 42.62,-4068.34 -21.29,-4198.37 -46.52,-49.83 -1609.28,-38.18 -1697.98,-3.78 -67.57,162.58 0,2182.6 -18.06,2576.06 -107.62,3.81 -284.37,-120.69 -412.85,-202.2 -62.7,-39.78 -108.08,-73.11 -196.63,-110.75 -101.97,-43.35 -96.28,-74.45 -246.69,-86.96 -103.07,-85.37 -287.19,-79.09 -446.96,-122.31 -242.57,-65.63 -844.53,-33.85 -1075.35,51.67 -77.74,28.81 -149.02,47.97 -231,74.29 -374.16,120.13 -848.57,365.97 -1130.32,653.72 -109.12,111.45 -408.64,376.49 -410.91,489.9zm-14378.4 -1417.07l-107 130.14c-76.51,160 -147.78,273.01 -232.88,489.35 -33.43,85 -16.97,92.72 -61.87,179.82l-104.02 377.23c-144.34,709.77 -185.73,1450.83 9.27,2164.33l67.88 291.41c5.7,30.39 7.27,31.03 13.69,46.97 1.71,4.25 4.93,9.62 6.83,13.75l431.14 815.9 313.71 406.45c40.54,68.18 54.04,91.18 97.83,147.16l469.44 498.23c271.6,244.27 561.42,367.23 856.26,571.14 55.98,38.7 420.08,187.66 518.07,201.65l577.66 146.54c212.64,38.78 702.95,39.7 936.77,36.23 551.43,-8.17 766.83,-71.94 1242.71,-189.24 334.93,-82.54 752.67,-335.61 1050.87,-509.95 40.79,-23.84 443.49,-343.42 445.56,-421.99 1.53,-58.38 -193.62,-280.43 -245.21,-342.49 -97.75,-117.56 -143.64,-208.95 -237.12,-333.23l-455.94 -692.14c-88.16,20.11 -430.94,323.81 -538,388.8 -54.58,33.12 -97.38,42.3 -149.01,72.73 -552.89,325.97 -1106.14,346.73 -1746.57,240.24 -56.5,-9.4 -129.52,-20.68 -179.42,-39.19 -174.06,-64.58 -248.32,-124.39 -310.66,-139.98 -112.13,-28.04 -88.36,-31.14 -175.82,-72.28 -251.75,-118.36 -475.9,-278.14 -667.86,-477.65 -250.79,-260.67 -310.84,-378.64 -485.97,-679.24 -34.95,-59.98 -49.42,-74.21 -73.33,-143.28l-199.17 -548.4c51.63,-115.67 13.35,-362.48 14.74,-509.36 2.58,-271.09 69.22,-623.19 176.66,-870.25 40.44,-93 33.76,-11.69 84.82,-181.22l52.2 -92.33c4.04,-4.82 16.57,-18.76 20.62,-23.86 199.52,-251.13 146.84,-315.04 361.37,-494.75l767.54 -551.65c162.42,-100.26 668.08,-203.03 808.59,-245.04 212.76,-63.63 766.94,-7.24 967.68,40.89 71.59,17.15 135.63,39.04 204.74,60.07l378.74 149.65 542.29 377.34c40.11,42.08 15.48,23.97 62.11,68.46 3.24,3.08 8.3,7.17 11.58,10.24l138.01 119.1c92.58,-32.8 847.42,-807.05 956.82,-903.3 164.58,-144.82 390.79,-251.35 302.88,-370.28 -15.99,-21.63 -25.31,-30.41 -43.7,-47.8 -28.02,-26.52 -52.25,-45.29 -83.51,-70.18 -181.46,-144.51 -545.95,-412.37 -753.66,-521.29 -78.82,-41.34 -137.89,-70.09 -217.14,-112.26l-227.72 -104.77c-180.06,-56.85 -146.16,-73.6 -228.55,-98.27l-334.56 -122.5c-245.72,-108.6 -210.88,-30.15 -408.37,-78.34 -98.84,-24.13 -147.26,-52 -259.68,-61.69 -262.53,-22.65 -1277.79,-46.3 -1523.65,30.83l-256.45 68.23c-96.43,19.92 -155.59,46.68 -241.87,67.08 -257.86,60.97 -969.27,386.97 -1185.57,591.37 -148.2,140.04 -346.01,240.85 -607.2,514.68 -107.73,112.94 -206.4,221.48 -296.77,340.85 -80.58,106.43 -251.5,275.97 -250.84,391.32zm11126.48 2032.12c29.97,101.93 89.77,141.92 142,232.97 101.61,177.16 235.8,572.24 253.72,756.25 38.92,399.97 10.28,572.4 -121.97,907.15 -109.32,276.76 -175.99,414.71 -394.35,618.72 -138.67,129.56 -206.42,198.77 -395.63,277.31 -372.18,154.5 -1032.7,202.06 -1384.65,-10.68 -78.76,-47.61 -127.52,-77.72 -192.85,-135.63 -136.92,-121.39 -216.4,-149.57 -348.7,-333.66l-60.56 -94.34c-2.46,-4.49 -5.31,-10.2 -7.73,-14.73l-90.15 -171.96c-52.42,-81.04 -129.34,-351.93 -140.44,-439.42 -47.23,-372.09 -85.07,-848.8 114.11,-1188.7 417.21,-712 274.18,-458.7 811.64,-796.53 35.26,-22.16 16.71,-7.08 42.65,-33.37 34.74,4.61 594.34,-149.02 1058.59,-22.17 142.64,38.96 470.22,218.03 570.75,309 54.04,48.9 88.24,93.11 143.59,139.78zm-4171.27 -115.67c-56.44,49.76 -7.07,-0.57 -40.33,49.07 -65.2,97.27 -103.12,255.81 -130.18,358.35 -35.76,135.56 -62.27,360.36 -80.54,498.8 -67.15,509.35 -45.6,783.64 57.79,1275.49 35.35,168.13 261.78,681.9 337.7,802.33 36.64,58.14 79.55,114.33 116.97,167.04 85.73,120.73 146.45,195.76 252.24,318.73 356.19,414.04 557.43,508 955.45,740.27l602.17 254.61 493.36 88.65c89.78,9.36 160.66,18.12 268.59,18.86 739.65,5.04 791.58,2.61 1455.8,-245.38l210.09 -80.05c105.66,-29.72 12.27,1.76 91.53,-43.74l28.84 -16.31c230.89,-122.39 522.16,-368.33 695.86,-553.78 424.1,-452.79 501.77,-547.47 749.81,-1093.53 22.87,-50.35 30.79,-47.91 46.49,-103.75l108.25 -447.68c37.46,-83.28 51.7,-94.22 63.75,-207.7 17.41,-164.03 6.6,-395.28 6.29,-565.69 -0.34,-189.42 -3.9,-362.99 -46.65,-518.61 -31.67,-115.29 -32.88,-266.66 -74.38,-337.37 -56.75,-96.72 -96.82,-175.68 -126,-313.45 -52.32,-247.05 -361.77,-671.72 -556.27,-870.69 -79.23,-81.06 -208.99,-228.07 -325.32,-266.1l-728.28 -439.15 -351.07 -131.67c-527.09,-108.44 -419.44,-145.19 -1073.04,-145.84 -151.77,-0.14 -332.48,-5.54 -481.62,9.73 -70.62,7.24 -131.94,25.54 -197.02,43.13 -84.52,22.83 -135.72,13.03 -221.55,23.58 -163.91,20.15 -710.55,251.57 -861.62,346.47 -50.26,31.57 -114.81,51.21 -160.57,83.5 -99.5,70.25 -149.89,149.59 -260.48,218.09 -221.2,136.99 -835.24,888.72 -826.06,1083.77z"/>
   <g>
    <path class="fil0 str0" d="M8413.66 17846.96c-17.66,153.9 388.19,522.13 519.46,606.49 280.51,180.23 633.1,210.26 962.04,207.14 300.12,-2.85 697.82,-43.48 951.97,-215.03 187.03,-126.23 528.61,-458.94 506.14,-654.81 -247.59,-64.4 -1151.42,18.19 -1479.2,19.55 -243.02,1.01 -1326.97,-54.73 -1460.39,36.66z"/>
    <path class="fil0 str0" d="M12034.99 16091.99c108.38,-23.04 288.57,-215.48 300.6,-314.62 9.72,-80.2 -46.7,-171.05 -91.16,-225.83 -86.53,-106.65 -87.31,-74.04 -196.65,-107.71 -43.27,-71.32 -156.51,-43.91 -318.62,-41.38 -1197.09,18.64 -2397.23,5.22 -3599.39,12.01 -134.7,0.76 -536.97,-40.5 -627.51,-17.11 -151.44,39.13 -296.73,227.05 -262.41,394.52 20.01,97.57 217.07,298.99 303.36,340.58 111.87,53.92 479.58,8.71 622.57,5.42 819.89,-18.82 1792.91,-28.98 2609.56,-15.03 211.43,3.61 416.96,13.29 629.88,13.37 138.97,0.05 544.59,49.55 629.78,-44.23zm-4685.27 -1363.44c94.15,209.25 297.61,203.32 492.1,202.82l3419.42 0.41c672.14,0.96 875.6,105.58 1063.21,-305.65 54.4,-119.24 53.16,-134.98 -26.79,-242.61 -183.7,-247.27 -219.05,-180.18 -856.45,-170.61 -227.83,3.43 -455.95,3.04 -683.87,4.82 -225.35,1.76 -421.94,24.52 -647.9,26 -227.68,1.5 -456.56,0.05 -684.25,-2.54 -357.75,-4.06 -1790.79,-103.25 -1965.71,32.22 -62.96,2.55 -183.11,103.49 -204.32,181.37 -28.81,105.69 13.22,225.3 94.57,273.77zm184.71 2528.12c104.45,170.78 415.96,129.18 586.91,99.73 162.76,-28.04 517.59,-35.13 692.23,-35.17 93.82,-27.58 1136.47,-11.52 1386.85,-14.02 103.54,-1.04 114.39,-20.32 196.59,-25.58 72.09,-4.62 160.82,-2.51 234.34,-2.87 145.02,-0.74 344.76,-11.31 484.39,4.69 194.43,22.28 474.46,157.36 819.16,50.74 170.52,-52.73 210.97,-156.1 268.35,-176.36 36.42,-216.16 355.47,-657.45 -685,-549.45 -344.17,35.71 -2771.52,12.35 -3370.47,8.04 -108.61,-0.78 -605.61,-57.42 -633.52,53.45 -134.89,4.79 -191.22,188.57 -175.57,314.88 11.38,91.84 96.36,262.58 195.74,271.93z"/>
   </g>
   <g>
    <path class="fil1 str1" d="M6276.19 4987.52l5.19 7.02c-57.25,146.78 -565.76,551.47 -858.98,1107.49l-292.59 683.09c-85.17,262.35 -164.6,501.36 -208.72,776.64 -121.89,760.51 -84.77,1875.99 201.37,2620.85 44.58,116.03 98.52,223.49 145.78,346.01 41.58,107.81 151.44,238.97 183.39,327.6 60.59,58.39 124.62,172.31 185.38,252.37 34.74,45.78 69.3,89.51 99.91,135.38 113.42,169.93 475.82,525.58 527.17,609.08l554.4 504.04c97.09,91.89 109.22,81.59 215.41,145.54 225.74,135.96 121.36,998.07 234.97,1169.83 34.73,15.26 447.81,-9.18 505.05,-30.65 24.74,-245.3 -10.86,-636.59 -74.64,-870 -33.65,-123.15 -52.66,-260.36 -108,-377.56 -62.95,-133.28 -166.49,-193.91 -200.44,-305.31 -375.16,-381.73 -729.23,-701 -1083.35,-1111.71 -411.63,-477.43 -550.86,-915.68 -735.41,-1497.72 -184.56,-582.07 -156.61,-1393.71 -11.68,-1973.22 147.86,-591.18 374.47,-1018.45 728.93,-1507.85 250,-345.16 765.34,-855.56 1112.46,-1101.81 466.84,-331.2 1013.55,-568.47 1581.24,-656.88 642.27,-100.03 1396.55,-108.74 2019.73,93.42 362.44,117.58 428.9,111.47 809.89,308 179.53,92.61 535.18,300.02 677.99,430.75 198.38,92.24 617.66,507.09 759.63,687.12 273.34,346.61 232.09,314.29 432.85,647.58 61.42,101.97 60.05,144.17 103.69,243.61 308.97,703.93 175.09,407.59 346.98,1075.88 53.19,206.77 54,457.71 51.72,671.52l-42.57 664.35c-24.97,232.98 -84.68,366.65 -136.43,580.49 -51.47,212.68 -144.75,334.76 -204.84,516.5 -97.36,294.4 -351.52,636.61 -555,873.21 -522.56,607.62 -639.05,636.94 -1068.31,1074.17 -350.78,357.31 -175.61,222.79 -287.28,410.54 34.53,109.2 -94.85,688.26 -44.26,1129.98 124.78,-1.72 339.08,1.42 475.26,-18.48 39.73,-112.95 22.38,-401.72 52.01,-558.79 29.62,-157.13 47.82,-353.58 70.35,-517.66 67.23,-33.06 139.43,-78.53 212.58,-84.87 423.76,-243.39 735.39,-720.4 1043.43,-1052.77 130.06,-140.35 500.29,-662.49 584.71,-817.96 66.57,-122.57 367.38,-888.77 392.22,-1017.94 182.61,-949.12 158.76,-2197.55 -254.75,-3083.92 -39.51,-84.65 -65.6,-159.87 -100.24,-245.02 -44.27,-108.83 -89.82,-134.49 -132.62,-223.4 -167.5,-347.83 -357.24,-533.95 -593.13,-812.02 -98.39,-115.99 -251.4,-217.3 -355.87,-340.03 -120.82,-37.65 -529.45,-426.06 -696.06,-533.93l-582.58 -335.37c-65.95,-30.42 -152.51,-57.23 -217.08,-91.14 -647.48,-340.13 -1309.1,-391.78 -2031.57,-392.05 -602.45,-0.23 -527.65,16.39 -1096.74,106.67 -213.74,33.9 -721.73,205.3 -899.48,324.45 -239.87,160.78 -528.75,277.01 -750.38,472.96 -110.7,97.86 -229.73,173.44 -338.51,272.91 -98.48,90.04 -234.21,242.03 -352.19,289z"/>
    <path class="fil1 str1" d="M9769.47 5785.69c211.28,-72.51 521.15,91.63 569.07,313.02 55.15,254.76 -87.22,525.81 -322.91,582.1 -615.38,147.02 -833.96,-693.4 -246.16,-895.13zm-684.21 1045.28c30.02,17.23 104.82,146.97 187.51,206.92 72.89,52.85 190.67,107.71 242.86,150.06 145.46,45.95 40.02,81.83 60.73,194.48 32.14,163.79 -5.26,602.4 -6.99,799.08 -13.63,1554.61 41.98,3179.77 0.61,4736.08 -5.59,210.6 -55.24,532.98 -22.1,728.04 60.07,23.22 407.68,12.4 482.24,-0.35 68.23,-184.66 27.35,-5229.18 31.92,-6076.12 0.82,-151.6 -44.11,-210.65 -50.13,-335.9 40.18,-40.57 189.06,-80.78 247.27,-86.75l41.43 8.56c28.55,-60.22 156.64,-154.36 215.78,-202.81 99.01,-81.11 106.81,-119.98 170.68,-210.59 351.84,-499.2 137.78,-1178.84 -507.18,-1453.08 -296.24,-125.96 -887.85,13.53 -1097.48,353.14 -385.33,624.26 -30.6,964.68 2.86,1189.23z"/>
    <path class="fil1 str1" d="M7802.23 7811.64c253.25,-66.34 488.05,98.06 552.49,344.35 51.97,198.65 -106.19,524.89 -300.6,574.58 -254.63,65.07 -533.15,-70.61 -569.11,-335.9 -40.59,-299.59 26.94,-507 317.22,-583.04zm-662.19 -67.58l-81.77 142.18c-42.83,265.42 -173.49,523.04 14.42,901.34 248.42,500.08 385.61,324.29 585.75,456.92 55.24,458.23 -214.6,390.74 367.54,1039.51 74.27,82.75 184.09,163.44 224.25,260.64 105.82,29.49 70.57,186.67 70.61,301.76 0.1,342.98 -22.87,1856.74 17.4,2020.01 39.83,161.52 12.79,588.67 36.39,795.68 92.67,12.43 426.6,18.6 504.65,-10.43 30.11,-105.87 13.53,-2307.2 12.01,-2607.19 -2.95,-585.96 83.93,-561.61 -312.46,-989.58 -216.22,-233.44 -470.9,-541.33 -399.36,-888.28 228.75,-73.06 480.12,-282.98 583.19,-514.38 63.68,-142.94 83.19,-315.32 80.59,-470.72 -4.31,-256.25 -101.2,-318.24 -112.86,-444.39 -129.39,-65.46 -271.86,-472.24 -799.11,-465.57 -163.72,2.07 -358.47,54.7 -490.8,148.8 -131.3,93.37 -214.21,257.97 -300.46,323.7z"/>
    <path class="fil1 str1" d="M11661.88 7823.55c342.17,-117.67 731.19,238.93 578.43,562.95 -38.82,82.32 -104.54,254.34 -239.32,316.67 -115.12,53.25 -269.66,12.43 -367.7,-47.8 -436.68,-268.3 -237.06,-740.45 28.59,-831.82zm-481.06 -394.11c-48.31,110.17 -210.03,192.93 -298.27,423.09 -33.67,87.8 -57.95,193.34 -65.54,294.59 -9.18,122.49 41.8,262.87 25.5,333.33 58.87,57.73 62.3,154.05 113.16,242.89 175.26,306.13 522.99,396.33 546.87,439.23 41.46,261.51 -151.39,535.43 -309.54,715.56l-489.67 531.47c24.22,75.01 8.96,2074.16 4.17,2435.49 -2.98,224.46 -35.73,608.17 -6.29,811.37l476.49 -8.18c32.66,-181.16 8.48,-696.36 11.49,-911.23l4.56 -1836.61c1.85,-129.25 -36.74,-307.54 64.18,-398.03 69.7,-62.52 184.32,-194.48 266.59,-214.09 128.77,-124.78 284.44,-233.1 388.51,-374.9 173.77,-236.8 102.39,-370.85 116.65,-671.22 40.83,-25.82 288.33,-67.48 483.41,-258.23 124.3,-121.56 221.94,-325.81 245.86,-495.5l19.52 -0.93c8.45,-384.16 25.16,-624.73 -236.69,-902.88 -302.23,-321.06 -688.58,-436.06 -1115.1,-279.05 -99.8,36.74 -157.67,98.97 -245.86,123.84z"/>
    <path class="fil1 str1" d="M535.18 8233.96c16.27,-75.37 110.37,-175.99 168.52,-203.54 665.19,-315.17 923.77,523.64 511.29,817.74 -95.23,67.9 -154.81,102.05 -286.1,86.6l-205.69 -73.88c-83.67,-52.44 -29.11,-3.2 -62.04,-71.4 -50.78,-91.62 -130.06,-99.85 -175.17,-231.98 -38.96,-114.08 -10.9,-224.47 49.2,-323.52zm638.32 1128.19c81.88,-50.62 329.18,-110.06 431.35,-275.59 50.53,-81.84 93.16,-112.9 139.7,-219.91 23.52,-54.05 96.39,-206.95 131.61,-244.56 121.98,27.1 94.96,46.4 260.42,48.22 114.85,1.26 214.53,4.6 326.36,12.48 232.24,16.39 1056.07,5.23 1347.57,4.7 169.84,-0.3 527.84,-33.64 665.08,-11.46 48.86,-107.63 -0.92,-138.01 -10.04,-243.44 -32.44,-374.95 231.22,-281.58 -1320.92,-283.93 -215.93,-0.34 -431.94,-2.45 -647.87,-1.84 -890.33,2.47 -556.85,101.34 -763.7,-210.4 -56.73,-85.51 -79.5,-116.15 -155.03,-185.84 -159.3,-146.97 -216,-203.13 -450.8,-230.21 -163.15,-18.81 -461.66,-15.05 -593.48,83.35 -295.51,220.58 -527.82,412.84 -520.8,848.25 6.45,400.55 189.72,630.37 539.29,828.26 179.62,101.68 412.8,103.29 621.27,81.92z"/>
    <path class="fil1 str1" d="M18082.94 8469.62c-32.74,-122.48 20.96,-247.76 85.55,-338.33 127.08,-178.24 427.14,-250.74 621.25,-54.71 81.7,82.51 162.87,164.22 172.89,285.05 37.76,455.33 -488.67,720.05 -800.85,253.08 -13.18,-19.7 -76.32,-135.61 -78.84,-145.09zm8.76 774.17c9.18,0.18 537.18,257.09 848.66,-14.63 58.13,-50.71 98.83,-60.09 160.49,-108.85 58.34,-46.12 89.35,-95.05 141,-146.24 84.94,-84.19 167.25,-235.88 183.73,-360.5 11.7,-324.64 12.98,-455.64 -159.6,-724.31 -50.6,-78.76 -141.08,-160.14 -215.34,-218.66 -147.33,-116.09 -106.44,-97 -296.44,-151.38 -135.73,-38.83 -242.62,-50.13 -384.48,-29.19 -517.51,76.45 -692.76,612.54 -696.84,616.1 -65.17,56.49 -1584.97,28.14 -1866.95,26.42 -106.74,-0.65 -209.82,2.2 -315.86,-8.06 -73.72,-7.13 -226.16,-29.98 -290.11,-24.85l-12.15 551.06c269.53,31.74 2434.03,-35.8 2465.24,-11.14 39.45,31.18 66.83,279.68 285.7,468.72 59.34,51.25 115.54,69.41 152.96,135.52z"/>
    <path class="fil1 str1" d="M16270.6 13307.42c-182.76,495 -981.43,181.42 -758.74,-240.21 42.37,-80.21 123.73,-138.35 191.51,-185.18 286.32,-197.77 693.11,84.43 567.23,425.39zm-1069.15 -684.14c-25.91,88.3 -81.97,130.99 -116.52,212.95 -30.3,71.89 -52.63,175.05 -57.57,254.38 -18.29,293.29 32.77,295.24 101.84,532.08 91.11,68.64 135.1,258.39 518.17,434.22 151.68,69.61 585.04,-5.63 780.15,-181.63 116.24,-104.86 232.41,-242.74 262.89,-386.65 27.98,-379.96 92.15,-726.97 -304.22,-1049.94 -194.73,-158.68 -234.08,-91.71 -301.38,-193.53l-388.4 5.66c-204.06,-215.98 -428.47,-411.33 -632.68,-632.81 -101.42,-110 -222.18,-196.23 -318.99,-309.72 -69.04,-80.94 -237.66,-280.74 -345.76,-290.06 -10.63,191.75 8.96,115.18 -110.77,231.27 -211.75,205.3 236.15,516.35 320.04,608.29 114.23,125.18 210.65,248.46 321.45,363.03 95.22,98.44 299.27,234.96 304.47,386.17l-32.72 16.3z"/>
    <path class="fil1 str1" d="M3937.1 3501.79c227.66,-46.15 495.34,143.78 505.67,391.41 11.08,265.83 -151.41,488.48 -411.5,538.99 -456.75,88.69 -726.4,-462.13 -416.47,-778.83 167.5,-171.15 229.21,-132.7 322.31,-151.57zm281.96 1388.02c26,8 288.39,301.93 293.18,329 90.41,30.41 397.17,328.26 445.34,430.93 158.99,338.95 254.72,-19.44 363.89,-80.95 29.76,-102.26 113.96,-116.3 121.79,-237.96 -94.39,-92.34 -459.52,-409.69 -493.54,-501.94 -61.94,-6.32 -108.13,-75.55 -148.55,-119.72 -45.07,-49.26 -105.77,-97.55 -139.87,-148.65 6.68,-43.19 131.14,-294.36 159.25,-308.02 17.42,-138.57 55.23,-175.99 43.14,-341.76 -7.26,-99.6 -43.4,-209.42 -76.72,-301.97 -44.04,-122.26 -209.24,-343.57 -324.95,-414.74 -325.67,-200.3 -824.53,-187.4 -1113.52,139.92 -109.99,124.57 -233.98,314.14 -263.1,476.44 -90.3,503.16 138.11,755.57 486.46,976.31 107.37,68.05 145.15,82.63 281.26,82.35 59.98,-0.14 120.7,-1.64 180.5,-5.98 180.57,-13.1 143.42,-20.37 185.42,26.73z"/>
    <path class="fil1 str1" d="M14235.6 5318.42c91.75,39.45 232.84,392.69 244.41,400.15 155.82,100.37 863.83,-748.01 915.68,-839.83 48.02,-70.79 73.42,-50.86 170.24,-49.56 111.6,1.5 402.6,-17.34 458.8,-103.82 -47.43,-107.06 -12.3,-3.2 -88.45,-66.35 -96.78,-80.27 -25.76,-269.18 -24.85,-280.55 -177.97,-4.45 -179.08,67.36 -389.51,-19.18 -114.39,-47.05 -221.65,-94.18 -243.31,-215.28l-32.06 -103.99c-106.98,-40.81 -132.4,-240.33 60.02,-423.68 276,-263 865.72,-56.5 840.66,388.49 -12.19,216.72 -94.19,100.07 -43.96,204.79 102.94,-50.09 -39.61,5.71 143.51,-118.49 64.36,-43.65 100.43,-61.19 182.64,-69.63 2.12,-19.17 4.3,-48.23 8.83,-65.9 23,-89.68 26.61,-3.59 33.99,-166.9 15.04,-332.84 -181.91,-334.56 -249.47,-546.06 -101.66,-172.18 -780.08,-407.5 -1226.56,154.91 -89.4,112.63 -160.4,256.96 -187.3,415.68 -101.08,596.58 434.25,487.87 54.46,855.79 -260.36,252.23 -352.63,370.99 -635.54,576.45l7.77 72.97z"/>
    <path class="fil1 str1" d="M9703.41 515.24c210.38,-75.92 472.73,48.28 561.33,253.3 45.5,105.29 50.55,251.05 -26.35,357 -88.3,121.65 -89.6,143.5 -236.88,197.21 -428.54,156.26 -691.78,-243.8 -530.39,-603.1 60.81,-135.38 100.37,-156.82 232.29,-204.41zm1022.24 686.45l-3.93 -96.64c15.42,-381.81 3.12,-400.54 -173.9,-707.07 -87.48,-151.48 -345.9,-301.85 -515.95,-352.53 -755.42,-225.16 -1330.53,768.58 -909.74,1380.57 90.8,132.05 133.06,327.17 480.05,386.31 446.62,76.14 677.85,-3.69 943.46,-324.78 92.92,-112.33 93.14,-178.64 137.23,-240.19 31.35,-43.76 5.68,-15.08 42.78,-45.68z"/>
    <path class="fil1 str1" d="M7967.9 5343.62c-5.05,17.62 -726.11,590.26 -836.31,724.45 -152.89,186.2 -135.11,115.02 -322.12,416.05 -180.79,290.99 -253.13,383.84 -429.75,719.96 -109.44,208.27 -291.47,664.43 -257.24,902.46 72.58,89.66 276.78,95.75 386.38,87.75 43.63,-82.53 45.51,-312.79 91.53,-427.89 22.6,-56.51 66.66,-116.09 90.54,-175.39 28.43,-70.6 46.34,-128.61 77.38,-197.78 93.03,-207.34 268.91,-472.55 417.09,-642.63 79.36,-91.1 150.12,-208.51 232.81,-289.38l272.96 -266.91c80.47,-72.09 520.78,-419.89 601.71,-443.69 52.79,-93.37 131.76,-123.67 50.26,-265.6 -24.7,-43.01 -107.45,-134.04 -142.41,-179.48 -118.92,-20.24 -130.06,13.27 -232.84,38.09z"/>
    <path class="fil1 str1" d="M9576.36 7382.44c-63.44,81.29 -30.75,259.24 -35.19,366.43 -4.78,115.67 -11.05,225.61 -12.69,342.61l5.68 2160.73c4.41,316.69 34.03,2759.36 -40.29,2871.6 52.63,148.27 -48.13,420.62 28.84,559.17 67.05,20.84 487.9,17.79 549.02,-11.03 76.41,-75.55 34.78,-5102.69 35.12,-6066.64 0.13,-334.33 -30.34,-212.4 -46.84,-355.69 88.21,-55.7 129.74,2.55 199.18,-103.1 -58.21,5.97 -207.09,46.18 -247.27,86.75 6.02,125.25 50.95,184.3 50.13,335.9 -4.57,846.94 36.31,5891.46 -31.92,6076.12 -74.56,12.75 -422.17,23.57 -482.24,0.35 -33.15,-195.05 16.5,-517.44 22.1,-728.04 41.37,-1556.31 -14.24,-3181.47 -0.61,-4736.08 1.73,-196.68 39.13,-635.29 6.99,-799.08z"/>
    <path class="fil1 str1" d="M15246.55 4039.99c-10.81,-137.78 -68.55,-208.67 38.07,-318.27 487.04,-500.63 1172.96,238.67 568.34,587.75 -110.01,63.52 -213.05,50.69 -325.33,3.9 -111.56,-46.49 -159.38,-127.52 -249.02,-169.39 21.66,121.1 128.92,168.23 243.31,215.28 210.43,86.54 211.54,14.73 389.51,19.18 -0.91,11.36 -71.93,200.28 24.85,280.55 76.15,63.15 41.02,-40.71 88.45,66.35 -56.2,86.48 -347.2,105.33 -458.8,103.82 -96.82,-1.29 -122.22,-21.23 -170.24,49.56 257.17,-14.29 355.91,-3.05 601.9,-76.86 235.11,-70.53 238.47,-135.83 393.65,-275.72 20.93,-132.55 105.83,-180.98 138.69,-313.83 26,-105.08 39.3,-296.87 30.24,-406.89 -13.97,-169.57 -175.77,-512.74 -337.4,-562.82 67.55,211.49 264.51,213.21 249.47,546.06 -7.38,163.31 -10.99,77.22 -33.99,166.9 -4.53,17.67 -6.7,46.73 -8.83,65.9 -82.21,8.44 -118.28,25.98 -182.64,69.63 -183.12,124.2 -40.57,68.4 -143.51,118.49 -50.24,-104.72 31.76,11.93 43.96,-204.79 25.06,-444.99 -564.66,-651.48 -840.66,-388.49 -192.43,183.35 -167,382.87 -60.02,423.68z"/>
    <path class="fil1 str1" d="M9596.51 2193.19c-32.17,130.93 -51.88,613.78 -17.24,738.29 77.64,7.86 366.41,20.45 429.87,2.47 16.57,-112.21 4.09,-661.92 -43.32,-736.18 -73.09,-29.49 -289.05,-24.57 -369.31,-4.58z"/>
    <path class="fil1 str1" d="M10703.33 10409.6c-40.06,51.17 -31.54,101.17 -32,165.97 -3.03,436.68 -20.96,2981.58 -0.58,3096.26 79.89,30.41 453.74,26.85 535.8,0.89 34.9,-157.28 20.48,-2364.3 26.87,-2736.27 1.77,-104.01 -22.33,-339.97 50.87,-408.56 75.88,-71.1 194.48,-151.59 240.23,-239.57 -82.27,19.61 -196.89,151.57 -266.59,214.09 -100.91,90.49 -62.33,268.78 -64.18,398.03l-4.56 1836.61c-3.02,214.87 21.16,730.07 -11.49,911.23l-476.49 8.18c-29.43,-203.19 3.31,-586.91 6.29,-811.37 4.79,-361.33 20.05,-2360.48 -4.17,-2435.49z"/>
    <g>
     <path class="fil1 str1" d="M3341.84 12972.89c405.3,-135.52 895.91,458.75 335.55,715.82 -215.94,99.07 -427.19,-41.3 -521.42,-217.98 -125.35,-235.01 39.58,-448.92 185.88,-497.84zm552.42 -653.37c-74.82,265.66 -281.03,10.34 -637.47,117.13 -147.91,44.32 -277.64,135.36 -363.55,251.94 -340.03,461.45 -298.85,910.13 127.76,1278.89 146.14,126.32 221.55,116.63 330.95,143.43 175.39,42.96 419.17,118.98 638.2,-39.06 105.62,-76.2 142.14,-146.54 207.34,-254.98 48.46,-80.6 19.2,-56.88 86.75,-75.66 69.11,-90.88 126,-341.09 116.11,-510.82 -13.42,-230.43 -185.99,-338.76 -198.6,-449.54 10.94,-82.56 506.16,-542.53 546.94,-634.79 16.75,-140.55 123.51,-116.07 143.85,-248.2 -59.96,10.16 -72.02,26.15 -108.25,71.79 -66.23,-110.88 -4.71,-19.35 -105.35,-71.65 7.03,-56.9 0.67,-36.8 39.36,-72.18 -56.66,-35.17 -123.4,-24.4 -51.54,-135.99 52.38,-81.35 91.5,-12.21 102.22,-138.62 -109.73,2.87 -177.73,108.24 -240.72,179.74l-423.73 404.98c-69.41,69.59 -132.65,184.32 -210.26,183.58z"/>
     <path class="fil1 str1" d="M3894.27 12319.51c77.61,0.74 140.86,-114 210.26,-183.58l423.73 -404.98c62.99,-71.5 130.99,-176.87 240.72,-179.74 -10.72,126.41 -49.83,57.26 -102.22,138.62 -71.85,111.59 -5.11,100.82 51.54,135.99 -38.69,35.38 -32.33,15.27 -39.36,72.18 100.64,52.29 39.12,-39.23 105.35,71.65 36.23,-45.64 48.29,-61.63 108.25,-71.79 -20.34,132.13 -127.1,107.66 -143.85,248.2 108.46,-59.22 324.71,-357.93 403.21,-475.3 67.44,-100.83 146.73,-157.32 137.27,-293.3 -6.51,-93.44 -60.07,-290.26 -61.28,-348.96 -171.52,-51.81 -23.26,38.84 -357.6,325.04 -173.53,148.53 -940.61,861.5 -976.03,965.98z"/>
     <path class="fil1 str1" d="M3866.31 14181.07c167.04,-29.21 373.78,-284.65 417.95,-439.86 -67.55,18.78 -38.29,-4.94 -86.75,75.66 -65.2,108.44 -101.71,178.78 -207.34,254.98 -219.04,158.05 -462.81,82.03 -638.2,39.06 -109.4,-26.81 -184.81,-17.11 -330.95,-143.43 -426.61,-368.76 -467.78,-817.44 -127.76,-1278.89 85.91,-116.59 215.63,-207.62 363.55,-251.94 356.44,-106.79 562.65,148.53 637.47,-117.13 -114.9,32.09 -22.11,93.97 -202.52,68.98 -246.08,-34.08 -453.05,-32.31 -664.67,128.62 -648.13,492.84 -466.54,1434.74 305.31,1653.63 234.48,66.49 305.76,36.92 533.93,10.32z"/>
    </g>
    <path class="fil1 str1" d="M7390.87 12088.92c33.95,111.4 137.49,172.03 200.44,305.31 55.35,117.21 74.35,254.41 108,377.56 63.78,233.42 99.37,624.7 74.64,870 -57.24,21.47 -470.32,45.91 -505.05,30.65 -113.61,-171.75 -9.23,-1033.86 -234.97,-1169.83 -106.19,-63.96 -118.32,-53.65 -215.41,-145.54l-554.4 -504.04c25.31,106.89 416.32,424.27 534.82,541.36 96.23,95.11 109.69,81.97 219.65,145.58 172.8,99.94 120.24,1115.77 235.11,1179.3 49.36,6.7 201.91,-21.24 282.19,-22.81 83.14,-1.63 204.18,15.51 260.91,-27.76 73.12,-138.55 -21.41,-719.92 -56.42,-893.68 -34.94,-173.53 -152.44,-608.51 -349.5,-686.11z"/>
    <path class="fil1 str1" d="M3874.57 3549.37c533.23,-161.52 776.9,650.38 165.99,822.12 -125.13,35.18 -255.85,4.7 -347.27,-66.57 -345.45,-269.33 -123.49,-663.24 181.28,-755.55zm62.53 -47.58c-93.09,18.87 -154.81,-19.57 -322.31,151.57 -309.93,316.7 -40.28,867.52 416.47,778.83 260.1,-50.51 422.58,-273.16 411.5,-538.99 -10.33,-247.63 -278.01,-437.56 -505.67,-391.41z"/>
    <path class="fil1 str1" d="M11891.12 12516.87c-53.39,82.71 -167.39,1037.77 -68.45,1170.47l526.5 -4.88 120.06 -1083.68c77.5,-68.55 112.47,-18.15 187.84,-131.73 -73.15,6.34 -145.35,51.81 -212.58,84.87 -22.54,164.08 -40.73,360.53 -70.35,517.66 -29.63,157.08 -12.28,445.84 -52.01,558.79 -136.18,19.91 -350.48,16.76 -475.26,18.48 -50.6,-441.73 78.79,-1020.79 44.26,-1129.98z"/>
    <path class="fil1 str1" d="M8303.9 8325.57c-50.61,242.95 -189.31,408.93 -462.8,376.2 -255.22,-30.53 -340.98,-270.49 -325.59,-503.17 38.04,-575.14 903.49,-425.43 788.39,126.97zm-501.67 -513.93c-290.28,76.03 -357.81,283.45 -317.22,583.04 35.96,265.29 314.47,400.97 569.11,335.9 194.41,-49.69 352.57,-375.93 300.6,-574.58 -64.44,-246.29 -299.24,-410.69 -552.49,-344.35z"/>
    <path class="fil1 str1" d="M9596.51 2193.19c80.25,-19.99 296.21,-24.9 369.31,4.58 47.41,74.26 59.89,623.97 43.32,736.18 -63.46,17.98 -352.23,5.38 -429.87,-2.47 -34.64,-124.51 -14.92,-607.36 17.24,-738.29zm271.15 808.82c101.12,-28.43 170.23,40.42 187.07,-77.22 8.62,-60.29 0.43,-186.77 -0.62,-253.13 -2.46,-157.46 -23.31,-323.63 -25.05,-466.18 -84.07,-85.6 -336.05,-79.92 -448.9,-41.89 -63.92,86.91 -93.47,718.26 -30.56,793.56 41.45,31.88 166.29,5.71 236.69,16.48 95.76,14.65 23.65,-12.02 81.37,28.39z"/>
    <path class="fil1 str1" d="M535.18 8233.96c180.04,-94.63 144.25,-239.01 468.66,-229.76 412.24,11.74 482.42,587.46 182.78,812.84 -253.3,190.51 -341.35,-7.29 -525.47,-27.58 32.93,68.2 -21.63,18.96 62.04,71.4l205.69 73.88c131.29,15.46 190.87,-18.69 286.1,-86.6 412.49,-294.1 153.9,-1132.91 -511.29,-817.74 -58.14,27.56 -152.25,128.17 -168.52,203.54z"/>
   </g>
  </g>
 </g>
</svg>
