<?xml version="1.0" encoding="UTF-8"?>
<!DOCTYPE svg PUBLIC "-//W3C//DTD SVG 1.1//EN" "http://www.w3.org/Graphics/SVG/1.1/DTD/svg11.dtd">
<!-- Creator: CorelDRAW 2018 (64 Bit) -->
<svg xmlns="http://www.w3.org/2000/svg" xml:space="preserve" width="5947px" height="1704px" version="1.1" style="shape-rendering:geometricPrecision; text-rendering:geometricPrecision; image-rendering:optimizeQuality; fill-rule:evenodd; clip-rule:evenodd"
viewBox="0 0 5442.23 1559.33"
 xmlns:xlink="http://www.w3.org/1999/xlink">
 <defs>
  <style type="text/css">
   <![CDATA[
    .str0 {stroke:black;stroke-width:2.16;stroke-miterlimit:22.9256}
    .str1 {stroke:#4A6CF7;stroke-width:2.16;stroke-miterlimit:22.9256}
    .fil0 {fill:black}
    .fil1 {fill:#4A6CF7}
   ]]>
  </style>
 </defs>
 <g id="Capa_x0020_1">
  <metadata id="CorelCorpID_0Corel-Layer"/>
  <path class="fil0 str0" d="M2355.59 1204.03c4.84,-5.49 2.61,-59.92 2.61,-70.85 0,-13.29 3.86,-64.89 -2.62,-72.46 -3.93,-3.86 -0.69,-2.67 -8.3,-3.75l-170.68 0.2c-59.94,-0.58 -119.08,-1.37 -178.85,-2.06l-0.06 -130.44c50.88,-0.61 102.3,0.07 153.23,0.07 24.99,0 135.23,3.41 147.54,-3.54 2.82,-14.65 3.36,-126.89 -0.4,-138.92l-301.35 -1.53 -0.42 -138.82c60.55,-1.68 124.47,0.24 185.81,0.11l137.54 0.04c14.59,0.05 32.4,3.65 37.92,-8.16 2.05,-19.16 2.34,-122.32 -1.97,-135.08 -18.24,-4.92 -102.55,-1.71 -127.64,-1.71l-260.42 0.09c-30.33,0.02 -103.26,-3.24 -128.9,2.24 -7.02,17.45 -2.54,264.84 -2.62,305.16 -0.21,102.76 0.18,205.59 0.14,308.37 -0.01,25.09 -0.14,50.21 -0.1,75.3 0.04,23.85 3.58,18.5 59.96,18.47l423.63 -0.08c9.74,-0.01 29.71,2.8 35.95,-2.65zm2766.93 -416.85c11.18,-0.96 15.14,-3.84 27.43,-4.33 38.54,-1.55 67,-1.04 96.17,22.21 43.8,34.92 59.04,98.73 49.18,153.4 -2.72,15.11 -9.62,30.04 -15.7,43.01 -10.76,22.98 -36.43,45.26 -60.11,55.56 -44.91,19.54 -97.87,10.37 -135.02,-20.29 -13.24,-10.92 -31.87,-34.73 -36.73,-51.2 -2.48,-8.38 -2.47,-4.87 -4.56,-10.02 -11.02,-27.16 -7.75,-63.58 -2.5,-92.52 3.66,-20.2 3.72,-11.91 6.28,-21.73 3.48,-7.71 8.2,-14.77 13.03,-22.47 6.09,-9.72 9.65,-13.26 17.34,-21.19 13.14,-13.56 25.06,-24.21 45.19,-30.43zm-1829.05 281.52c-37.22,1.8 -75.5,-41.02 -83.07,-63.09 -1.51,-4.41 -1.26,-9.01 -1.93,-13.58 -0.86,-5.94 -1.83,-6.75 -3.02,-11.47 -6.81,-27 2.53,-247.24 -2.64,-296.39 -14.07,-2.79 -128.16,-3.12 -135.55,0.44 -7.86,4.9 -5.17,24.58 -5.18,39.25 -0.01,46.76 -3.45,229.58 2.53,257.94 3.6,17.1 1.71,50.08 18.26,84.95 2.94,6.2 3.63,9.57 6.38,15.7 4.77,10.65 18.59,32.86 27.31,42.35l9.95 12.11c8.6,8.65 41.35,34.71 53.35,38.61 8.26,2.69 21.83,11.95 31.54,14.24 19.59,4.62 5.93,3.69 17.93,5.94 14.8,2.78 27.38,7.76 38.48,5.44 7.36,5.19 17.98,3.64 27.48,3.62 54.57,-0.12 92.28,-5.08 139.96,-34.32 6.66,-4.09 9.46,-9.49 18.83,-9.08 1.25,54.01 -20.9,40.51 112.68,42.87 6.37,0.11 12.07,0.54 15.11,-2.68l1.62 -391.42c0.24,-19.21 4.71,-119.48 1.37,-126.65 -10.72,-7.22 -51.18,-3.16 -67.66,-3.15 -88.09,0.07 -75.65,-15.89 -75.68,63.72l-0.07 201.91c-0.37,41.63 -10.52,80.17 -41.94,99.15 -4.69,2.83 -1.64,0.04 -5.6,3.33 -11.8,9.81 -17.3,10.61 -35.03,16.67 -18.2,6.22 -43.45,3.61 -65.41,3.59zm-473.7 -358.95c-4.6,-9.97 -56.25,-31.32 -65.92,-33.09l-45.33 -6.42c-17.62,-0.37 -32.99,-0.14 -48.69,2.85 -8.27,1.58 -12.07,2.03 -21,3.18 -8.33,1.08 -45.81,17.08 -56.32,20.63 -21.49,7.28 -72.78,49.85 -84.08,68.12 -10.88,17.59 -18.42,20.81 -29.4,47.67l-10.88 27.76c-1.72,5.35 -2.56,4.82 -4.12,8.51 -2.29,5.4 -2.55,14.49 -4.64,21.31 -7.53,24.52 -7.87,92.67 -1.78,116.93l10.92 40.53c2.87,8.92 5.14,5.59 8.3,15.88 3.62,9.43 5.9,19.2 10.7,27.07 13.36,21.9 16.43,24.94 31.53,43.67l36.93 36.38c0.29,0.25 0.66,0.64 0.95,0.88 6.25,5.1 5.89,2.37 12.33,6.26l12.01 8.13c8.14,5.14 13.72,9.26 22.73,13.89 3.88,2 8.48,4.09 12.35,5.94 6.4,3.05 8.53,2.18 15,5.22 26.92,12.67 68.59,13.48 99.91,12.46 47.3,-1.53 50.78,-10.53 74.9,-19.36 11.54,-4.23 20.28,-11.01 30.49,-17.32l15.54 -13.57c8.08,-8.25 9.64,-16.56 28.04,-4.06l74.41 43.08c27.92,14.84 30.57,12.1 31.04,12.03 7,-1 5.09,-11.26 4.99,-21.57 -1.68,-165.91 0.1,-339.93 0.13,-506.6l0.28 -165.31c-0.17,-2.72 -0.02,-2.53 -0.72,-5.17 -0.92,-3.45 -0.65,-2.53 -1.95,-4.4 -8.14,-3.91 -128.66,-3.3 -138.07,0.41 -6.69,16.29 1.63,177.56 -2.34,214.18 -10.02,0.38 -7.74,-3.72 -18.24,-6.1zm-229.89 161.98c4.02,-2.4 5.7,-10.37 7.99,-14.33 11.91,-20.62 10.07,-15.87 21.4,-28.19 4.77,-5.18 19.51,-21.3 25.35,-23.94 4.24,-1.92 4.85,-1.55 9.01,-4.08 22.73,-13.84 24.83,-8.73 37.66,-11.9 27.78,-6.86 31.02,-1.92 55.59,1.13l26.4 9.78c2.29,0.92 6.64,3.11 8.84,4.19 22.3,10.95 35.9,31.95 49.67,49.31 1.56,9.61 15.82,34.08 15.79,75.72 -0.05,51.75 -9.29,72.42 -37.88,106.98l-31.26 23.54c-17.08,9.62 -30.18,13.67 -51.6,14.69 -38.62,1.84 -45.9,0.99 -75.15,-14.99 -23.42,-12.78 -30.3,-21.19 -45.45,-42.68 -12.85,-18.23 -23.22,-39.88 -24.37,-63.53 -3.15,-64.75 4.58,-51.72 8.01,-81.7zm2358.4 -100.65c-6.63,3.77 -5.12,2.57 -8.71,9.53l-18.14 35.12c-6.5,13.1 -13.7,39.78 -15.76,56.23 -4.86,38.91 -9.9,50.66 -0.82,94.55 3.83,18.53 -0.47,10.58 6.37,30.23 2.08,5.98 1.21,8.64 2.25,14.67 1.18,6.82 2.75,6.78 4.99,13.24 3.77,10.91 5.75,12.62 10.05,24.78 6.82,19.29 22.81,37.13 34.15,54 8.83,13.15 31.12,30.84 44.59,43.69 9.38,8.95 44.25,26.36 56.16,31.88 36.53,16.91 101.51,23.73 138.4,14.19 29.3,-7.58 70.56,-28.42 91.12,-49.66 16.43,-16.98 7.21,-6.91 44.7,12.54 9.5,4.92 29.99,18.94 44.28,25.49 71.32,32.73 57.68,8.64 57.82,-28.73l0.23 -308.37c0.08,-40.08 3.56,-339.72 -1.78,-350.58 -3.88,-4.16 -134.38,-3.19 -141.79,-0.32 -5.64,13.58 0,182.26 -1.51,215.12 -8.98,0.31 -23.74,-10.08 -34.47,-16.89 -5.24,-3.32 -9.03,-6.1 -16.42,-9.25 -8.52,-3.62 -8.04,-6.21 -20.6,-7.26 -8.61,-7.13 -23.98,-6.6 -37.32,-10.21 -20.26,-5.48 -70.52,-2.83 -89.8,4.31 -6.49,2.41 -12.44,4.01 -19.29,6.21 -31.24,10.03 -70.86,30.56 -94.38,54.59 -9.12,9.3 -34.13,31.43 -34.32,40.9zm-1200.65 -118.33l-8.93 10.87c-6.39,13.36 -12.35,22.8 -19.45,40.86 -2.79,7.1 -1.42,7.75 -5.17,15.02l-8.68 31.5c-12.06,59.27 -15.51,121.15 0.77,180.73l5.67 24.33c0.47,2.54 0.61,2.59 1.14,3.93 0.14,0.35 0.41,0.8 0.57,1.14l36 68.13 26.2 33.94c3.39,5.7 4.51,7.62 8.17,12.29l39.2 41.61c22.68,20.39 46.88,30.66 71.5,47.69 4.68,3.23 35.08,15.67 43.26,16.84l48.24 12.24c17.76,3.23 58.7,3.31 78.22,3.02 46.05,-0.68 64.04,-6.01 103.78,-15.8 27.96,-6.89 62.85,-28.03 87.75,-42.59 3.4,-1.99 37.03,-28.67 37.2,-35.23 0.13,-4.88 -16.16,-23.42 -20.47,-28.6 -8.17,-9.82 -12,-17.45 -19.8,-27.83l-38.08 -57.79c-7.36,1.68 -35.98,27.03 -44.92,32.46 -4.56,2.77 -8.13,3.53 -12.44,6.08 -46.17,27.22 -92.37,28.95 -145.85,20.06 -4.72,-0.79 -10.82,-1.73 -14.98,-3.28 -14.54,-5.39 -20.74,-10.38 -25.94,-11.69 -9.37,-2.34 -7.38,-2.6 -14.69,-6.03 -21.02,-9.88 -39.73,-23.23 -55.76,-39.89 -20.95,-21.76 -25.96,-31.61 -40.58,-56.72 -2.92,-5 -4.13,-6.19 -6.13,-11.96l-16.63 -45.79c4.31,-9.66 1.12,-30.27 1.23,-42.54 0.22,-22.63 5.78,-52.04 14.75,-72.67 3.38,-7.76 2.82,-0.97 7.09,-15.13l4.36 -7.71c0.33,-0.4 1.38,-1.56 1.72,-1.99 16.66,-20.97 12.26,-26.31 30.17,-41.31l64.1 -46.07c13.56,-8.37 55.78,-16.95 67.52,-20.46 17.76,-5.31 64.04,-0.6 80.8,3.41 5.98,1.44 11.33,3.26 17.1,5.02l31.62 12.5 45.29 31.51c3.35,3.51 1.29,2 5.18,5.71 0.27,0.26 0.7,0.6 0.97,0.86l11.53 9.94c7.73,-2.74 70.76,-67.39 79.89,-75.43 13.75,-12.09 32.64,-20.98 25.3,-30.92 -1.34,-1.8 -2.12,-2.53 -3.65,-3.99 -2.34,-2.21 -4.37,-3.78 -6.98,-5.86 -15.15,-12.06 -45.59,-34.43 -62.93,-43.53 -6.58,-3.45 -11.52,-5.85 -18.13,-9.37l-19.02 -8.75c-15.04,-4.75 -12.2,-6.15 -19.08,-8.21l-27.94 -10.23c-20.52,-9.06 -17.61,-2.51 -34.1,-6.54 -8.26,-2.01 -12.3,-4.34 -21.69,-5.15 -21.92,-1.89 -106.7,-3.86 -127.23,2.58l-21.41 5.69c-8.05,1.67 -12.99,3.9 -20.2,5.6 -21.53,5.1 -80.94,32.32 -99,49.39 -12.37,11.69 -28.89,20.11 -50.7,42.97 -9,9.43 -17.24,18.5 -24.78,28.47 -6.73,8.88 -21.01,23.04 -20.95,32.67zm929.11 169.69c2.5,8.52 7.49,11.85 11.85,19.46 8.49,14.79 19.69,47.78 21.19,63.15 3.25,33.4 0.86,47.79 -10.19,75.75 -9.13,23.11 -14.69,34.63 -32.93,51.66 -11.58,10.82 -17.23,16.6 -33.03,23.16 -31.08,12.9 -86.24,16.87 -115.63,-0.89 -6.57,-3.98 -10.65,-6.49 -16.1,-11.33 -11.43,-10.13 -18.07,-12.49 -29.12,-27.86l-5.06 -7.88c-0.2,-0.37 -0.44,-0.85 -0.64,-1.23l-7.53 -14.35c-4.38,-6.77 -10.8,-29.39 -11.73,-36.7 -3.94,-31.07 -7.1,-70.88 9.53,-99.26 34.84,-59.45 22.9,-38.3 67.78,-66.51 2.94,-1.85 1.39,-0.59 3.56,-2.79 2.9,0.39 49.63,-12.44 88.4,-1.85 11.91,3.25 39.26,18.2 47.66,25.8 4.51,4.08 7.36,7.78 11.99,11.67zm-348.32 -9.65c-4.71,4.15 -0.59,-0.05 -3.37,4.09 -5.44,8.13 -8.61,21.36 -10.87,29.93 -2.99,11.32 -5.2,30.09 -6.73,41.65 -5.6,42.53 -3.8,65.44 4.83,106.51 2.95,14.04 21.86,56.94 28.2,66.99 3.06,4.86 6.64,9.55 9.77,13.95 7.16,10.08 12.23,16.35 21.06,26.62 29.74,34.57 46.55,42.42 79.78,61.81l50.29 21.27 41.19 7.4c7.5,0.78 13.42,1.51 22.43,1.57 61.77,0.42 66.1,0.22 121.57,-20.49l17.54 -6.68c8.82,-2.48 1.03,0.15 7.64,-3.65l2.41 -1.37c19.28,-10.22 43.61,-30.75 58.11,-46.24 35.41,-37.81 41.9,-45.71 62.61,-91.31 1.91,-4.21 2.57,-4 3.88,-8.67l9.04 -37.38c3.13,-6.95 4.32,-7.87 5.33,-17.34 1.45,-13.7 0.55,-33.01 0.52,-47.24 -0.03,-15.82 -0.32,-30.31 -3.89,-43.31 -2.65,-9.62 -2.75,-22.26 -6.21,-28.17 -4.74,-8.08 -8.09,-14.67 -10.53,-26.17 -4.36,-20.63 -30.2,-56.09 -46.45,-72.71 -6.61,-6.77 -17.45,-19.04 -27.16,-22.22l-60.82 -36.67 -29.31 -11c-44.02,-9.05 -35.03,-12.12 -89.61,-12.17 -12.67,-0.02 -27.76,-0.47 -40.21,0.81 -5.9,0.6 -11.02,2.13 -16.45,3.6 -7.06,1.91 -11.34,1.09 -18.5,1.97 -13.69,1.68 -59.34,21.01 -71.95,28.93 -4.2,2.64 -9.59,4.28 -13.41,6.97 -8.31,5.87 -12.52,12.5 -21.75,18.22 -18.47,11.43 -69.75,74.21 -68.98,90.5z"/>
  <g id="_1230351580608">
   <path class="fil0 str0" d="M702.57 1490.29c-1.47,12.85 32.42,43.6 43.38,50.65 23.42,15.05 52.87,17.56 80.34,17.29 25.06,-0.23 58.27,-3.63 79.49,-17.95 15.62,-10.54 44.14,-38.32 42.26,-54.68 -20.67,-5.38 -96.15,1.52 -123.52,1.63 -20.29,0.09 -110.8,-4.57 -121.95,3.06z"/>
   <path class="fil0 str0" d="M1004.97 1343.75c9.05,-1.93 24.1,-18 25.1,-26.28 0.81,-6.69 -3.9,-14.28 -7.61,-18.85 -7.23,-8.91 -7.29,-6.19 -16.42,-9 -3.62,-5.95 -13.07,-3.66 -26.61,-3.45 -99.96,1.55 -200.18,0.43 -300.56,1 -11.25,0.06 -44.84,-3.38 -52.4,-1.43 -12.65,3.27 -24.78,18.96 -21.91,32.94 1.67,8.15 18.12,24.97 25.33,28.44 9.34,4.51 40.04,0.73 51.98,0.46 68.47,-1.57 149.72,-2.42 217.91,-1.26 17.66,0.3 34.82,1.11 52.6,1.12 11.61,0 45.48,4.14 52.59,-3.69zm-391.24 -113.86c7.86,17.48 24.85,16.98 41.09,16.94l285.54 0.03c56.13,0.08 73.11,8.82 88.78,-25.52 4.54,-9.96 4.44,-11.27 -2.24,-20.26 -15.34,-20.65 -18.29,-15.04 -71.51,-14.24 -19.03,0.28 -38.08,0.25 -57.11,0.4 -18.82,0.14 -35.23,2.04 -54.1,2.17 -19.01,0.12 -38.13,0 -57.14,-0.21 -29.87,-0.34 -149.54,-8.63 -164.14,2.69 -5.26,0.21 -15.29,8.64 -17.07,15.14 -2.4,8.83 1.11,18.82 7.9,22.86zm15.43 211.11c8.72,14.26 34.73,10.79 49,8.33 13.6,-2.34 43.23,-2.93 57.81,-2.94 7.83,-2.3 94.9,-0.96 115.81,-1.17 8.64,-0.08 9.55,-1.7 16.41,-2.13 6.02,-0.39 13.43,-0.21 19.57,-0.24 12.11,-0.07 28.79,-0.95 40.45,0.39 16.23,1.86 39.62,13.14 68.4,4.23 14.24,-4.4 17.62,-13.03 22.41,-14.72 3.04,-18.05 29.68,-54.9 -57.2,-45.88 -28.74,2.98 -231.43,1.03 -281.45,0.67 -9.07,-0.07 -50.57,-4.8 -52.9,4.46 -11.26,0.4 -15.97,15.75 -14.66,26.29 0.95,7.67 8.05,21.93 16.35,22.71z"/>
  </g>
  <g id="_1230351581280">
   <path class="fil1 str1" d="M524.09 416.48l0.43 0.58c-4.78,12.26 -47.24,46.05 -71.73,92.48l-24.43 57.04c-7.11,21.91 -13.74,41.87 -17.43,64.86 -10.18,63.5 -7.08,156.65 16.82,218.85 3.72,9.69 8.22,18.66 12.17,28.89 3.47,9 12.65,19.96 15.31,27.36 5.06,4.87 10.41,14.39 15.48,21.07 2.9,3.82 5.79,7.48 8.35,11.31 9.47,14.19 39.73,43.88 44.02,50.86l46.29 42.09c8.11,7.67 9.12,6.81 17.99,12.15 18.85,11.35 10.14,83.34 19.62,97.68 2.9,1.28 37.4,-0.76 42.18,-2.56 2.06,-20.48 -0.91,-53.15 -6.24,-72.64 -2.81,-10.29 -4.39,-21.74 -9.02,-31.53 -5.25,-11.13 -13.9,-16.19 -16.73,-25.5 -31.33,-31.87 -60.9,-58.53 -90.47,-92.83 -34.37,-39.87 -46,-76.46 -61.41,-125.06 -15.41,-48.61 -13.07,-116.39 -0.97,-164.78 12.35,-49.36 31.27,-85.04 60.87,-125.91 20.87,-28.82 63.91,-71.44 92.89,-92 38.98,-27.66 84.64,-47.47 132.04,-54.86 53.63,-8.35 116.62,-9.08 168.66,7.81 30.26,9.81 35.81,9.3 67.63,25.71 14.99,7.74 44.69,25.06 56.61,35.97 16.57,7.71 51.58,42.35 63.43,57.38 22.83,28.94 19.38,26.25 36.15,54.08 5.13,8.51 5.01,12.04 8.66,20.34 25.8,58.78 14.62,34.03 28.97,89.84 4.44,17.26 4.51,38.22 4.32,56.07l-3.55 55.48c-2.09,19.45 -7.08,30.62 -11.4,48.47 -4.29,17.76 -12.08,27.96 -17.1,43.13 -8.13,24.59 -29.36,53.16 -46.35,72.92 -43.63,50.74 -53.36,53.19 -89.2,89.7 -29.3,29.83 -14.67,18.6 -23.99,34.28 2.88,9.12 -7.92,57.47 -3.7,94.36 10.42,-0.15 28.32,0.12 39.69,-1.55 3.31,-9.43 1.87,-33.54 4.34,-46.66 2.47,-13.12 3.99,-29.52 5.87,-43.22 5.62,-2.76 11.65,-6.56 17.76,-7.09 35.38,-20.32 61.4,-60.16 87.13,-87.91 10.86,-11.72 41.77,-55.32 48.82,-68.3 5.56,-10.24 30.68,-74.22 32.75,-85.01 15.25,-79.25 13.26,-183.5 -21.27,-257.52 -3.3,-7.07 -5.48,-13.35 -8.37,-20.46 -3.7,-9.08 -7.5,-11.23 -11.07,-18.65 -13.99,-29.05 -29.84,-44.59 -49.53,-67.81 -8.22,-9.68 -21,-18.14 -29.72,-28.39 -10.09,-3.15 -44.21,-35.58 -58.12,-44.59l-48.65 -28c-5.51,-2.54 -12.74,-4.78 -18.13,-7.61 -54.07,-28.4 -109.31,-32.72 -169.64,-32.74 -50.31,-0.02 -44.06,1.37 -91.59,8.91 -17.84,2.83 -60.26,17.14 -75.11,27.09 -20.03,13.43 -44.15,23.13 -62.66,39.5 -9.24,8.17 -19.18,14.48 -28.26,22.78 -8.23,7.52 -19.56,20.22 -29.41,24.14z"/>
   <path class="fil1 str1" d="M815.79 483.13c17.64,-6.06 43.52,7.65 47.52,26.14 4.61,21.27 -7.28,43.9 -26.97,48.61 -51.38,12.27 -69.63,-57.91 -20.55,-74.75zm-57.13 87.28c2.5,1.44 8.75,12.28 15.65,17.28 6.09,4.42 15.92,9 20.28,12.53 12.15,3.84 3.34,6.84 5.07,16.24 2.69,13.68 -0.43,50.31 -0.58,66.73 -1.14,129.82 3.51,265.52 0.05,395.48 -0.47,17.59 -4.61,44.51 -1.84,60.8 5.01,1.93 34.04,1.03 40.27,-0.03 5.69,-15.42 2.28,-436.66 2.66,-507.38 0.07,-12.66 -3.68,-17.59 -4.19,-28.05 3.36,-3.39 15.79,-6.75 20.65,-7.25l3.46 0.72c2.39,-5.03 13.08,-12.89 18.02,-16.94 8.27,-6.77 8.92,-10.02 14.25,-17.58 29.38,-41.69 11.51,-98.44 -42.35,-121.34 -24.74,-10.52 -74.14,1.13 -91.64,29.49 -32.18,52.13 -2.56,80.55 0.24,99.3z"/>
   <path class="fil1 str1" d="M651.52 652.3c21.14,-5.54 40.75,8.19 46.13,28.76 4.34,16.59 -8.87,43.83 -25.1,47.98 -21.26,5.43 -44.52,-5.9 -47.52,-28.05 -3.39,-25.02 2.25,-42.34 26.49,-48.69zm-55.3 -5.64l-6.83 11.87c-3.57,22.17 -14.48,43.68 1.21,75.27 20.74,41.76 32.2,27.08 48.91,38.15 4.61,38.27 -17.92,32.63 30.69,86.81 6.2,6.91 15.37,13.64 18.73,21.76 8.83,2.46 5.89,15.59 5.89,25.2 0.01,28.64 -1.91,155.04 1.46,168.68 3.32,13.49 1.07,49.15 3.04,66.44 7.73,1.04 35.62,1.55 42.14,-0.87 2.51,-8.84 1.13,-192.66 1,-217.71 -0.25,-48.93 7.01,-46.9 -26.09,-82.64 -18.06,-19.49 -39.32,-45.2 -33.35,-74.17 19.1,-6.1 40.09,-23.63 48.7,-42.95 5.32,-11.94 6.95,-26.33 6.73,-39.31 -0.36,-21.4 -8.45,-26.58 -9.43,-37.11 -10.8,-5.47 -22.7,-39.43 -66.73,-38.88 -13.67,0.18 -29.93,4.57 -40.98,12.43 -10.96,7.8 -17.89,21.54 -25.09,27.03z"/>
   <path class="fil1 str1" d="M973.81 653.3c28.58,-9.83 61.06,19.95 48.31,47.01 -3.25,6.87 -8.73,21.23 -19.99,26.44 -9.61,4.45 -22.52,1.04 -30.7,-3.99 -36.47,-22.41 -19.8,-61.83 2.38,-69.46zm-40.17 -32.91c-4.03,9.2 -17.54,16.11 -24.9,35.33 -2.81,7.33 -4.84,16.14 -5.48,24.6 -0.76,10.23 3.49,21.95 2.13,27.83 4.92,4.82 5.21,12.87 9.45,20.28 14.64,25.57 43.67,33.1 45.67,36.68 3.46,21.84 -12.64,44.71 -25.85,59.75l-40.89 44.38c2.02,6.27 0.75,173.2 0.35,203.38 -0.25,18.74 -2.98,50.78 -0.53,67.75l39.79 -0.68c2.73,-15.13 0.71,-58.15 0.96,-76.1l0.38 -153.36c0.16,-10.79 -3.06,-25.68 5.36,-33.24 5.82,-5.22 15.39,-16.24 22.26,-17.87 10.76,-10.42 23.76,-19.47 32.45,-31.31 14.51,-19.77 8.55,-30.97 9.74,-56.05 3.41,-2.16 24.07,-5.63 40.36,-21.56 10.38,-10.15 18.54,-27.21 20.53,-41.38l1.63 -0.08c0.71,-32.08 2.1,-52.16 -19.76,-75.39 -25.24,-26.81 -57.5,-36.41 -93.12,-23.3 -8.33,3.06 -13.16,8.26 -20.53,10.34z"/>
   <path class="fil1 str1" d="M44.69 687.57c1.36,-6.3 9.22,-14.7 14.07,-17 55.55,-26.32 77.14,43.73 42.7,68.29 -7.96,5.67 -12.93,8.52 -23.89,7.23l-17.18 -6.17c-6.99,-4.38 -2.43,-0.27 -5.18,-5.96 -4.24,-7.65 -10.86,-8.34 -14.63,-19.38 -3.25,-9.52 -0.91,-18.74 4.11,-27.01zm53.3 94.21c6.84,-4.23 27.49,-9.19 36.02,-23.02 4.22,-6.83 7.78,-9.42 11.67,-18.36 1.96,-4.51 8.05,-17.28 10.99,-20.42 10.18,2.26 7.93,3.87 21.74,4.03 9.59,0.1 17.92,0.38 27.26,1.04 19.39,1.37 88.18,0.43 112.52,0.39 14.19,-0.03 44.08,-2.81 55.54,-0.96 4.08,-8.98 -0.08,-11.52 -0.84,-20.33 -2.71,-31.3 19.31,-23.51 -110.3,-23.7 -18.03,-0.03 -36.07,-0.21 -54.1,-0.16 -74.35,0.21 -46.5,8.46 -63.77,-17.57 -4.74,-7.14 -6.64,-9.7 -12.95,-15.52 -13.3,-12.27 -18.03,-16.96 -37.64,-19.22 -13.63,-1.57 -38.55,-1.26 -49.56,6.96 -24.68,18.42 -44.07,34.47 -43.49,70.83 0.54,33.45 15.84,52.64 45.03,69.17 15,8.49 34.47,8.62 51.88,6.84z"/>
   <path class="fil1 str1" d="M257.85 1126.75c5.69,4.46 6.06,6.98 6.32,14.98 1.38,41.29 -58.24,40.94 -68.58,12.82 -14.59,-10.67 3.63,-62.77 45.58,-43.97 10.15,4.55 11.19,7.33 16.68,16.17zm14.55 71.71c0.57,-1.6 18.58,-16.79 22.8,-25.48 6.23,-12.87 4.13,-32.14 7.55,-43.81 1.62,-5.53 20.67,-18.53 26.1,-23.28 8.88,-7.77 18.94,-15.76 27.03,-24.14 10.45,-10.81 95.21,-97.96 99.88,-100.2 1.56,-14.41 -23.14,-32.49 -24.88,-32.63 -11.61,1.44 -29.3,24.22 -37.79,33.27 -11.29,12.03 -25.17,23.08 -37,35.12l-70.97 72.46c-12.62,-5.3 -29.75,-40.03 -80.31,-26.5 -23.4,6.26 -50.73,32.66 -53.86,56.13 -4.66,34.99 5.83,54.04 32.77,77.2 10.67,9.17 28.56,13.53 42.8,13.67 26.36,0.26 33.31,-8.56 45.88,-11.81z"/>
   <path class="fil1 str1" d="M1519.73 707.25c-2.74,-10.23 1.75,-20.69 7.14,-28.25 10.61,-14.89 35.67,-20.94 51.88,-4.57 6.82,6.89 13.6,13.71 14.43,23.8 3.16,38.02 -40.8,60.13 -66.87,21.13 -1.1,-1.64 -6.37,-11.32 -6.58,-12.11zm0.73 64.64c0.76,0.02 44.85,21.47 70.86,-1.22 4.86,-4.23 8.26,-5.02 13.41,-9.09 4.87,-3.85 7.46,-7.93 11.77,-12.21 7.09,-7.03 13.97,-19.7 15.34,-30.1 0.98,-27.11 1.09,-38.05 -13.32,-60.48 -4.23,-6.58 -11.79,-13.38 -17.99,-18.26 -12.3,-9.7 -8.88,-8.1 -24.75,-12.64 -11.33,-3.25 -20.26,-4.19 -32.11,-2.44 -43.21,6.38 -57.84,51.15 -58.18,51.44 -5.45,4.72 -132.36,2.35 -155.9,2.21 -8.92,-0.05 -17.52,0.18 -26.38,-0.67 -6.15,-0.6 -18.88,-2.51 -24.22,-2.08l-1.02 46.02c22.51,2.65 203.25,-2.99 205.86,-0.93 3.29,2.6 5.58,23.35 23.86,39.14 4.95,4.28 9.64,5.79 12.77,11.31z"/>
   <path class="fil1 str1" d="M1228.21 1031.63c9.79,4.55 36.36,38.62 47.03,48.77 8.28,7.88 46.47,40.09 48.64,48.03 3.31,12.08 -3.14,33.28 34.27,59.92 9.19,6.56 20.3,12.91 31.29,16.44 16.15,5.17 29.1,-1.65 43.83,-3.07 6.14,-2.09 9.97,-6.45 13.81,-7.32 -1.98,0.59 -2.51,0.82 -4.94,1.71l-6.77 2.22c1.65,-7.09 0.49,-3.93 6.27,-8.58 -0.18,-1.47 -1.36,-7.11 -1.8,-8.23 -2.67,-6.84 -2.1,-2.78 -3.7,-5.12 -4.8,-7.04 0.08,-10.48 1.18,-13.48 -4.97,-2.46 -13.57,5.25 -22.01,6.72 -6.65,1.15 -26.44,3.19 -26.3,-5.86 -6.61,-5.96 -18.65,-12.28 -22.34,-22.68 -8.37,-23.65 16.45,-50.46 45.67,-46.83 17.09,2.12 18.19,12.32 27.47,18.75 5.95,1.76 5.58,2.14 8.73,18.25 7.67,-0.62 0.78,-0.14 7.7,-3.22l5.23 6.19c3.33,-6.68 4.68,-8.4 5.16,-16.55 5.85,-2.83 -0.53,2.47 5.78,-1.23 -1.07,-8.61 -4.08,-11.87 -3.36,-19.29 1.56,-7.25 -13.84,-22.26 -19.89,-26.88 -19.13,-14.61 -53.93,-17.51 -77.03,-6.07 -7.54,3.74 -23.96,19.07 -28.98,20.08 -6.61,-1.32 -27.04,-24.7 -31,-30.37 -6.65,-9.53 -26.21,-25.2 -30.02,-34.46l-55.42 -51.36c-23.81,-26.42 -21.3,-12.3 -33.66,-2.12 -4.05,3.34 -9.5,8.54 -11.32,13.45 3.12,12.52 42.85,41.64 46.48,52.19z"/>
   <path class="fil1 str1" d="M1243.73 1283.12c-15.26,41.33 -81.95,15.15 -63.36,-20.06 3.54,-6.7 10.33,-11.55 15.99,-15.46 23.91,-16.52 57.88,7.05 47.37,35.52zm-89.28 -57.13c-2.16,7.37 -6.84,10.94 -9.73,17.78 -2.53,6 -4.39,14.62 -4.81,21.24 -1.52,24.49 2.74,24.66 8.51,44.43 7.61,5.74 11.28,21.58 43.27,36.26 12.66,5.82 48.85,-0.47 65.14,-15.16 9.71,-8.76 19.41,-20.27 21.96,-32.29 2.33,-31.73 7.69,-60.71 -25.41,-87.68 -16.26,-13.25 -19.54,-7.65 -25.16,-16.16l-32.44 0.48c-17.04,-18.04 -35.78,-34.35 -52.83,-52.85 -8.47,-9.18 -18.55,-16.38 -26.63,-25.86 -5.77,-6.76 -19.85,-23.44 -28.88,-24.22 -0.88,16.01 0.75,9.62 -9.25,19.31 -17.68,17.15 19.72,43.12 26.73,50.8 9.54,10.45 17.59,20.74 26.84,30.31 7.95,8.22 24.99,19.62 25.42,32.25l-2.73 1.36z"/>
   <path class="fil1 str1" d="M395.8 202.5c19.01,-3.85 41.36,12.01 42.23,32.68 0.92,22.2 -12.65,40.79 -34.37,45.01 -38.14,7.41 -60.65,-38.59 -34.77,-65.03 13.98,-14.3 19.14,-11.09 26.91,-12.66zm23.55 115.9c2.17,0.67 24.08,25.22 24.48,27.48 7.55,2.54 33.16,27.41 37.18,35.98 13.28,28.31 21.28,-1.62 30.39,-6.76 2.49,-8.54 9.52,-9.71 10.17,-19.87 -7.88,-7.71 -38.37,-34.21 -41.21,-41.91 -5.17,-0.53 -9.03,-6.31 -12.41,-10 -3.76,-4.11 -8.83,-8.15 -11.68,-12.41 0.56,-3.61 10.95,-24.58 13.3,-25.72 1.46,-11.57 4.61,-14.7 3.6,-28.54 -0.6,-8.32 -3.62,-17.49 -6.4,-25.22 -3.68,-10.21 -17.47,-28.69 -27.14,-34.63 -27.19,-16.73 -68.85,-15.65 -92.98,11.68 -9.18,10.41 -19.54,26.24 -21.97,39.79 -7.54,42.01 11.53,63.09 40.62,81.53 8.97,5.68 12.12,6.9 23.49,6.87 5.01,-0.01 10.08,-0.14 15.07,-0.5 15.08,-1.09 11.98,-1.7 15.49,2.23z"/>
   <path class="fil1 str1" d="M405.14 1243.59c33.84,-11.32 74.81,38.31 28.02,59.77 -18.04,8.28 -35.68,-3.44 -43.55,-18.2 -10.46,-19.62 3.31,-37.48 15.53,-41.57zm46.13 -54.56c-6.25,22.19 -23.47,0.87 -53.24,9.78 -12.35,3.7 -23.18,11.3 -30.35,21.04 -28.4,38.53 -24.96,76 10.67,106.79 12.2,10.55 18.5,9.74 27.63,11.98 14.65,3.59 35,9.94 53.29,-3.26 8.82,-6.36 11.87,-12.24 17.32,-21.29 4.04,-6.73 1.6,-4.75 7.24,-6.32 5.77,-7.59 10.52,-28.48 9.7,-42.66 -1.12,-19.24 -15.53,-28.28 -16.59,-37.54 0.92,-6.89 42.27,-45.3 45.67,-53 1.4,-11.74 10.32,-9.7 12.02,-20.73 -5.01,0.85 -6.02,2.18 -9.04,6 -5.53,-9.26 -0.4,-1.62 -8.8,-5.99 0.59,-4.75 0.06,-3.07 3.29,-6.02 -4.73,-2.94 -10.31,-2.04 -4.31,-11.36 4.38,-6.79 7.64,-1.02 8.54,-11.58 -9.16,0.24 -14.84,9.04 -20.1,15.01l-35.39 33.82c-5.79,5.81 -11.07,15.39 -17.55,15.33z"/>
   <path class="fil1 str1" d="M1113.26 361.42c7.66,3.29 19.44,32.79 20.41,33.41 13.01,8.38 72.13,-62.46 76.46,-70.13 4.01,-5.91 6.13,-4.25 14.21,-4.14 9.32,0.13 33.62,-1.45 38.32,-8.67 -3.96,-8.94 -1.03,-0.26 -7.39,-5.54 -8.08,-6.7 -2.15,-22.48 -2.07,-23.43 -14.87,-0.37 -14.96,5.63 -32.53,-1.6 -9.55,-3.93 -18.51,-7.86 -20.32,-17.97l-2.67 -8.69c-8.94,-3.41 -11.06,-20.07 5.01,-35.38 23.04,-21.96 72.29,-4.72 70.2,32.44 -1.02,18.1 -7.87,8.36 -3.67,17.1 8.59,-4.18 -3.31,0.48 11.98,-9.89 5.37,-3.65 8.39,-5.11 15.25,-5.81 0.18,-1.61 0.36,-4.03 0.74,-5.51 1.92,-7.49 2.22,-0.3 2.84,-13.93 1.25,-27.8 -15.2,-27.94 -20.84,-45.6 -8.49,-14.38 -65.14,-34.03 -102.42,12.93 -7.46,9.41 -13.39,21.46 -15.64,34.71 -8.44,49.82 36.26,40.74 4.55,71.47 -21.74,21.06 -29.45,30.98 -53.07,48.13l0.65 6.1z"/>
   <path class="fil1 str1" d="M251.68 469.14c9.92,12.24 23.44,15.22 19.39,37.76 -2.93,16.34 -18.39,25.38 -34.87,20.55 -13.45,-3.94 -22.3,-19.35 -19.35,-36.23 3.53,-20.17 17.4,-22.11 35.21,-21.04 -3.31,-3.45 0.21,-2.54 -7.51,-3.96 -6.58,-1.21 -13.16,1.85 -22.79,0.69 0.09,-10.42 3.25,-2.02 3.4,-9.39 0.08,-4.19 -1.74,-1.77 -6.77,-5.81l1.58 -6.25c0,-0.16 -0.05,-0.61 -0.05,-0.76l-1.38 -7.66c13.63,-8.93 31.37,-9.54 47.28,-4.79 11.32,3.39 28.18,17.15 28.13,30.59l-6.56 -2.96c-0.44,6.68 -1.15,11.62 -1.71,17.53 -4.49,2.68 -3,1.63 -8.92,2.02 0.42,7.95 1.08,3.19 -1.77,8.04 -7.62,-3.97 -4.36,-5.82 -9.79,-11.42 -4.66,-4.8 -7.99,-6.55 -13.52,-6.91zm29.72 82.79l15.64 -15.19c5.69,-10.73 13.79,-8.5 25.57,-9.58 12.02,-1.09 22.32,-1.33 34.66,-1.3 16.13,0.03 55.87,4.37 66.91,-5.73 2.2,-7.98 3.24,-25.19 -3.73,-30.98 -5.51,-4.57 -25.42,-4.92 -33.12,-5.1 -99.56,-2.35 -62.53,8.99 -92.72,-36.13 -5.15,-7.7 -23.73,-19.97 -33.6,-21.44 -25.12,-3.75 -45.55,2.67 -63.38,18.74l-9.54 11.78c-10.29,15.14 -14.39,31.48 -9.63,51.1 6.23,25.71 16.49,33.14 36.11,47.33 5.67,4.1 14.15,7 20.91,8.15 8.21,1.39 17.94,0.47 25.53,-1.96 8.9,-2.85 13.44,-6.87 20.39,-9.69z"/>
   <path class="fil1 str1" d="M1379.36 916.21l-9.99 -3.73c-17.03,-5.51 -12.44,-28.32 -3.67,-39.7 6.2,-8.06 7.53,-9.3 17.52,-11.05 40.63,-7.12 43.35,34.81 37.94,42.52 -7.62,10.86 -30.54,24.44 -41.8,11.96zm-137.41 -51.09c9.67,-4.1 16.13,-3.16 27.71,-1.56l2.42 11.31c1.67,5.37 0.75,6.71 1.19,12.87 0.92,12.98 8.26,4.93 16.57,10.17 -3.42,6.03 -14.94,3.21 -21.87,3.28 -8.98,0.09 -16.77,2.24 -25.45,0.82 -4.55,-11.37 3.27,-25.32 0.37,-37.05 -4.36,6.7 -3.74,30.32 -4.18,39.79 16.65,-1.48 78.57,-2.71 93.43,0.07 1.38,4.82 -2.49,23.25 22.61,40.12 22.32,15 18.21,15.75 48.47,15.79 16.73,-1.22 38.2,-20.34 46.34,-34.1l8.26 -19.01c0.69,-26.82 2.82,-43.29 -22.18,-67.34 -14.43,-13.89 -46.39,-21.31 -70.96,-12.01 -25.01,9.47 -28.22,27.06 -32.03,28.92 -3.36,1.64 -72.33,-1.37 -83.37,1.31 -7.06,1.71 -5.89,1.62 -7.33,6.62z"/>
   <path class="fil1 str1" d="M810.27 43.02c17.57,-6.34 39.48,4.04 46.88,21.16 3.8,8.79 4.22,20.96 -2.2,29.81 -7.38,10.15 -7.49,11.98 -19.78,16.46 -35.79,13.05 -57.77,-20.35 -44.29,-50.36 5.07,-11.3 8.38,-13.09 19.39,-17.07zm85.37 57.33l-0.33 -8.07c1.28,-31.89 0.26,-33.45 -14.52,-59.05 -7.31,-12.65 -28.89,-25.2 -43.09,-29.44 -63.08,-18.8 -111.1,64.18 -75.97,115.29 7.59,11.03 11.12,27.32 40.09,32.26 37.3,6.35 56.6,-0.31 78.78,-27.12 7.76,-9.38 7.78,-14.92 11.46,-20.06 2.62,-3.65 0.48,-1.26 3.58,-3.81z"/>
   <path class="fil1 str1" d="M270.1 874.53c4.21,6.92 6.63,19.06 3.56,27.45 -1.22,3.34 -10.73,15.51 -14.84,18.78 -11.15,19.23 -50.21,-1.86 -44.43,-34.27 4.82,-27.08 46.87,-38.21 55.71,-11.96zm-10.52 86.39c19.22,0.07 40.37,-13.35 42.09,-32.48 0.09,-4.62 4.29,-18.17 6.01,-22.28 4.22,-10.07 9.78,-5.81 19.14,-7.73l-2.56 -1.83c-5.84,-3.34 -8.96,-2.07 -10.6,-3.62 -4.53,-5.93 2.89,3.14 -0.88,-5.73 -4.35,-10.23 -4.75,7.28 -4.84,-23.67 -5.34,-4.6 -23.34,-22.08 -24.3,-26.66 -24.29,-19.89 -64.9,-13.69 -89.77,12.07 -6.19,6.42 -13.18,17.75 -14.91,26.6 -4.85,24.8 -0.16,46.67 16.61,64.11 23.44,24.38 40.47,21.32 64.01,21.22z"/>
   <path class="fil1 str1" d="M665.35 446.21c-0.42,1.47 -60.63,49.29 -69.83,60.5 -12.77,15.55 -11.29,9.6 -26.9,34.74 -15.1,24.3 -21.14,32.05 -35.89,60.12 -9.14,17.39 -24.34,55.48 -21.48,75.36 6.06,7.48 23.11,7.99 32.27,7.32 3.64,-6.89 3.8,-26.11 7.64,-35.73 1.89,-4.71 5.56,-9.69 7.56,-14.64 2.37,-5.9 3.87,-10.74 6.46,-16.52 7.77,-17.31 22.46,-39.46 34.83,-53.66 6.63,-7.61 12.54,-17.41 19.44,-24.16l22.79 -22.29c6.72,-6.02 43.49,-35.06 50.25,-37.05 4.41,-7.8 11,-10.33 4.2,-22.18 -2.07,-3.59 -8.98,-11.19 -11.9,-14.99 -9.93,-1.69 -10.86,1.11 -19.44,3.18z"/>
   <path class="fil1 str1" d="M1378.72 465.98c12.24,-5.59 28.77,1.98 34.68,20.35 2.81,8.75 2.71,17.13 -2.92,23.74 -25.64,30.17 -54.7,0.38 -56.46,-8.92 -2.07,-10.9 1.32,-15.31 7.15,-22.44 10.63,-12.99 12.27,-10.31 17.55,-12.73zm-12.14 -38.83c-2.74,5.32 -4.34,4.33 -10.32,7.82 -38.04,22.24 -32.16,45.13 -31.55,75.4l-5.83 5.47c7.79,1.57 9.7,-1.09 12.41,6.29 7.37,20.07 7.93,12.05 25.19,25.94 16.96,13.64 43.28,9.3 54.92,9.76 5.09,0.74 6.47,0.23 10.83,-3.02 3.48,-2.59 6.06,-4.22 9.65,-6.83 5.08,-3.7 10.67,-11.31 14.89,-16.66 2.94,-12.93 9.06,-32.48 6.39,-44.89 -6.77,-31.46 -30.72,-61.61 -64.96,-61.91 -5.52,-0.04 -17.87,0.92 -21.62,2.63z"/>
   <path class="fil1 str1" d="M1224.38 518.78c9.91,7.54 11.75,4.68 21.95,7.07 3.05,-2.65 -0.21,-0.8 3.79,-2.04 2.35,-0.73 3.25,-0.68 5.71,-0.89 2.92,-0.24 6.31,-0.46 9.23,-0.66 11.71,-0.8 55.54,-1.49 62.91,0.21 5.29,10.19 -1.6,7.7 10.47,18.09 2.74,2.36 16.14,12.09 16.28,12.3 7.48,1.94 15.79,6.67 23.8,9.19 12.29,3.87 16.54,0.52 28.73,0.12l4.15 -4.34c-11.64,-0.46 -37.96,3.88 -54.92,-9.76 -17.26,-13.89 -17.82,-5.87 -25.19,-25.94 -2.71,-7.38 -4.62,-4.72 -12.41,-6.29l5.83 -5.47c-0.61,-30.27 -6.49,-53.16 31.55,-75.4 5.98,-3.49 7.58,-2.5 10.32,-7.82 -35.01,8.41 -47.13,49.08 -49.95,50.65 -10.47,3.94 -45.69,0.4 -59.87,2.12 -9.43,1.14 -18.52,1.24 -27.78,2.66 -8.19,1.26 -16.58,3.68 -22.03,8.19 1.13,5.2 14.56,22 17.43,28.01z"/>
   <path class="fil1 str1" d="M301.67 928.44c8.05,-5.1 5.55,-15.35 11.95,-24.49l19.61 0.31c15.81,-0.4 81.22,4.19 90.17,-3.07 3.37,-8.24 -1.81,-37.35 -8.38,-42.74 -3.31,-1.24 -63.16,2.61 -74.29,2.5 -50.73,-0.48 -33.94,-13.88 -57.09,-24.03 0.96,4.58 18.96,22.06 24.3,26.66 0.09,30.95 0.49,13.44 4.84,23.67 3.77,8.87 -3.65,-0.2 0.88,5.73 1.64,1.55 4.76,0.28 10.6,3.62l2.56 1.83c-9.36,1.92 -14.92,-2.34 -19.14,7.73 -1.72,4.11 -5.92,17.66 -6.01,22.28z"/>
   <path class="fil1 str1" d="M799.66 616.46c-5.29,6.79 -2.56,21.65 -2.93,30.6 -0.4,9.66 -0.93,18.84 -1.06,28.61l0.47 180.43c0.37,26.45 2.84,230.42 -3.36,239.79 4.39,12.38 -4.02,35.12 2.4,46.69 5.6,1.74 40.75,1.49 45.85,-0.92 6.38,-6.31 2.9,-426.09 2.93,-506.59 0.01,-27.91 -2.53,-17.73 -3.91,-29.7 7.37,-4.65 10.83,0.22 16.63,-8.61 -4.86,0.5 -17.29,3.86 -20.65,7.25 0.51,10.46 4.26,15.39 4.19,28.05 -0.38,70.72 3.03,491.96 -2.66,507.38 -6.23,1.06 -35.26,1.96 -40.27,0.03 -2.77,-16.29 1.37,-43.21 1.84,-60.8 3.46,-129.96 -1.19,-265.66 -0.05,-395.48 0.15,-16.42 3.27,-53.05 0.58,-66.73z"/>
   <path class="fil1 str1" d="M1197.68 254.66c-0.91,-11.5 -5.73,-17.42 3.17,-26.57 40.67,-41.81 97.95,19.93 47.46,49.07 -9.18,5.31 -17.79,4.24 -27.16,0.33 -9.32,-3.88 -13.31,-10.65 -20.8,-14.14 1.81,10.11 10.77,14.04 20.32,17.97 17.57,7.23 17.66,1.23 32.53,1.6 -0.08,0.95 -6.01,16.73 2.07,23.43 6.36,5.28 3.43,-3.4 7.39,5.54 -4.7,7.22 -29,8.8 -38.32,8.67 -8.08,-0.11 -10.2,-1.77 -14.21,4.14 21.47,-1.19 29.72,-0.25 50.26,-6.42 19.63,-5.89 19.91,-11.34 32.87,-23.02 1.75,-11.07 8.84,-15.11 11.58,-26.21 2.17,-8.77 3.28,-24.79 2.53,-33.97 -1.17,-14.16 -14.68,-42.82 -28.18,-47 5.64,17.66 22.09,17.8 20.84,45.6 -0.62,13.63 -0.92,6.44 -2.84,13.93 -0.38,1.48 -0.56,3.9 -0.74,5.51 -6.86,0.7 -9.88,2.16 -15.25,5.81 -15.29,10.37 -3.39,5.71 -11.98,9.89 -4.2,-8.74 2.65,1 3.67,-17.1 2.09,-37.16 -47.16,-54.4 -70.2,-32.44 -16.07,15.31 -13.95,31.97 -5.01,35.38z"/>
   <path class="fil1 str1" d="M451.27 1189.03c6.48,0.06 11.76,-9.52 17.55,-15.33l35.39 -33.82c5.26,-5.97 10.94,-14.77 20.1,-15.01 -0.9,10.56 -4.16,4.79 -8.54,11.58 -6,9.32 -0.42,8.42 4.31,11.36 -3.23,2.95 -2.7,1.27 -3.29,6.02 8.4,4.37 3.27,-3.27 8.8,5.99 3.02,-3.82 4.03,-5.15 9.04,-6 -1.7,11.03 -10.62,8.99 -12.02,20.73 9.06,-4.95 27.12,-29.89 33.67,-39.69 5.63,-8.42 12.26,-13.14 11.47,-24.49 -0.55,-7.81 -5.02,-24.24 -5.12,-29.14 -14.32,-4.33 -1.94,3.24 -29.86,27.14 -14.49,12.4 -78.55,71.94 -81.5,80.66z"/>
   <path class="fil1 str1" d="M252.06 470.18l-0.38 -1.04c5.53,0.36 8.86,2.11 13.52,6.91 5.43,5.6 2.17,7.45 9.79,11.42 2.85,-4.85 2.19,-0.09 1.77,-8.04 5.92,-0.39 4.43,0.66 8.92,-2.02 0.56,-5.91 1.27,-10.85 1.71,-17.53l6.56 2.96c0.05,-13.44 -16.81,-27.2 -28.13,-30.59 -15.91,-4.75 -33.65,-4.14 -47.28,4.79l1.38 7.66c0,0.15 0.05,0.6 0.05,0.76l-1.58 6.25c5.03,4.04 6.85,1.62 6.77,5.81 -0.15,7.37 -3.31,-1.03 -3.4,9.39 9.63,1.16 16.21,-1.9 22.79,-0.69 7.72,1.42 4.2,0.51 7.51,3.96z"/>
   <path class="fil1 str1" d="M1439.81 1113.02c2.45,10.48 5.63,12.24 2.19,24.01 -2.11,7.24 -4.68,12.4 -9.37,17.57 -13.34,14.72 -25.19,13.08 -43.62,9.18 -0.14,9.05 19.65,7.01 26.3,5.86 8.44,-1.47 17.04,-9.18 22.01,-6.72 -1.1,3 -5.98,6.44 -1.18,13.48 1.6,2.34 1.03,-1.72 3.7,5.12 0.44,1.12 1.62,6.76 1.8,8.23 -5.78,4.65 -4.62,1.49 -6.27,8.58l6.77 -2.22c2.43,-0.89 2.96,-1.12 4.94,-1.71 2.47,-3.86 9.9,-11.11 14,-11.45 2.28,-6.42 7.38,-10.46 10.36,-18.2 2.29,-5.95 4.9,-14.57 6.18,-20.73 2.85,-13.67 2.66,-38.19 -8.57,-46.85 -0.72,7.42 2.29,10.68 3.36,19.29 -6.31,3.7 0.07,-1.6 -5.78,1.23 -0.48,8.15 -1.83,9.87 -5.16,16.55l-5.23 -6.19c-6.92,3.08 -0.03,2.6 -7.7,3.22 -3.15,-16.11 -2.78,-16.49 -8.73,-18.25z"/>
   <path class="fil1 str1" d="M801.35 183.14c-2.69,10.93 -4.33,51.25 -1.44,61.65 6.48,0.66 30.59,1.71 35.89,0.21 1.39,-9.37 0.34,-55.28 -3.61,-61.48 -6.11,-2.46 -24.14,-2.05 -30.84,-0.38z"/>
   <path class="fil1 str1" d="M893.77 869.24c-3.34,4.28 -2.63,8.45 -2.67,13.86 -0.25,36.47 -1.75,248.98 -0.05,258.55 6.67,2.54 37.89,2.24 44.74,0.08 2.92,-13.14 1.71,-197.43 2.25,-228.49 0.14,-8.69 -1.87,-28.39 4.24,-34.12 6.34,-5.94 16.24,-12.66 20.06,-20 -6.87,1.63 -16.44,12.65 -22.26,17.87 -8.42,7.56 -5.2,22.45 -5.36,33.24l-0.38 153.36c-0.25,17.95 1.77,60.97 -0.96,76.1l-39.79 0.68c-2.45,-16.97 0.28,-49.01 0.53,-67.75 0.4,-30.18 1.67,-197.11 -0.35,-203.38z"/>
   <path class="fil1 str1" d="M1241.95 865.12l0.94 -0.16c2.9,11.73 -4.92,25.68 -0.37,37.05 8.68,1.42 16.47,-0.73 25.45,-0.82 6.93,-0.07 18.45,2.75 21.87,-3.28 -8.31,-5.24 -15.65,2.81 -16.57,-10.17 -0.44,-6.16 0.48,-7.5 -1.19,-12.87l-2.42 -11.31c-11.58,-1.6 -18.04,-2.54 -27.71,1.56z"/>
   <path class="fil1 str1" d="M448.93 1344.48c13.95,-2.44 31.21,-23.77 34.9,-36.73 -5.64,1.57 -3.2,-0.41 -7.24,6.32 -5.45,9.05 -8.5,14.93 -17.32,21.29 -18.29,13.2 -38.64,6.85 -53.29,3.26 -9.13,-2.24 -15.43,-1.43 -27.63,-11.98 -35.63,-30.79 -39.07,-68.26 -10.67,-106.79 7.17,-9.74 18,-17.34 30.35,-21.04 29.77,-8.91 46.99,12.41 53.24,-9.78 -9.6,2.68 -1.85,7.85 -16.92,5.76 -20.54,-2.84 -37.83,-2.7 -55.5,10.74 -54.12,41.16 -38.96,119.81 25.5,138.09 19.58,5.55 25.53,3.08 44.58,0.86z"/>
   <path class="fil1 str1" d="M617.17 1009.47c2.83,9.31 11.48,14.37 16.73,25.5 4.63,9.79 6.21,21.24 9.02,31.53 5.33,19.49 8.3,52.16 6.24,72.64 -4.78,1.8 -39.28,3.84 -42.18,2.56 -9.48,-14.34 -0.77,-86.33 -19.62,-97.68 -8.87,-5.34 -9.88,-4.48 -17.99,-12.15l-46.29 -42.09c2.11,8.92 34.76,35.42 44.66,45.2 8.03,7.94 9.16,6.85 18.34,12.16 14.43,8.34 10.04,93.17 19.63,98.47 4.12,0.56 16.86,-1.77 23.57,-1.9 6.94,-0.14 17.05,1.3 21.78,-2.32 6.11,-11.57 -1.78,-60.11 -4.71,-74.62 -2.92,-14.49 -12.73,-50.82 -29.18,-57.3z"/>
   <path class="fil1 str1" d="M390.58 206.47c44.53,-13.49 64.87,54.31 13.86,68.65 -10.45,2.94 -21.36,0.4 -29,-5.56 -28.85,-22.49 -10.31,-55.38 15.14,-63.09zm5.22 -3.97c-7.77,1.57 -12.93,-1.64 -26.91,12.66 -25.88,26.44 -3.37,72.44 34.77,65.03 21.72,-4.22 35.29,-22.81 34.37,-45.01 -0.87,-20.67 -23.22,-36.53 -42.23,-32.68z"/>
   <path class="fil1 str1" d="M992.96 1045.21c-4.46,6.91 -13.98,86.66 -5.72,97.74l43.97 -0.41 10.02 -90.49c6.47,-5.73 9.39,-1.52 15.69,-11 -6.11,0.53 -12.14,4.33 -17.76,7.09 -1.88,13.7 -3.4,30.1 -5.87,43.22 -2.47,13.12 -1.03,37.23 -4.34,46.66 -11.37,1.67 -29.27,1.4 -39.69,1.55 -4.22,-36.89 6.58,-85.24 3.7,-94.36z"/>
   <path class="fil1 str1" d="M693.41 695.22c-4.23,20.29 -15.81,34.15 -38.65,31.41 -21.31,-2.55 -28.47,-22.58 -27.19,-42.01 3.18,-48.03 75.45,-35.53 65.84,10.6zm-41.89 -42.92c-24.24,6.35 -29.88,23.67 -26.49,48.69 3,22.15 26.26,33.48 47.52,28.05 16.23,-4.15 29.44,-31.39 25.1,-47.98 -5.38,-20.57 -24.99,-34.3 -46.13,-28.76z"/>
   <path class="fil1 str1" d="M1394.62 1099.49c49.21,-12.56 59.66,47.82 21.54,62.25 -18.02,6.82 -37.2,-4.64 -44.33,-20.09 -8.58,-18.6 5.39,-37.72 22.79,-42.16zm-5.61 64.29c18.43,3.9 30.28,5.54 43.62,-9.18 4.69,-5.17 7.26,-10.33 9.37,-17.57 3.44,-11.77 0.26,-13.53 -2.19,-24.01 -9.28,-6.43 -10.38,-16.63 -27.47,-18.75 -29.22,-3.63 -54.04,23.18 -45.67,46.83 3.69,10.4 15.73,16.72 22.34,22.68z"/>
   <path class="fil1 str1" d="M801.35 183.14c6.7,-1.67 24.73,-2.08 30.84,0.38 3.95,6.2 5,52.11 3.61,61.48 -5.3,1.5 -29.41,0.45 -35.89,-0.21 -2.89,-10.4 -1.25,-50.72 1.44,-61.65zm22.64 67.54c8.44,-2.37 14.21,3.38 15.62,-6.45 0.72,-5.03 0.04,-15.59 -0.05,-21.14 -0.21,-13.15 -1.95,-27.02 -2.09,-38.92 -7.02,-7.15 -28.06,-6.68 -37.49,-3.5 -5.34,7.26 -7.8,59.98 -2.55,66.26 3.46,2.67 13.89,0.48 19.77,1.38 7.99,1.22 1.97,-1 6.79,2.37z"/>
   <path class="fil1 str1" d="M44.69 687.57c15.03,-7.9 12.05,-19.96 39.14,-19.19 34.42,0.98 40.28,49.06 15.26,67.88 -21.15,15.91 -28.51,-0.61 -43.88,-2.3 2.75,5.69 -1.81,1.58 5.18,5.96l17.18 6.17c10.96,1.29 15.93,-1.56 23.89,-7.23 34.44,-24.56 12.85,-94.61 -42.7,-68.29 -4.85,2.3 -12.71,10.7 -14.07,17z"/>
   <path class="fil1 str1" d="M1369.37 912.48c-5.34,-7.97 -8.47,-8.67 -7.47,-20.34 2.68,-31.39 37.39,-32.14 47.06,-23.73 9.19,7.99 15.07,26.59 7.86,37.25 -10.77,15.92 -31.21,10.43 -37.46,10.55 11.26,12.48 34.18,-1.1 41.8,-11.96 5.41,-7.71 2.69,-49.64 -37.94,-42.52 -9.99,1.75 -11.32,2.99 -17.52,11.05 -8.77,11.38 -13.36,34.19 3.67,39.7z"/>
   <path class="fil1 str1" d="M258.82 920.76c-12.98,1.78 -16.35,9.66 -30.52,-3.38 -21.28,-19.58 -10.34,-46.1 9.62,-52.89 17.39,-5.92 20.46,4.58 32.18,10.04 -8.84,-26.25 -50.89,-15.12 -55.71,11.96 -5.78,32.41 33.28,53.5 44.43,34.27z"/>
   <path class="fil1 str1" d="M195.59 1154.55c10.34,28.12 69.96,28.47 68.58,-12.82 -0.26,-8 -0.63,-10.52 -6.32,-14.98 1.06,10.39 6.94,17.15 1.29,28.07 -7.84,15.16 -27.12,19.51 -44.58,12.8 -13.08,-5.02 -9.56,-9.69 -18.97,-13.07z"/>
  </g>
 </g>
</svg>
