<?xml version="1.0" encoding="UTF-8"?>
<!DOCTYPE svg PUBLIC "-//W3C//DTD SVG 1.1//EN" "http://www.w3.org/Graphics/SVG/1.1/DTD/svg11.dtd">
<!-- Creator: CorelDRAW 2018 (64 Bit) -->
<svg xmlns="http://www.w3.org/2000/svg" xml:space="preserve" width="5947px" height="1704px" version="1.1" style="shape-rendering:geometricPrecision; text-rendering:geometricPrecision; image-rendering:optimizeQuality; fill-rule:evenodd; clip-rule:evenodd"
viewBox="0 0 5708.19 1635.54"
 xmlns:xlink="http://www.w3.org/1999/xlink">
 <defs>
  <style type="text/css">
   <![CDATA[
    .str1 {stroke:#4A6CF7;stroke-width:2.27;stroke-miterlimit:22.9256}
    .str0 {stroke:white;stroke-width:2.27;stroke-miterlimit:22.9256}
    .fil1 {fill:#4A6CF7}
    .fil0 {fill:white}
   ]]>
  </style>
 </defs>
 <g id="Capa_x0020_1">
  <metadata id="CorelCorpID_0Corel-Layer"/>
  <path class="fil0 str0" d="M2470.71 1262.87c5.07,-5.76 2.73,-62.85 2.73,-74.31 0,-13.94 4.05,-68.06 -2.74,-76 -4.13,-4.06 -0.73,-2.81 -8.71,-3.94l-179.02 0.21c-62.87,-0.6 -124.9,-1.44 -187.59,-2.16l-0.07 -136.81c53.38,-0.65 107.3,0.07 160.73,0.07 26.21,0 141.83,3.58 154.74,-3.71 2.96,-15.37 3.53,-133.1 -0.42,-145.71l-316.07 -1.61 -0.44 -145.6c63.5,-1.76 130.55,0.25 194.89,0.12l144.27 0.04c15.29,0.05 33.98,3.82 39.77,-8.56 2.14,-20.1 2.44,-128.29 -2.08,-141.68 -19.12,-5.16 -107.55,-1.79 -133.87,-1.79l-273.15 0.09c-31.81,0.02 -108.3,-3.4 -135.2,2.35 -7.36,18.3 -2.66,277.78 -2.75,320.07 -0.22,107.78 0.2,215.64 0.15,323.44 -0.01,26.32 -0.14,52.67 -0.1,78.98 0.04,25.02 3.75,19.4 62.89,19.37l444.34 -0.08c10.21,-0.01 31.15,2.93 37.7,-2.78zm2902.15 -437.22c11.72,-1 15.87,-4.03 28.77,-4.54 40.42,-1.63 70.27,-1.09 100.87,23.3 45.94,36.62 61.92,103.55 51.58,160.89 -2.85,15.85 -10.09,31.51 -16.47,45.11 -11.29,24.11 -38.21,47.48 -63.04,58.28 -47.11,20.5 -102.65,10.87 -141.63,-21.28 -13.88,-11.45 -33.42,-36.43 -38.52,-53.7 -2.6,-8.8 -2.59,-5.11 -4.78,-10.51 -11.56,-28.49 -8.13,-66.7 -2.63,-97.05 3.84,-21.19 3.91,-12.49 6.6,-22.79 3.64,-8.08 8.59,-15.49 13.66,-23.57 6.39,-10.19 10.12,-13.9 18.19,-22.22 13.78,-14.23 26.28,-25.4 47.4,-31.92zm-1918.44 295.27c-39.03,1.89 -79.19,-43.02 -87.13,-66.17 -1.58,-4.62 -1.32,-9.44 -2.02,-14.24 -0.91,-6.23 -1.92,-7.08 -3.17,-12.03 -7.14,-28.32 2.65,-259.32 -2.77,-310.87 -14.76,-2.94 -134.43,-3.28 -142.17,0.46 -8.24,5.14 -5.43,25.78 -5.43,41.17 -0.02,49.04 -3.62,240.79 2.64,270.54 3.78,17.94 1.8,52.53 19.15,89.1 3.09,6.5 3.82,10.04 6.7,16.47 5.01,11.17 19.5,34.46 28.65,44.42l10.43 12.7c9.03,9.07 43.38,36.41 55.96,40.5 8.66,2.82 22.9,12.53 33.08,14.93 20.55,4.85 6.22,3.87 18.81,6.24 15.52,2.91 28.72,8.14 40.36,5.69 7.71,5.45 18.85,3.83 28.82,3.81 57.23,-0.13 96.79,-5.33 146.8,-36 6.99,-4.29 9.92,-9.95 19.75,-9.53 1.31,56.66 -21.92,42.49 118.19,44.97 6.68,0.12 12.66,0.56 15.84,-2.81l1.71 -410.55c0.24,-20.15 4.93,-125.31 1.43,-132.84 -11.25,-7.58 -53.68,-3.32 -70.97,-3.3 -92.39,0.07 -79.34,-16.67 -79.38,66.83l-0.07 211.77c-0.39,43.67 -11.03,84.1 -43.99,104 -4.92,2.97 -1.72,0.04 -5.87,3.5 -12.38,10.29 -18.15,11.12 -36.74,17.48 -19.1,6.52 -45.58,3.79 -68.61,3.76zm-496.85 -376.48c-4.82,-10.46 -58.99,-32.86 -69.14,-34.71l-47.55 -6.74c-18.48,-0.38 -34.59,-0.15 -51.07,3 -8.67,1.65 -12.66,2.13 -22.02,3.33 -8.74,1.13 -48.05,17.92 -59.07,21.64 -22.55,7.63 -76.34,52.29 -88.19,71.45 -11.41,18.45 -19.32,21.82 -30.83,50l-11.42 29.12c-1.81,5.6 -2.69,5.05 -4.33,8.92 -2.39,5.66 -2.66,15.19 -4.86,22.35 -7.9,25.71 -8.25,97.19 -1.87,122.64l11.46 42.52c3,9.35 5.39,5.86 8.7,16.65 3.8,9.89 6.2,20.14 11.23,28.4 14.01,22.97 17.23,26.15 33.07,45.8l38.73 38.15c0.3,0.27 0.69,0.68 1,0.93 6.55,5.35 6.18,2.49 12.93,6.56l12.6 8.54c8.54,5.38 14.38,9.7 23.84,14.56 4.07,2.1 8.89,4.29 12.96,6.23 6.71,3.2 8.94,2.29 15.72,5.47 28.24,13.29 71.95,14.14 104.8,13.08 49.61,-1.61 53.26,-11.05 78.55,-20.31 12.11,-4.43 21.28,-11.55 31.99,-18.17l16.3 -14.23c8.47,-8.66 10.11,-17.37 29.41,-4.26l78.04 45.19c29.28,15.56 32.07,12.68 32.56,12.61 7.34,-1.05 5.34,-11.81 5.23,-22.62 -1.75,-174.02 0.11,-356.54 0.14,-531.36l0.3 -173.39c-0.19,-2.85 -0.03,-2.65 -0.76,-5.42 -0.97,-3.62 -0.68,-2.65 -2.05,-4.62 -8.54,-4.09 -134.94,-3.45 -144.81,0.44 -7.02,17.08 1.7,186.24 -2.46,224.64 -10.51,0.4 -8.12,-3.9 -19.13,-6.39zm-241.13 169.89c4.22,-2.51 5.99,-10.87 8.39,-15.03 12.49,-21.62 10.56,-16.65 22.45,-29.57 5,-5.44 20.46,-22.34 26.58,-25.11 4.45,-2.01 5.09,-1.62 9.45,-4.28 23.84,-14.51 26.05,-9.16 39.51,-12.48 29.13,-7.2 32.53,-2.01 58.3,1.19l27.69 10.26c2.4,0.96 6.97,3.26 9.27,4.39 23.39,11.49 37.65,33.51 52.1,51.72 1.64,10.08 16.59,35.74 16.56,79.42 -0.05,54.28 -9.74,75.96 -39.73,112.21l-32.78 24.69c-17.92,10.09 -31.67,14.34 -54.13,15.41 -40.51,1.92 -48.14,1.03 -78.82,-15.72 -24.56,-13.42 -31.79,-22.23 -47.67,-44.77 -13.48,-19.13 -24.36,-41.83 -25.57,-66.64 -3.3,-67.91 4.81,-54.24 8.4,-85.69zm2473.66 -105.56c-6.95,3.95 -5.36,2.68 -9.14,9.99l-19.02 36.83c-6.82,13.75 -14.37,41.73 -16.53,58.98 -5.1,40.82 -10.38,53.14 -0.86,99.18 4.02,19.43 -0.49,11.09 6.68,31.7 2.18,6.28 1.27,9.06 2.36,15.39 1.24,7.15 2.88,7.11 5.23,13.89 3.96,11.43 6.03,13.23 10.54,25.99 7.16,20.23 23.93,38.94 35.82,56.63 9.27,13.8 32.64,32.35 46.77,45.83 9.84,9.39 46.42,27.65 58.91,33.43 38.31,17.74 106.47,24.9 145.16,14.89 30.73,-7.95 74.01,-29.81 95.57,-52.09 17.24,-17.8 7.56,-7.24 46.89,13.15 9.96,5.17 31.46,19.87 46.44,26.75 74.81,34.32 60.5,9.05 60.65,-30.15l0.24 -323.43c0.08,-42.04 3.73,-356.32 -1.87,-367.71 -4.07,-4.37 -140.95,-3.35 -148.72,-0.34 -5.91,14.24 0,191.17 -1.58,225.63 -9.42,0.33 -24.9,-10.57 -36.16,-17.71 -5.49,-3.48 -9.46,-6.4 -17.22,-9.7 -8.93,-3.8 -8.43,-6.52 -21.6,-7.62 -9.03,-7.47 -25.16,-6.92 -39.15,-10.71 -21.25,-5.75 -73.97,-2.96 -94.18,4.53 -6.81,2.52 -13.06,4.2 -20.24,6.5 -32.77,10.52 -74.32,32.06 -99,57.26 -9.55,9.76 -35.79,32.97 -35.99,42.91zm-1259.32 -124.12l-9.38 11.4c-6.7,14.02 -12.94,23.91 -20.39,42.86 -2.93,7.45 -1.49,8.12 -5.42,15.75l-9.11 33.04c-12.64,62.17 -16.27,127.07 0.81,189.56l5.95 25.53c0.49,2.66 0.63,2.71 1.19,4.11 0.15,0.37 0.44,0.84 0.6,1.2l37.76 71.46 27.48 35.6c3.55,5.97 4.73,7.99 8.57,12.89l41.11 43.64c23.79,21.39 49.18,32.16 75,50.02 4.9,3.39 36.79,16.44 45.38,17.66l50.59 12.84c18.62,3.4 61.57,3.48 82.05,3.17 48.29,-0.71 67.16,-6.3 108.84,-16.57 29.33,-7.23 65.92,-29.4 92.04,-44.67 3.57,-2.09 38.84,-30.07 39.02,-36.96 0.14,-5.11 -16.95,-24.56 -21.47,-29.99 -8.56,-10.3 -12.58,-18.3 -20.77,-29.19l-39.93 -60.62c-7.73,1.76 -37.75,28.36 -47.13,34.05 -4.78,2.9 -8.52,3.71 -13.05,6.37 -48.42,28.55 -96.88,30.37 -152.97,21.04 -4.95,-0.82 -11.34,-1.81 -15.71,-3.43 -15.25,-5.65 -21.75,-10.89 -27.21,-12.26 -9.82,-2.45 -7.74,-2.73 -15.4,-6.33 -22.05,-10.37 -41.68,-24.36 -58.5,-41.83 -21.96,-22.83 -27.22,-33.17 -42.56,-59.49 -3.06,-5.26 -4.33,-6.5 -6.42,-12.55l-17.45 -48.03c4.53,-10.14 1.17,-31.75 1.3,-44.62 0.22,-23.74 6.06,-54.58 15.47,-76.22 3.54,-8.14 2.95,-1.02 7.43,-15.87l4.57 -8.09c0.35,-0.42 1.45,-1.64 1.81,-2.09 17.47,-21.99 12.86,-27.59 31.65,-43.33l67.22 -48.31c14.23,-8.78 58.51,-17.79 70.82,-21.47 18.64,-5.57 67.17,-0.63 84.75,3.59 6.28,1.5 11.88,3.42 17.94,5.26l33.17 13.1 47.49 33.05c3.52,3.69 1.36,2.1 5.44,6 0.29,0.27 0.73,0.63 1.02,0.9l12.09 10.43c8.1,-2.87 74.22,-70.69 83.8,-79.12 14.41,-12.68 34.23,-22.01 26.53,-32.43 -1.4,-1.89 -2.22,-2.66 -3.83,-4.18 -2.46,-2.33 -4.58,-3.97 -7.32,-6.15 -15.89,-12.66 -47.81,-36.12 -66,-45.66 -6.91,-3.62 -12.08,-6.14 -19.02,-9.83l-19.95 -9.18c-15.77,-4.98 -12.8,-6.44 -20.02,-8.6l-29.3 -10.73c-21.52,-9.52 -18.47,-2.64 -35.77,-6.87 -8.65,-2.11 -12.89,-4.55 -22.74,-5.4 -22.99,-1.98 -111.91,-4.05 -133.45,2.7l-22.46 5.98c-8.44,1.74 -13.63,4.09 -21.18,5.87 -22.59,5.34 -84.9,33.9 -103.84,51.8 -12.98,12.26 -30.31,21.09 -53.18,45.08 -9.44,9.89 -18.08,19.39 -25.99,29.85 -7.06,9.32 -22.03,24.17 -21.97,34.27zm974.51 177.99c2.62,8.92 7.86,12.43 12.43,20.4 8.9,15.52 20.66,50.12 22.22,66.24 3.41,35.03 0.9,50.13 -10.68,79.45 -9.57,24.24 -15.41,36.32 -34.54,54.19 -12.14,11.35 -18.08,17.41 -34.65,24.29 -32.6,13.53 -90.45,17.7 -121.27,-0.94 -6.9,-4.17 -11.17,-6.8 -16.89,-11.88 -12,-10.63 -18.96,-13.1 -30.54,-29.22l-5.31 -8.26c-0.21,-0.39 -0.46,-0.89 -0.68,-1.29l-7.89 -15.06c-4.59,-7.1 -11.33,-30.83 -12.3,-38.49 -4.14,-32.59 -7.45,-74.34 9.99,-104.11 36.54,-62.36 24.02,-40.18 71.09,-69.77 3.09,-1.94 1.46,-0.62 3.73,-2.92 3.05,0.41 52.06,-13.05 92.72,-1.94 12.49,3.41 41.18,19.1 49.99,27.06 4.73,4.29 7.73,8.16 12.58,12.25zm-365.34 -10.13c-4.95,4.35 -0.62,-0.05 -3.54,4.29 -5.71,8.52 -9.03,22.41 -11.4,31.39 -3.13,11.87 -5.45,31.56 -7.05,43.69 -5.88,44.61 -4,68.63 5.06,111.71 3.1,14.73 22.93,59.72 29.58,70.27 3.21,5.1 6.96,10.02 10.24,14.63 7.51,10.58 12.83,17.15 22.09,27.92 31.2,36.26 48.83,44.49 83.69,64.84l52.74 22.3 43.21 7.76c7.86,0.82 14.07,1.59 23.52,1.65 64.79,0.44 69.33,0.23 127.51,-21.49l18.4 -7.01c9.25,-2.6 1.07,0.15 8.02,-3.83l2.52 -1.43c20.23,-10.72 45.74,-32.26 60.95,-48.5 37.14,-39.66 43.95,-47.95 65.67,-95.78 2,-4.41 2.7,-4.2 4.07,-9.09l9.48 -39.21c3.28,-7.29 4.53,-8.25 5.59,-18.19 1.52,-14.36 0.58,-34.62 0.55,-49.54 -0.03,-16.59 -0.34,-31.8 -4.09,-45.43 -2.77,-10.09 -2.88,-23.35 -6.51,-29.55 -4.97,-8.47 -8.48,-15.38 -11.04,-27.45 -4.58,-21.64 -31.68,-58.83 -48.72,-76.26 -6.94,-7.1 -18.3,-19.97 -28.49,-23.3l-63.79 -38.47 -30.75 -11.53c-46.16,-9.5 -36.73,-12.72 -93.98,-12.77 -13.29,-0.02 -29.12,-0.49 -42.18,0.85 -6.19,0.63 -11.56,2.24 -17.26,3.78 -7.4,2 -11.88,1.14 -19.4,2.06 -14.36,1.77 -62.23,22.04 -75.47,30.35 -4.4,2.76 -10.05,4.48 -14.06,7.31 -8.71,6.15 -13.13,13.1 -22.81,19.1 -19.38,12 -73.16,77.84 -72.35,94.93z"/>
  <g id="_1228462343104">
   <path class="fil1 str1" d="M736.91 1563.12c-1.55,13.48 34,45.73 45.5,53.12 24.56,15.79 55.45,18.42 84.26,18.15 26.28,-0.25 61.11,-3.81 83.37,-18.84 16.38,-11.05 46.3,-40.19 44.33,-57.35 -21.68,-5.64 -100.84,1.59 -129.55,1.71 -21.29,0.09 -116.22,-4.79 -127.91,3.21z"/>
   <path class="fil1 str1" d="M1054.08 1409.41c9.5,-2.01 25.28,-18.87 26.33,-27.55 0.85,-7.03 -4.09,-14.98 -7.98,-19.78 -7.58,-9.34 -7.65,-6.49 -17.23,-9.43 -3.79,-6.25 -13.7,-3.85 -27.9,-3.63 -104.85,1.63 -209.96,0.46 -315.26,1.05 -11.79,0.07 -47.03,-3.54 -54.96,-1.5 -13.26,3.43 -25.98,19.89 -22.98,34.56 1.75,8.54 19.01,26.19 26.57,29.83 9.8,4.72 42,0.76 54.53,0.47 71.81,-1.65 157.03,-2.54 228.56,-1.31 18.51,0.31 36.52,1.16 55.16,1.17 12.18,0 47.7,4.34 55.16,-3.88zm-410.36 -119.41c8.25,18.32 26.07,17.81 43.1,17.76l299.49 0.04c58.87,0.08 76.69,9.25 93.12,-26.77 4.77,-10.45 4.66,-11.82 -2.34,-21.25 -16.09,-21.66 -19.19,-15.78 -75.01,-14.94 -19.96,0.3 -39.94,0.26 -59.9,0.42 -19.74,0.15 -36.96,2.14 -56.75,2.27 -19.94,0.14 -39.99,0.01 -59.93,-0.22 -31.33,-0.35 -156.84,-9.04 -172.16,2.82 -5.52,0.23 -16.04,9.07 -17.9,15.89 -2.52,9.26 1.16,19.73 8.28,23.98zm16.18 221.42c9.15,14.96 36.43,11.32 51.41,8.74 14.25,-2.46 45.33,-3.08 60.62,-3.08 8.22,-2.42 99.54,-1.01 121.47,-1.23 9.07,-0.09 10.02,-1.78 17.22,-2.24 6.31,-0.41 14.09,-0.22 20.52,-0.25 12.71,-0.07 30.2,-0.99 42.43,0.41 17.03,1.95 41.56,13.78 71.75,4.44 14.93,-4.62 18.47,-13.67 23.5,-15.44 3.19,-18.94 31.13,-57.59 -60,-48.13 -30.14,3.13 -242.74,1.08 -295.2,0.71 -9.51,-0.07 -53.04,-5.03 -55.48,4.68 -11.82,0.42 -16.75,16.51 -15.38,27.58 0.99,8.04 8.44,22.99 17.14,23.81z"/>
  </g>
  <g id="_1228462345472">
   <path class="fil0 str0" d="M549.7 436.83l0.45 0.62c-5.01,12.85 -49.55,48.3 -75.23,96.99l-25.63 59.83c-7.46,22.98 -14.41,43.91 -18.28,68.02 -10.67,66.61 -7.42,164.31 17.64,229.55 3.91,10.16 8.63,19.58 12.77,30.31 3.64,9.44 13.26,20.93 16.06,28.69 5.31,5.11 10.92,15.09 16.24,22.1 3.04,4.01 6.07,7.84 8.75,11.86 9.93,14.88 41.67,46.03 46.17,53.35l48.56 44.14c8.5,8.05 9.56,7.15 18.86,12.75 19.78,11.91 10.63,87.42 20.59,102.46 3.04,1.34 39.22,-0.8 44.23,-2.69 2.17,-21.48 -0.95,-55.75 -6.54,-76.19 -2.94,-10.79 -4.61,-22.81 -9.46,-33.07 -5.51,-11.68 -14.58,-16.99 -17.55,-26.74 -32.86,-33.44 -63.87,-61.4 -94.89,-97.37 -36.05,-41.82 -48.24,-80.2 -64.41,-131.18 -16.16,-50.98 -13.71,-122.07 -1.02,-172.83 12.95,-51.77 32.8,-89.2 63.84,-132.06 21.9,-30.23 67.03,-74.93 97.44,-96.5 40.88,-29.01 88.77,-49.79 138.49,-57.53 56.25,-8.77 122.32,-9.53 176.9,8.18 31.74,10.3 37.56,9.76 70.93,26.97 15.73,8.12 46.88,26.28 59.38,37.73 17.38,8.08 54.1,44.42 66.54,60.18 23.94,30.36 20.32,27.53 37.91,56.72 5.38,8.93 5.26,12.63 9.08,21.34 27.06,61.65 15.33,35.7 30.39,94.23 4.66,18.11 4.73,40.09 4.53,58.81l-3.73 58.19c-2.19,20.4 -7.42,32.11 -11.95,50.84 -4.51,18.63 -12.68,29.32 -17.94,45.24 -8.53,25.78 -30.79,55.76 -48.61,76.48 -45.77,53.22 -55.97,55.79 -93.57,94.08 -30.72,31.3 -15.38,19.51 -25.16,35.96 3.03,9.56 -8.31,60.28 -3.87,98.97 10.92,-0.15 29.69,0.12 41.62,-1.62 3.48,-9.89 1.96,-35.19 4.56,-48.94 2.59,-13.77 4.18,-30.97 6.16,-45.34 5.89,-2.9 12.21,-6.88 18.62,-7.44 37.11,-21.31 64.41,-63.09 91.39,-92.2 11.39,-12.3 43.81,-58.03 51.21,-71.64 5.83,-10.74 32.17,-77.85 34.35,-89.16 15.99,-83.13 13.9,-192.47 -22.31,-270.1 -3.46,-7.42 -5.75,-14.01 -8.78,-21.46 -3.88,-9.54 -7.87,-11.78 -11.62,-19.57 -14.67,-30.47 -31.29,-46.77 -51.95,-71.12 -8.61,-10.16 -22.02,-19.03 -31.17,-29.78 -10.58,-3.3 -46.37,-37.32 -60.96,-46.77l-51.03 -29.37c-5.77,-2.66 -13.35,-5.01 -19.01,-7.98 -56.71,-29.79 -114.66,-34.31 -177.93,-34.34 -52.77,-0.02 -46.22,1.44 -96.06,9.34 -18.72,2.97 -63.22,17.99 -78.78,28.42 -21.01,14.08 -46.31,24.26 -65.73,41.43 -9.69,8.57 -20.12,15.19 -29.64,23.9 -8.63,7.88 -20.52,21.2 -30.85,25.31z"/>
   <path class="fil0 str0" d="M855.66 506.74c18.5,-6.35 45.64,8.02 49.84,27.42 4.83,22.31 -7.64,46.05 -28.28,50.98 -53.9,12.88 -73.05,-60.73 -21.56,-78.4zm-59.93 91.55c2.63,1.51 9.18,12.87 16.42,18.12 6.39,4.63 16.7,9.44 21.27,13.15 12.74,4.02 3.51,7.16 5.32,17.03 2.82,14.35 -0.46,52.76 -0.61,69.99 -1.19,136.16 3.68,278.5 0.05,414.81 -0.49,18.44 -4.83,46.68 -1.93,63.76 5.26,2.03 35.71,1.09 42.24,-0.03 5.97,-16.17 2.39,-458 2.79,-532.18 0.07,-13.27 -3.86,-18.45 -4.39,-29.41 3.52,-3.56 16.56,-7.08 21.66,-7.6l3.63 0.75c2.5,-5.28 13.72,-13.52 18.9,-17.77 8.67,-7.1 9.35,-10.5 14.95,-18.44 30.81,-43.72 12.06,-103.25 -44.43,-127.27 -25.94,-11.03 -77.76,1.19 -96.12,30.93 -33.75,54.68 -2.68,84.49 0.25,104.16z"/>
   <path class="fil0 str0" d="M683.36 684.18c22.18,-5.81 42.74,8.59 48.39,30.16 4.55,17.4 -9.3,45.97 -26.33,50.33 -22.3,5.69 -46.7,-6.19 -49.85,-29.42 -3.55,-26.24 2.36,-44.41 27.79,-51.07zm-58 -5.92l-7.16 12.45c-3.75,23.25 -15.2,45.81 1.26,78.95 21.76,43.8 33.77,28.4 51.3,40.02 4.84,40.13 -18.79,34.22 32.19,91.04 6.51,7.25 16.13,14.32 19.65,22.83 9.26,2.58 6.18,16.35 6.18,26.43 0.01,30.04 -2,162.62 1.52,176.92 3.49,14.15 1.12,51.56 3.19,69.69 8.12,1.09 37.36,1.63 44.2,-0.91 2.64,-9.27 1.19,-202.08 1.05,-228.35 -0.26,-51.32 7.35,-49.19 -27.36,-86.67 -18.94,-20.45 -41.25,-47.42 -34.98,-77.8 20.03,-6.4 42.05,-24.79 51.08,-45.06 5.57,-12.52 7.28,-27.61 7.06,-41.22 -0.38,-22.45 -8.87,-27.88 -9.89,-38.93 -11.33,-5.73 -23.81,-41.36 -69.99,-40.77 -14.34,0.18 -31.4,4.79 -42.99,13.03 -11.5,8.18 -18.76,22.59 -26.31,28.35z"/>
   <path class="fil0 str0" d="M1021.4 685.22c29.97,-10.3 64.05,20.93 50.67,49.31 -3.4,7.21 -9.16,22.28 -20.97,27.74 -10.08,4.66 -23.61,1.08 -32.2,-4.19 -38.25,-23.5 -20.76,-64.85 2.5,-72.86zm-42.13 -34.51c-4.23,9.65 -18.4,16.89 -26.12,37.05 -2.95,7.69 -5.08,16.94 -5.74,25.8 -0.81,10.73 3.66,23.03 2.23,29.2 5.16,5.06 5.46,13.49 9.91,21.27 15.35,26.81 45.81,34.72 47.9,38.47 3.63,22.91 -13.26,46.9 -27.11,62.67l-42.89 46.55c2.12,6.57 0.78,181.67 0.36,213.32 -0.26,19.65 -3.12,53.26 -0.55,71.06l41.74 -0.72c2.86,-15.86 0.74,-60.99 1,-79.81l0.4 -160.86c0.16,-11.32 -3.21,-26.93 5.62,-34.86 6.11,-5.47 16.15,-17.03 23.35,-18.75 11.28,-10.93 24.92,-20.42 34.03,-32.83 15.22,-20.74 8.97,-32.49 10.22,-58.79 3.57,-2.27 25.25,-5.91 42.34,-22.62 10.88,-10.65 19.44,-28.54 21.53,-43.4l1.71 -0.08c0.74,-33.65 2.2,-54.72 -20.73,-79.08 -26.47,-28.12 -60.31,-38.19 -97.67,-24.44 -8.74,3.22 -13.81,8.67 -21.53,10.85z"/>
   <path class="fil0 str0" d="M46.87 721.17c1.43,-6.6 9.67,-15.41 14.76,-17.83 58.26,-27.6 80.91,45.87 44.78,71.62 -8.34,5.95 -13.55,8.94 -25.05,7.59l-18.02 -6.47c-7.33,-4.6 -2.55,-0.28 -5.43,-6.26 -4.45,-8.02 -11.39,-8.74 -15.35,-20.31 -3.41,-10 -0.95,-19.66 4.31,-28.34zm55.91 98.81c7.17,-4.43 28.83,-9.64 37.78,-24.14 4.43,-7.16 8.16,-9.88 12.24,-19.26 2.06,-4.73 8.44,-18.12 11.52,-21.42 10.69,2.38 8.32,4.07 22.81,4.23 10.06,0.11 18.79,0.4 28.59,1.09 20.34,1.44 92.49,0.46 118.02,0.41 14.88,-0.02 46.23,-2.94 58.25,-1 4.28,-9.43 -0.08,-12.09 -0.88,-21.32 -2.84,-32.84 20.26,-24.67 -115.69,-24.87 -18.91,-0.03 -37.83,-0.22 -56.74,-0.16 -77.98,0.21 -48.77,8.87 -66.89,-18.43 -4.97,-7.49 -6.96,-10.17 -13.58,-16.28 -13.95,-12.87 -18.92,-17.79 -39.48,-20.16 -14.29,-1.65 -40.44,-1.32 -51.98,7.3 -25.88,19.32 -46.23,36.16 -45.62,74.29 0.57,35.09 16.62,55.21 47.24,72.55 15.73,8.9 36.15,9.04 54.41,7.17z"/>
   <path class="fil0 str0" d="M270.45 1181.82c5.97,4.67 6.35,7.32 6.63,15.71 1.45,43.31 -61.09,42.94 -71.94,13.44 -15.29,-11.19 3.81,-65.84 47.81,-46.11 10.66,4.77 11.74,7.68 17.5,16.96zm15.26 75.21c0.6,-1.68 19.49,-17.61 23.91,-26.73 6.54,-13.49 4.34,-33.71 7.92,-45.94 1.7,-5.81 21.68,-19.44 27.38,-24.43 9.31,-8.15 19.87,-16.53 28.35,-25.31 10.96,-11.34 99.87,-102.75 104.77,-105.1 1.63,-15.11 -24.28,-34.08 -26.1,-34.22 -12.18,1.5 -30.73,25.39 -39.64,34.89 -11.84,12.61 -26.4,24.21 -38.81,36.84l-74.44 76c-13.23,-5.56 -31.2,-41.99 -84.23,-27.8 -24.54,6.57 -53.21,34.25 -56.49,58.88 -4.89,36.7 6.11,56.68 34.37,80.96 11.19,9.62 29.96,14.2 44.89,14.34 27.65,0.28 34.94,-8.97 48.12,-12.38z"/>
   <path class="fil0 str0" d="M1593.99 741.81c-2.86,-10.73 1.84,-21.7 7.5,-29.63 11.13,-15.61 37.41,-21.96 54.41,-4.79 7.16,7.22 14.26,14.38 15.14,24.96 3.31,39.88 -42.8,63.07 -70.14,22.17 -1.15,-1.73 -6.68,-11.88 -6.91,-12.71zm0.77 67.81c0.81,0.01 47.05,22.51 74.33,-1.29 5.09,-4.44 8.66,-5.26 14.06,-9.53 5.11,-4.04 7.82,-8.32 12.35,-12.81 7.44,-7.37 14.65,-20.66 16.09,-31.57 1.02,-28.44 1.14,-39.91 -13.98,-63.44 -4.43,-6.9 -12.35,-14.03 -18.86,-19.15 -12.9,-10.17 -9.32,-8.5 -25.96,-13.26 -11.89,-3.4 -21.25,-4.39 -33.68,-2.56 -45.32,6.7 -60.67,53.65 -61.03,53.96 -5.71,4.95 -138.82,2.47 -163.52,2.32 -9.34,-0.06 -18.37,0.19 -27.66,-0.71 -6.46,-0.62 -19.81,-2.62 -25.41,-2.18l-1.06 48.27c23.6,2.78 213.18,-3.14 215.91,-0.98 3.46,2.73 5.86,24.5 25.03,41.06 5.19,4.48 10.11,6.07 13.39,11.87z"/>
   <path class="fil0 str0" d="M1288.23 1082.04c10.27,4.77 38.14,40.51 49.33,51.15 8.69,8.27 48.74,42.06 51.02,50.39 3.47,12.67 -3.29,34.9 35.94,62.85 9.65,6.87 21.29,13.53 32.82,17.23 16.94,5.43 30.53,-1.73 45.98,-3.22 6.43,-2.18 10.46,-6.76 14.47,-7.67 -2.07,0.62 -2.62,0.86 -5.17,1.79l-7.11 2.33c1.74,-7.43 0.52,-4.12 6.58,-8.99 -0.18,-1.55 -1.43,-7.46 -1.89,-8.64 -2.8,-7.17 -2.2,-2.91 -3.87,-5.37 -5.04,-7.39 0.08,-10.99 1.23,-14.14 -5.21,-2.57 -14.23,5.51 -23.08,7.04 -6.98,1.22 -27.73,3.36 -27.59,-6.13 -6.93,-6.26 -19.57,-12.89 -23.43,-23.79 -8.78,-24.81 17.25,-52.93 47.9,-49.13 17.92,2.23 19.08,12.93 28.81,19.67 6.25,1.85 5.85,2.25 9.16,19.14 8.04,-0.65 0.82,-0.15 8.07,-3.37l5.49 6.49c3.5,-7 4.91,-8.81 5.41,-17.36 6.14,-2.97 -0.56,2.59 6.06,-1.28 -1.12,-9.04 -4.28,-12.46 -3.52,-20.24 1.64,-7.61 -14.52,-23.35 -20.86,-28.2 -20.07,-15.32 -56.57,-18.36 -80.8,-6.36 -7.91,3.92 -25.12,20 -30.39,21.06 -6.93,-1.38 -28.36,-25.91 -32.51,-31.86 -6.98,-9.99 -27.49,-26.43 -31.5,-36.14l-58.12 -53.87c-24.97,-27.71 -22.35,-12.9 -35.31,-2.22 -4.24,3.5 -9.96,8.95 -11.87,14.1 3.27,13.14 44.95,43.68 48.75,54.74z"/>
   <path class="fil0 str0" d="M1304.51 1345.82c-16.01,43.36 -85.96,15.89 -66.45,-21.04 3.71,-7.02 10.83,-12.11 16.77,-16.21 25.08,-17.33 60.71,7.39 49.68,37.25zm-93.64 -59.92c-2.27,7.74 -7.18,11.48 -10.21,18.65 -2.65,6.3 -4.61,15.34 -5.04,22.28 -1.6,25.69 2.87,25.86 8.92,46.61 7.98,6.01 11.83,22.63 45.39,38.03 13.28,6.09 51.24,-0.5 68.32,-15.91 10.19,-9.19 20.36,-21.26 23.03,-33.87 2.45,-33.28 8.07,-63.67 -26.65,-91.96 -17.05,-13.89 -20.5,-8.03 -26.39,-16.95l-34.02 0.5c-17.87,-18.92 -37.53,-36.03 -55.41,-55.42 -8.88,-9.64 -19.46,-17.19 -27.94,-27.13 -6.05,-7.09 -20.82,-24.59 -30.28,-25.41 -0.93,16.8 0.78,10.09 -9.71,20.26 -18.54,17.98 20.69,45.22 28.03,53.28 10.01,10.96 18.45,21.76 28.16,31.79 8.34,8.62 26.21,20.58 26.67,33.83l-2.87 1.42z"/>
   <path class="fil0 str0" d="M415.14 212.39c19.94,-4.04 43.39,12.6 44.29,34.29 0.97,23.28 -13.26,42.78 -36.04,47.2 -40,7.77 -63.62,-40.47 -36.48,-68.21 14.67,-14.99 20.08,-11.62 28.23,-13.28zm24.7 121.57c2.28,0.71 25.26,26.45 25.68,28.82 7.92,2.66 34.78,28.75 39,37.74 13.93,29.69 22.31,-1.7 31.87,-7.09 2.61,-8.95 9.98,-10.18 10.67,-20.84 -8.27,-8.09 -40.25,-35.88 -43.23,-43.96 -5.42,-0.55 -9.47,-6.62 -13.01,-10.49 -3.94,-4.31 -9.26,-8.54 -12.25,-13.02 0.59,-3.78 11.49,-25.78 13.95,-26.97 1.53,-12.14 4.84,-15.42 3.78,-29.94 -0.64,-8.72 -3.8,-18.34 -6.72,-26.45 -3.86,-10.7 -18.33,-30.09 -28.46,-36.32 -28.52,-17.54 -72.22,-16.41 -97.53,12.26 -9.63,10.91 -20.49,27.51 -23.04,41.72 -7.91,44.07 12.09,66.18 42.6,85.51 9.41,5.96 12.72,7.24 24.64,7.22 5.25,-0.02 10.57,-0.15 15.81,-0.53 15.81,-1.14 12.56,-1.78 16.24,2.34z"/>
   <path class="fil0 str0" d="M424.93 1304.36c35.5,-11.87 78.47,40.18 29.39,62.7 -18.91,8.68 -37.41,-3.62 -45.67,-19.09 -10.97,-20.59 3.47,-39.32 16.28,-43.61zm48.39 -57.22c-6.55,23.27 -24.61,0.9 -55.83,10.26 -12.96,3.88 -24.32,11.85 -31.84,22.06 -29.79,40.42 -26.18,79.72 11.19,112.02 12.79,11.06 19.4,10.21 28.98,12.56 15.36,3.76 36.71,10.42 55.9,-3.42 9.25,-6.68 12.45,-12.84 18.16,-22.34 4.24,-7.06 1.68,-4.98 7.6,-6.62 6.05,-7.96 11.03,-29.88 10.17,-44.74 -1.18,-20.18 -16.29,-29.67 -17.4,-39.38 0.96,-7.23 44.33,-47.51 47.9,-55.59 1.47,-12.31 10.82,-10.17 12.6,-21.74 -5.25,0.89 -6.3,2.29 -9.48,6.29 -5.8,-9.72 -0.41,-1.7 -9.23,-6.28 0.62,-4.98 0.06,-3.22 3.45,-6.32 -4.96,-3.08 -10.81,-2.14 -4.51,-11.91 4.59,-7.13 8.01,-1.07 8.95,-12.14 -9.61,0.25 -15.57,9.48 -21.08,15.74l-37.12 35.47c-6.07,6.09 -11.61,16.14 -18.41,16.08z"/>
   <path class="fil0 str0" d="M1167.66 379.08c8.04,3.45 20.39,34.39 21.41,35.05 13.65,8.79 75.66,-65.52 80.2,-73.56 4.2,-6.2 6.43,-4.46 14.91,-4.34 9.77,0.13 35.26,-1.52 40.18,-9.1 -4.15,-9.37 -1.08,-0.28 -7.74,-5.81 -8.48,-7.03 -2.26,-23.57 -2.18,-24.57 -15.59,-0.39 -15.69,5.9 -34.12,-1.68 -10.02,-4.12 -19.41,-8.25 -21.31,-18.85l-2.8 -9.11c-9.37,-3.58 -11.6,-21.05 5.25,-37.11 24.18,-23.04 75.83,-4.95 73.63,34.02 -1.07,18.99 -8.25,8.77 -3.85,17.94 9.02,-4.39 -3.47,0.5 12.57,-10.38 5.64,-3.82 8.8,-5.36 16,-6.1 0.18,-1.67 0.37,-4.22 0.77,-5.77 2.01,-7.85 2.33,-0.31 2.98,-14.61 1.31,-29.16 -15.94,-29.31 -21.85,-47.83 -8.91,-15.08 -68.33,-35.69 -107.43,13.57 -7.83,9.86 -14.05,22.5 -16.41,36.4 -8.85,52.26 38.04,42.73 4.77,74.96 -22.8,22.09 -30.88,32.49 -55.66,50.49l0.68 6.39z"/>
   <path class="fil0 str0" d="M263.98 492.07c10.4,12.83 24.58,15.96 20.34,39.6 -3.08,17.14 -19.29,26.62 -36.58,21.56 -14.1,-4.13 -23.38,-20.3 -20.29,-38 3.7,-21.16 18.25,-23.19 36.93,-22.08 -3.47,-3.61 0.21,-2.65 -7.88,-4.15 -6.9,-1.27 -13.81,1.95 -23.9,0.73 0.09,-10.93 3.41,-2.13 3.56,-9.85 0.09,-4.4 -1.82,-1.86 -7.09,-6.1l1.65 -6.55c0,-0.17 -0.05,-0.64 -0.05,-0.8l-1.45 -8.03c14.29,-9.36 32.9,-10.01 49.59,-5.02 11.87,3.55 29.56,17.98 29.5,32.08l-6.88 -3.11c-0.46,7.01 -1.21,12.2 -1.79,18.39 -4.71,2.81 -3.15,1.71 -9.35,2.12 0.44,8.34 1.13,3.35 -1.86,8.43 -8,-4.16 -4.58,-6.1 -10.27,-11.98 -4.89,-5.03 -8.38,-6.87 -14.18,-7.24zm31.17 86.83l16.41 -15.93c5.97,-11.25 14.46,-8.92 26.81,-10.04 12.61,-1.15 23.41,-1.4 36.36,-1.38 16.92,0.04 58.6,4.59 70.18,-6 2.3,-8.37 3.4,-26.42 -3.91,-32.49 -5.78,-4.8 -26.66,-5.16 -34.75,-5.35 -104.41,-2.47 -65.57,9.42 -97.24,-37.9 -5.41,-8.08 -24.89,-20.94 -35.24,-22.49 -26.35,-3.93 -47.78,2.8 -66.48,19.66l-10.01 12.35c-10.79,15.88 -15.09,33.02 -10.1,53.6 6.54,26.97 17.3,34.76 37.88,49.64 5.94,4.3 14.83,7.35 21.93,8.55 8.61,1.46 18.81,0.5 26.77,-2.05 9.34,-2.99 14.1,-7.21 21.39,-10.17z"/>
   <path class="fil0 str0" d="M1446.77 960.99l-10.48 -3.91c-17.86,-5.78 -13.05,-29.71 -3.85,-41.65 6.51,-8.45 7.9,-9.75 18.38,-11.59 42.62,-7.46 45.47,36.51 39.8,44.6 -8,11.4 -32.04,25.63 -43.85,12.55zm-144.13 -53.6c10.14,-4.3 16.93,-3.31 29.07,-1.62l2.53 11.85c1.76,5.64 0.8,7.04 1.25,13.5 0.97,13.61 8.67,5.17 17.38,10.67 -3.58,6.32 -15.67,3.37 -22.93,3.44 -9.42,0.09 -17.6,2.35 -26.7,0.86 -4.77,-11.93 3.44,-26.56 0.39,-38.86 -4.57,7.03 -3.93,31.8 -4.39,41.73 17.46,-1.55 82.41,-2.84 98,0.08 1.45,5.06 -2.61,24.38 23.72,42.08 23.41,15.73 19.1,16.52 50.83,16.56 17.56,-1.28 40.07,-21.33 48.61,-35.77l8.67 -19.93c0.72,-28.14 2.95,-45.41 -23.27,-70.64 -15.13,-14.56 -48.66,-22.34 -74.42,-12.59 -26.24,9.93 -29.61,28.38 -33.61,30.33 -3.52,1.72 -75.85,-1.43 -87.44,1.37 -7.41,1.79 -6.18,1.7 -7.69,6.94z"/>
   <path class="fil0 str0" d="M849.87 45.13c18.43,-6.65 41.41,4.23 49.17,22.18 3.98,9.22 4.42,21.99 -2.31,31.27 -7.74,10.65 -7.85,12.57 -20.75,17.27 -37.53,13.69 -60.59,-21.35 -46.45,-52.82 5.32,-11.86 8.79,-13.73 20.34,-17.9zm89.53 60.12l-0.34 -8.47c1.35,-33.44 0.27,-35.08 -15.23,-61.92 -7.66,-13.27 -30.3,-26.44 -45.19,-30.88 -66.16,-19.72 -116.53,67.32 -79.68,120.92 7.95,11.56 11.65,28.65 42.05,33.83 39.11,6.67 59.36,-0.32 82.63,-28.44 8.14,-9.84 8.16,-15.65 12.02,-21.04 2.74,-3.83 0.5,-1.32 3.74,-4z"/>
   <path class="fil0 str0" d="M283.3 917.26c4.41,7.26 6.95,20 3.73,28.79 -1.28,3.51 -11.25,16.28 -15.56,19.71 -11.7,20.17 -52.67,-1.95 -46.61,-35.95 5.06,-28.4 49.17,-40.07 58.44,-12.55zm-11.04 90.62c20.17,0.08 42.35,-14 44.15,-34.07 0.09,-4.85 4.5,-19.06 6.31,-23.36 4.42,-10.57 10.26,-6.1 20.07,-8.11l-2.68 -1.93c-6.13,-3.5 -9.41,-2.17 -11.12,-3.79 -4.75,-6.22 3.03,3.29 -0.93,-6.01 -4.56,-10.73 -4.97,7.63 -5.07,-24.83 -5.6,-4.82 -24.48,-23.15 -25.49,-27.96 -25.48,-20.86 -68.07,-14.36 -94.16,12.66 -6.49,6.73 -13.82,18.62 -15.63,27.9 -5.09,26.01 -0.18,48.96 17.42,67.25 24.59,25.56 42.45,22.36 67.13,22.25z"/>
   <path class="fil0 str0" d="M697.87 468.02c-0.45,1.54 -63.6,51.7 -73.25,63.45 -13.39,16.31 -11.83,10.07 -28.21,36.44 -15.84,25.49 -22.18,33.62 -37.64,63.06 -9.59,18.24 -25.53,58.19 -22.53,79.04 6.35,7.85 24.24,8.38 33.84,7.68 3.82,-7.22 3.98,-27.39 8.01,-37.47 1.98,-4.95 5.84,-10.17 7.93,-15.36 2.49,-6.19 4.06,-11.27 6.78,-17.33 8.15,-18.16 23.55,-41.38 36.53,-56.28 6.95,-7.98 13.15,-18.26 20.39,-25.35l23.91 -23.37c7.05,-6.32 45.61,-36.78 52.7,-38.86 4.62,-8.18 11.54,-10.84 4.4,-23.27 -2.16,-3.76 -9.41,-11.74 -12.47,-15.72 -10.42,-1.77 -11.39,1.17 -20.39,3.34z"/>
   <path class="fil0 str0" d="M1446.1 488.75c12.84,-5.87 30.17,2.08 36.37,21.35 2.95,9.17 2.85,17.96 -3.06,24.9 -26.89,31.64 -57.37,0.39 -59.22,-9.36 -2.17,-11.43 1.39,-16.05 7.5,-23.54 11.15,-13.62 12.87,-10.81 18.41,-13.35zm-12.74 -40.72c-2.87,5.57 -4.55,4.54 -10.82,8.2 -39.9,23.33 -33.74,47.33 -33.09,79.08l-6.11 5.74c8.17,1.64 10.17,-1.14 13.01,6.59 7.73,21.06 8.31,12.64 26.42,27.21 17.79,14.31 45.4,9.76 57.6,10.24 5.34,0.78 6.79,0.25 11.37,-3.16 3.64,-2.72 6.35,-4.44 10.11,-7.17 5.33,-3.88 11.2,-11.87 15.62,-17.47 3.08,-13.57 9.51,-34.07 6.71,-47.09 -7.1,-32.99 -32.22,-64.62 -68.14,-64.93 -5.79,-0.05 -18.74,0.96 -22.68,2.76z"/>
   <path class="fil0 str0" d="M1284.22 544.13c10.39,7.91 12.32,4.91 23.01,7.42 3.2,-2.78 -0.21,-0.84 3.99,-2.15 2.46,-0.76 3.4,-0.71 5.98,-0.92 3.07,-0.25 6.62,-0.49 9.69,-0.7 12.27,-0.84 58.24,-1.56 65.98,0.22 5.55,10.69 -1.68,8.08 10.98,18.97 2.87,2.48 16.92,12.69 17.08,12.91 7.84,2.03 16.56,7 24.95,9.64 12.9,4.06 17.36,0.54 30.14,0.12l4.35 -4.55c-12.2,-0.48 -39.81,4.07 -57.6,-10.24 -18.11,-14.57 -18.69,-6.15 -26.42,-27.21 -2.84,-7.73 -4.84,-4.95 -13.01,-6.59l6.11 -5.74c-0.65,-31.75 -6.81,-55.75 33.09,-79.08 6.27,-3.66 7.95,-2.63 10.82,-8.2 -36.71,8.81 -49.43,51.47 -52.38,53.12 -10.98,4.14 -47.93,0.42 -62.8,2.22 -9.89,1.2 -19.42,1.31 -29.14,2.8 -8.59,1.31 -17.39,3.85 -23.11,8.58 1.18,5.46 15.28,23.08 18.29,29.38z"/>
   <path class="fil0 str0" d="M316.41 973.81c8.44,-5.34 5.83,-16.09 12.53,-25.69l20.57 0.33c16.59,-0.42 85.19,4.4 94.59,-3.22 3.53,-8.64 -1.91,-39.18 -8.8,-44.83 -3.47,-1.3 -66.25,2.74 -77.92,2.63 -53.2,-0.51 -35.59,-14.56 -59.88,-25.21 1.01,4.81 19.89,23.14 25.49,27.96 0.1,32.46 0.51,14.1 5.07,24.83 3.96,9.3 -3.82,-0.21 0.93,6.01 1.71,1.62 4.99,0.29 11.12,3.79l2.68 1.93c-9.81,2.01 -15.65,-2.46 -20.07,8.11 -1.81,4.3 -6.22,18.51 -6.31,23.36z"/>
   <path class="fil0 str0" d="M838.74 646.59c-5.55,7.12 -2.69,22.71 -3.08,32.09 -0.42,10.13 -0.97,19.76 -1.11,30.01l0.5 189.25c0.38,27.74 2.98,241.68 -3.53,251.51 4.61,12.98 -4.22,36.84 2.52,48.97 5.88,1.83 42.74,1.56 48.09,-0.96 6.69,-6.62 3.05,-446.92 3.08,-531.35 0.01,-29.28 -2.66,-18.6 -4.11,-31.15 7.73,-4.88 11.37,0.22 17.45,-9.03 -5.1,0.52 -18.14,4.04 -21.66,7.6 0.53,10.96 4.46,16.14 4.39,29.41 -0.4,74.18 3.18,516.01 -2.79,532.18 -6.53,1.12 -36.98,2.06 -42.24,0.03 -2.9,-17.08 1.44,-45.32 1.93,-63.76 3.63,-136.31 -1.24,-278.65 -0.05,-414.81 0.15,-17.23 3.43,-55.64 0.61,-69.99z"/>
   <path class="fil0 str0" d="M1256.21 267.11c-0.95,-12.07 -6.01,-18.28 3.33,-27.88 42.66,-43.85 102.73,20.91 49.78,51.48 -9.64,5.56 -18.66,4.44 -28.5,0.34 -9.77,-4.07 -13.96,-11.17 -21.81,-14.83 1.9,10.6 11.29,14.73 21.31,18.85 18.43,7.58 18.53,1.29 34.12,1.68 -0.08,1 -6.3,17.54 2.18,24.57 6.66,5.53 3.59,-3.56 7.74,5.81 -4.92,7.58 -30.41,9.23 -40.18,9.1 -8.48,-0.12 -10.71,-1.86 -14.91,4.34 22.52,-1.25 31.17,-0.27 52.71,-6.73 20.6,-6.18 20.89,-11.9 34.48,-24.15 1.84,-11.61 9.27,-15.85 12.15,-27.49 2.28,-9.2 3.44,-26 2.65,-35.64 -1.22,-14.85 -15.4,-44.9 -29.55,-49.29 5.91,18.52 23.16,18.67 21.85,47.83 -0.65,14.3 -0.97,6.76 -2.98,14.61 -0.4,1.55 -0.59,4.1 -0.77,5.77 -7.2,0.74 -10.36,2.28 -16,6.1 -16.04,10.88 -3.55,5.99 -12.57,10.38 -4.4,-9.17 2.78,1.05 3.85,-17.94 2.2,-38.97 -49.45,-57.06 -73.63,-34.02 -16.85,16.06 -14.62,33.53 -5.25,37.11z"/>
   <path class="fil0 str0" d="M473.32 1247.14c6.8,0.06 12.34,-9.99 18.41,-16.08l37.12 -35.47c5.51,-6.26 11.47,-15.49 21.08,-15.74 -0.94,11.07 -4.36,5.01 -8.95,12.14 -6.3,9.77 -0.45,8.83 4.51,11.91 -3.39,3.1 -2.83,1.34 -3.45,6.32 8.82,4.58 3.43,-3.44 9.23,6.28 3.18,-4 4.23,-5.4 9.48,-6.29 -1.78,11.57 -11.13,9.43 -12.6,21.74 9.5,-5.19 28.44,-31.35 35.32,-41.63 5.91,-8.83 12.85,-13.78 12.02,-25.69 -0.57,-8.19 -5.26,-25.42 -5.37,-30.56 -15.02,-4.54 -2.03,3.4 -31.32,28.46 -15.19,13.01 -82.38,75.46 -85.48,84.61z"/>
   <path class="fil0 str0" d="M264.38 493.15l-0.4 -1.08c5.8,0.37 9.29,2.21 14.18,7.24 5.69,5.88 2.27,7.82 10.27,11.98 2.99,-5.08 2.3,-0.09 1.86,-8.43 6.2,-0.41 4.64,0.69 9.35,-2.12 0.58,-6.19 1.33,-11.38 1.79,-18.39l6.88 3.11c0.06,-14.1 -17.63,-28.53 -29.5,-32.08 -16.69,-4.99 -35.3,-4.34 -49.59,5.02l1.45 8.03c0,0.16 0.05,0.63 0.05,0.8l-1.65 6.55c5.27,4.24 7.18,1.7 7.09,6.1 -0.15,7.72 -3.47,-1.08 -3.56,9.85 10.09,1.22 17,-2 23.9,-0.73 8.09,1.5 4.41,0.54 7.88,4.15z"/>
   <path class="fil0 str0" d="M1510.17 1167.41c2.57,11 5.91,12.84 2.3,25.19 -2.22,7.59 -4.9,13 -9.82,18.43 -14,15.43 -26.43,13.72 -45.76,9.63 -0.14,9.49 20.61,7.35 27.59,6.13 8.85,-1.53 17.87,-9.61 23.08,-7.04 -1.15,3.15 -6.27,6.75 -1.23,14.14 1.67,2.46 1.07,-1.8 3.87,5.37 0.46,1.18 1.71,7.09 1.89,8.64 -6.06,4.87 -4.84,1.56 -6.58,8.99l7.11 -2.33c2.55,-0.93 3.1,-1.17 5.17,-1.79 2.6,-4.05 10.39,-11.65 14.69,-12.01 2.4,-6.73 7.74,-10.97 10.87,-19.09 2.4,-6.24 5.13,-15.28 6.48,-21.75 2.99,-14.34 2.8,-40.05 -8.99,-49.13 -0.76,7.78 2.4,11.2 3.52,20.24 -6.62,3.87 0.08,-1.69 -6.06,1.28 -0.5,8.55 -1.91,10.36 -5.41,17.36l-5.49 -6.49c-7.25,3.22 -0.03,2.72 -8.07,3.37 -3.31,-16.89 -2.91,-17.29 -9.16,-19.14z"/>
   <path class="fil0 str0" d="M840.51 192.09c-2.82,11.47 -4.55,53.76 -1.51,64.66 6.8,0.69 32.09,1.79 37.65,0.22 1.45,-9.83 0.36,-57.97 -3.8,-64.48 -6.4,-2.58 -25.31,-2.15 -32.34,-0.4z"/>
   <path class="fil0 str0" d="M937.45 911.72c-3.51,4.48 -2.76,8.86 -2.8,14.54 -0.27,38.25 -1.84,261.14 -0.05,271.18 6.99,2.67 39.74,2.36 46.92,0.08 3.06,-13.77 1.8,-207.07 2.36,-239.65 0.15,-9.11 -1.96,-29.78 4.45,-35.79 6.65,-6.22 17.04,-13.27 21.04,-20.98 -7.2,1.72 -17.24,13.28 -23.35,18.75 -8.83,7.93 -5.46,23.54 -5.62,34.86l-0.4 160.86c-0.26,18.82 1.86,63.95 -1,79.81l-41.74 0.72c-2.57,-17.8 0.29,-51.41 0.55,-71.06 0.42,-31.65 1.76,-206.75 -0.36,-213.32z"/>
   <path class="fil0 str0" d="M1302.64 907.39l0.99 -0.16c3.05,12.3 -5.16,26.93 -0.39,38.86 9.1,1.49 17.28,-0.77 26.7,-0.86 7.26,-0.07 19.35,2.88 22.93,-3.44 -8.71,-5.5 -16.41,2.94 -17.38,-10.67 -0.45,-6.46 0.51,-7.86 -1.25,-13.5l-2.53 -11.85c-12.14,-1.69 -18.93,-2.68 -29.07,1.62z"/>
   <path class="fil0 str0" d="M470.87 1410.18c14.63,-2.56 32.74,-24.93 36.61,-38.52 -5.92,1.64 -3.36,-0.44 -7.6,6.62 -5.71,9.5 -8.91,15.66 -18.16,22.34 -19.19,13.84 -40.54,7.18 -55.9,3.42 -9.58,-2.35 -16.19,-1.5 -28.98,-12.56 -37.37,-32.3 -40.98,-71.6 -11.19,-112.02 7.52,-10.21 18.88,-18.18 31.84,-22.06 31.22,-9.36 49.28,13.01 55.83,-10.26 -10.07,2.81 -1.94,8.23 -17.74,6.04 -21.55,-2.98 -39.68,-2.83 -58.21,11.27 -56.77,43.16 -40.87,125.66 26.74,144.83 20.53,5.82 26.78,3.23 46.76,0.9z"/>
   <path class="fil0 str0" d="M647.33 1058.81c2.97,9.75 12.04,15.06 17.55,26.74 4.85,10.26 6.52,22.28 9.46,33.07 5.59,20.44 8.71,54.71 6.54,76.19 -5.01,1.89 -41.19,4.03 -44.23,2.69 -9.96,-15.04 -0.81,-90.55 -20.59,-102.46 -9.3,-5.6 -10.36,-4.7 -18.86,-12.75l-48.56 -44.14c2.22,9.36 36.46,37.16 46.84,47.41 8.43,8.33 9.61,7.18 19.24,12.75 15.14,8.75 10.53,97.73 20.59,103.29 4.33,0.59 17.69,-1.86 24.72,-2 7.28,-0.14 17.88,1.36 22.85,-2.43 6.4,-12.13 -1.87,-63.05 -4.94,-78.27 -3.06,-15.2 -13.35,-53.3 -30.61,-60.09z"/>
   <path class="fil0 str0" d="M409.67 216.56c46.7,-14.14 68.04,56.97 14.53,72.01 -10.95,3.08 -22.4,0.41 -30.41,-5.83 -30.26,-23.59 -10.82,-58.09 15.88,-66.18zm5.47 -4.17c-8.15,1.66 -13.56,-1.71 -28.23,13.28 -27.14,27.74 -3.52,75.98 36.48,68.21 22.78,-4.42 37.01,-23.92 36.04,-47.2 -0.9,-21.69 -24.35,-38.33 -44.29,-34.29z"/>
   <path class="fil0 str0" d="M1041.48 1096.29c-4.67,7.24 -14.66,90.89 -5.99,102.51l46.11 -0.42 10.51 -94.92c6.79,-6 9.86,-1.59 16.46,-11.54 -6.41,0.56 -12.73,4.54 -18.62,7.44 -1.98,14.37 -3.57,31.57 -6.16,45.34 -2.6,13.75 -1.08,39.05 -4.56,48.94 -11.93,1.74 -30.7,1.47 -41.62,1.62 -4.44,-38.69 6.9,-89.41 3.87,-98.97z"/>
   <path class="fil0 str0" d="M727.3 729.19c-4.44,21.28 -16.58,35.82 -40.54,32.95 -22.35,-2.67 -29.86,-23.69 -28.52,-44.07 3.34,-50.37 79.14,-37.26 69.06,11.12zm-43.94 -45.01c-25.43,6.66 -31.34,24.83 -27.79,51.07 3.15,23.23 27.55,35.11 49.85,29.42 17.03,-4.36 30.88,-32.93 26.33,-50.33 -5.65,-21.57 -26.21,-35.97 -48.39,-30.16z"/>
   <path class="fil0 str0" d="M1462.78 1153.22c51.61,-13.17 62.57,50.16 22.59,65.29 -18.9,7.16 -39.02,-4.86 -46.5,-21.07 -9,-19.51 5.66,-39.56 23.91,-44.22zm-5.89 67.44c19.33,4.09 31.76,5.8 45.76,-9.63 4.92,-5.43 7.6,-10.84 9.82,-18.43 3.61,-12.35 0.27,-14.19 -2.3,-25.19 -9.73,-6.74 -10.89,-17.44 -28.81,-19.67 -30.65,-3.8 -56.68,24.32 -47.9,49.13 3.86,10.9 16.5,17.53 23.43,23.79z"/>
   <path class="fil0 str0" d="M840.51 192.09c7.03,-1.75 25.94,-2.18 32.34,0.4 4.16,6.51 5.25,54.65 3.8,64.48 -5.56,1.57 -30.85,0.47 -37.65,-0.22 -3.04,-10.9 -1.31,-53.19 1.51,-64.66zm23.75 70.84c8.85,-2.49 14.91,3.54 16.38,-6.76 0.76,-5.28 0.04,-16.36 -0.05,-22.17 -0.22,-13.8 -2.04,-28.35 -2.2,-40.83 -7.36,-7.5 -29.43,-7 -39.31,-3.67 -5.6,7.61 -8.19,62.91 -2.68,69.5 3.63,2.79 14.56,0.5 20.73,1.44 8.39,1.29 2.07,-1.05 7.13,2.49z"/>
   <path class="fil0 str0" d="M46.87 721.17c15.77,-8.29 12.64,-20.93 41.05,-20.12 36.11,1.03 42.25,51.45 16.01,71.19 -22.18,16.69 -29.9,-0.64 -46.02,-2.42 2.88,5.98 -1.9,1.66 5.43,6.26l18.02 6.47c11.5,1.35 16.71,-1.64 25.05,-7.59 36.13,-25.75 13.48,-99.22 -44.78,-71.62 -5.09,2.42 -13.33,11.23 -14.76,17.83z"/>
   <path class="fil0 str0" d="M1436.29 957.08c-5.6,-8.37 -8.88,-9.1 -7.84,-21.34 2.82,-32.92 39.22,-33.71 49.36,-24.89 9.64,8.38 15.81,27.88 8.25,39.07 -11.29,16.7 -32.74,10.94 -39.29,11.07 11.81,13.08 35.85,-1.15 43.85,-12.55 5.67,-8.09 2.82,-52.06 -39.8,-44.6 -10.48,1.84 -11.87,3.14 -18.38,11.59 -9.2,11.94 -14.01,35.87 3.85,41.65z"/>
   <path class="fil0 str0" d="M271.47 965.76c-13.62,1.86 -17.15,10.13 -32.02,-3.55 -22.31,-20.53 -10.84,-48.35 10.1,-55.47 18.23,-6.21 21.46,4.8 33.75,10.52 -9.27,-27.52 -53.38,-15.85 -58.44,12.55 -6.06,34 34.91,56.12 46.61,35.95z"/>
   <path class="fil0 str0" d="M205.14 1210.97c10.85,29.5 73.39,29.87 71.94,-13.44 -0.28,-8.39 -0.66,-11.04 -6.63,-15.71 1.11,10.89 7.28,17.99 1.35,29.44 -8.22,15.89 -28.44,20.46 -46.76,13.42 -13.71,-5.27 -10.02,-10.16 -19.9,-13.71z"/>
  </g>
 </g>
</svg>
